<?xml version="1.0" standalone="no"?>
<!DOCTYPE svg PUBLIC "-//W3C//DTD SVG 1.1//EN" "http://www.w3.org/Graphics/SVG/1.1/DTD/svg11.dtd" >
<svg xmlns="http://www.w3.org/2000/svg" xmlns:xlink="http://www.w3.org/1999/xlink" version="1.1">
<metadata>
Created by FontForge 20150913 at Sun Apr 17 11:37:27 2016
 By Jimmy Wärting
Copyright (c) 2012 by Fontfabric LLC. All rights reserved.
</metadata>
<defs>
<font id="Panton-ExtraBold" horiz-adv-x="555" >
  <font-face 
    font-family="Panton ExtraBold"
    font-weight="800"
    font-stretch="normal"
    units-per-em="1000"
    panose-1="0 0 9 0 0 0 0 0 0 0"
    ascent="740"
    descent="-260"
    x-height="520"
    cap-height="710"
    bbox="-208.39 -260 1193 979.71"
    underline-thickness="50"
    underline-position="-100"
    stemh="148"
    stemv="162"
    unicode-range="U+0020-FB02"
  />
<missing-glyph horiz-adv-x="686" 
d="M626 41c0 -31 -10 -41 -41 -41h-479c-31 0 -41 10 -41 41v628c0 31 10 41 41 41h479c31 0 41 -10 41 -41v-628zM227 562v-413h237v413h-237z" />
    <glyph glyph-name="fi" unicode="fi" horiz-adv-x="609" 
d="M521 740c28 0 37 -9 37 -38v-58c0 -29 -9 -38 -37 -38h-186c-63 0 -90 -29 -90 -81v-5h277c27 0 36 -9 36 -37v-446c0 -28 -9 -37 -36 -37h-78c-28 0 -37 9 -37 37v349h-162v-349c0 -28 -10 -37 -38 -37h-76c-28 0 -38 9 -38 37v349h-43c-27 0 -37 9 -37 37v60
c0 28 10 37 37 37h43v4c0 142 83 216 238 216h190z" />
    <glyph glyph-name="fl" unicode="fl" horiz-adv-x="594" 
d="M504 740c28 0 37 -9 37 -37v-666c0 -28 -9 -37 -36 -37h-78c-28 0 -37 9 -37 37v569h-55c-62 0 -90 -27 -90 -81v-5h56c27 0 36 -9 36 -37v-60c0 -28 -9 -37 -36 -37h-56v-349c0 -28 -10 -37 -38 -37h-76c-28 0 -38 9 -38 37v349h-43c-27 0 -37 9 -37 37v60
c0 28 10 37 37 37h43v5c0 139 83 215 238 215h173z" />
    <glyph glyph-name=".notdef" horiz-adv-x="686" 
d="M626 41c0 -31 -10 -41 -41 -41h-479c-31 0 -41 10 -41 41v628c0 31 10 41 41 41h479c31 0 41 -10 41 -41v-628zM227 562v-413h237v413h-237z" />
    <glyph glyph-name="space" unicode=" " horiz-adv-x="202" 
 />
    <glyph glyph-name="A" unicode="A" horiz-adv-x="672" 
d="M663 40c10 -27 2 -40 -27 -40h-75c-50 0 -65 8 -74 37l-31 94h-247l-32 -94c-10 -29 -23 -37 -73 -37h-69c-30 0 -37 13 -27 40l239 636c10 28 22 34 50 34h77c28 0 41 -6 50 -32zM362 418c-23 72 -25 143 -25 143h-10s1 -71 -23 -142l-52 -156h162z" />
    <glyph glyph-name="Aacute" unicode="&#xc1;" horiz-adv-x="672" 
d="M355 909c23 13 47 20 66 -3l37 -43c17 -21 18 -31 -5 -40l-176 -62c-22 -8 -35 -11 -45 2l-20 25c-15 19 -15 28 2 38zM663 40c10 -27 2 -40 -27 -40h-75c-50 0 -65 8 -74 37l-31 94h-247l-32 -94c-10 -29 -23 -37 -73 -37h-69c-30 0 -37 13 -27 40l239 636
c10 28 22 34 50 34h77c28 0 41 -6 50 -32zM362 418c-23 72 -25 143 -25 143h-10s1 -71 -23 -142l-52 -156h162z" />
    <glyph glyph-name="Abreve" unicode="&#x102;" horiz-adv-x="672" 
d="M499 859c-24 -64 -84 -101 -163 -101s-139 37 -162 101c-6 19 -2 27 17 34l52 20c20 7 28 4 36 -12c10 -25 31 -39 57 -39c25 0 46 14 57 39c7 16 14 18 31 13l58 -21c19 -8 23 -15 17 -34zM663 40c10 -27 2 -40 -27 -40h-75c-50 0 -65 8 -74 37l-31 94h-247l-32 -94
c-10 -29 -23 -37 -73 -37h-69c-30 0 -37 13 -27 40l239 636c10 28 22 34 50 34h77c28 0 41 -6 50 -32zM362 418c-23 72 -25 143 -25 143h-10s1 -71 -23 -142l-52 -156h162z" />
    <glyph glyph-name="Acircumflex" unicode="&#xc2;" horiz-adv-x="672" 
d="M349 914c30 0 38 -1 67 -30l96 -97c14 -15 14 -30 -17 -30h-61c-33 0 -45 2 -60 20l-38 44l-41 -44c-18 -19 -27 -20 -58 -20h-57c-31 0 -31 15 -17 30l96 97c27 28 35 30 71 30h19zM663 40c10 -27 2 -40 -27 -40h-75c-50 0 -65 8 -74 37l-31 94h-247l-32 -94
c-10 -29 -23 -37 -73 -37h-69c-30 0 -37 13 -27 40l239 636c10 28 22 34 50 34h77c28 0 41 -6 50 -32zM362 418c-23 72 -25 143 -25 143h-10s1 -71 -23 -142l-52 -156h162z" />
    <glyph glyph-name="Adieresis" unicode="&#xc4;" horiz-adv-x="672" 
d="M236 902c49 0 65 -15 65 -63v-11c0 -47 -16 -64 -65 -64h-7c-49 0 -64 17 -64 64v11c0 48 15 63 64 63h7zM442 902c49 0 64 -15 64 -63v-11c0 -47 -15 -64 -64 -64h-7c-48 0 -64 17 -64 64v11c0 48 16 63 64 63h7zM663 40c10 -27 2 -40 -27 -40h-75c-50 0 -65 8 -74 37
l-31 94h-247l-32 -94c-10 -29 -23 -37 -73 -37h-69c-30 0 -37 13 -27 40l239 636c10 28 22 34 50 34h77c28 0 41 -6 50 -32zM362 418c-23 72 -25 143 -25 143h-10s1 -71 -23 -142l-52 -156h162z" />
    <glyph glyph-name="Agrave" unicode="&#xc0;" horiz-adv-x="672" 
d="M254 907c19 23 43 15 66 2l141 -83c18 -10 18 -19 2 -38l-19 -25c-10 -13 -23 -10 -45 -2l-176 62c-23 9 -22 19 -5 40zM663 40c10 -27 2 -40 -27 -40h-75c-50 0 -65 8 -74 37l-31 94h-247l-32 -94c-10 -29 -23 -37 -73 -37h-69c-30 0 -37 13 -27 40l239 636
c10 28 22 34 50 34h77c28 0 41 -6 50 -32zM362 418c-23 72 -25 143 -25 143h-10s1 -71 -23 -142l-52 -156h162z" />
    <glyph glyph-name="Amacron" unicode="&#x100;" horiz-adv-x="672" 
d="M453 883c27 0 34 -7 34 -35v-33c0 -27 -7 -34 -34 -34h-235c-27 0 -34 7 -34 34v33c0 28 10 35 34 35h235zM663 40c10 -27 2 -40 -27 -40h-75c-50 0 -65 8 -74 37l-31 94h-247l-32 -94c-10 -29 -23 -37 -73 -37h-69c-30 0 -37 13 -27 40l239 636c10 28 22 34 50 34h77
c28 0 41 -6 50 -32zM362 418c-23 72 -25 143 -25 143h-10s1 -71 -23 -142l-52 -156h162z" />
    <glyph glyph-name="Aogonek" unicode="&#x104;" horiz-adv-x="672" 
d="M375 710c28 0 41 -6 50 -32l240 -642c6 -16 5 -24 -4 -32c-52 -54 -69 -109 -65 -128c2 -11 10 -18 20 -18c5 0 11 1 17 5c10 6 19 4 23 -6l17 -41c6 -12 5 -19 -2 -26c-26 -23 -65 -35 -101 -35c-46 0 -89 14 -98 65c-10 53 18 121 76 180c-43 2 -52 10 -60 37l-31 94
h-247l-32 -94c-10 -29 -23 -37 -73 -37h-69c-30 0 -37 13 -27 40l239 636c10 28 22 34 50 34h77zM363 418c-24 72 -26 143 -26 143h-9s0 -71 -23 -142l-52 -156h162z" />
    <glyph glyph-name="Aring" unicode="&#xc5;" horiz-adv-x="672" 
d="M203 760c0 77 56 129 135 129c77 0 132 -53 132 -129c0 -40 -15 -73 -42 -95l235 -625c10 -27 2 -40 -27 -40h-75c-50 0 -65 8 -74 37l-31 94h-247l-32 -94c-10 -29 -23 -37 -73 -37h-69c-30 0 -37 13 -27 40l236 627c-26 22 -41 54 -41 93zM383 759c0 28 -19 47 -45 47
c-29 0 -49 -19 -49 -47c0 -26 20 -45 49 -45c26 0 45 19 45 45zM362 418c-23 72 -25 142 -25 142h-10s0 -70 -23 -141l-52 -156h162z" />
    <glyph glyph-name="Aringacute" unicode="&#x1fa;" horiz-adv-x="671" 
d="M362 970c21 10 44 16 62 -1l33 -33c16 -15 16 -23 -5 -29l-164 -47c-22 -5 -33 -7 -42 3l-19 18c-14 14 -7 25 10 32zM210 727c0 72 53 119 127 119c72 0 124 -48 124 -119c0 -31 -12 -57 -33 -75l234 -612c10 -27 2 -40 -27 -40h-75c-50 0 -65 8 -74 37l-31 94h-247
l-32 -94c-10 -29 -23 -37 -73 -37h-69c-30 0 -37 13 -27 40l237 612c-22 19 -34 44 -34 75zM379 731c0 25 -18 43 -42 43c-27 0 -45 -18 -45 -43s18 -43 45 -43c24 0 42 18 42 43zM361 418c-23 72 -25 143 -25 143h-10s1 -71 -23 -142l-52 -156h162z" />
    <glyph glyph-name="Atilde" unicode="&#xc3;" horiz-adv-x="672" 
d="M468 904c17 0 22 -8 22 -23c0 -89 -29 -118 -90 -118c-66 0 -89 50 -125 50c-11 0 -17 -8 -17 -29c0 -14 -5 -21 -20 -21h-45c-17 0 -23 7 -23 22c0 91 33 119 89 119c70 0 92 -50 128 -50c10 0 16 7 16 28c0 15 4 22 21 22h44zM663 40c10 -27 2 -40 -27 -40h-75
c-50 0 -65 8 -74 37l-31 94h-247l-32 -94c-10 -29 -23 -37 -73 -37h-69c-30 0 -37 13 -27 40l239 636c10 28 22 34 50 34h77c28 0 41 -6 50 -32zM362 418c-23 72 -25 143 -25 143h-10s1 -71 -23 -142l-52 -156h162z" />
    <glyph glyph-name="AE" unicode="&#xc6;" horiz-adv-x="880" 
d="M811 149c30 0 40 -11 40 -41v-67c0 -31 -10 -41 -40 -41h-342c-30 0 -41 10 -41 41v88h-196l-56 -93c-15 -26 -24 -36 -75 -36h-75c-30 0 -37 14 -26 40l407 636c16 25 23 34 50 34h344c31 0 41 -10 41 -41v-67c0 -30 -10 -40 -41 -40h-218v-129h168c31 0 41 -10 41 -40
v-67c0 -31 -10 -41 -41 -41h-168v-136h228zM428 449l-116 -191h116v191z" />
    <glyph glyph-name="AEacute" unicode="&#x1fc;" horiz-adv-x="880" 
d="M648 909c23 13 46 20 66 -3l36 -43c17 -21 18 -31 -5 -40l-176 -62c-22 -8 -35 -11 -45 2l-19 25c-16 19 -16 28 2 38zM811 149c30 0 40 -11 40 -41v-67c0 -31 -10 -41 -40 -41h-342c-30 0 -41 10 -41 41v88h-196l-56 -93c-15 -26 -24 -36 -75 -36h-75
c-30 0 -37 14 -26 40l407 636c16 25 23 34 50 34h344c31 0 41 -10 41 -41v-67c0 -30 -10 -40 -41 -40h-218v-129h168c31 0 41 -10 41 -40v-67c0 -31 -10 -41 -41 -41h-168v-136h228zM428 449l-116 -191h116v191z" />
    <glyph glyph-name="B" unicode="B" horiz-adv-x="655" 
d="M383 710c133 0 213 -68 213 -189c0 -68 -20 -114 -69 -148v-4c61 -26 96 -84 96 -172c0 -127 -100 -197 -236 -197h-285c-30 0 -41 10 -41 41v628c0 31 11 41 41 41h281zM431 498c0 46 -26 68 -73 68h-134v-136h134c47 0 73 21 73 68zM452 216c0 48 -25 73 -75 73h-153
v-145h153c50 0 75 23 75 72z" />
    <glyph glyph-name="C" unicode="C" horiz-adv-x="644" 
d="M42 456c0 166 106 269 295 269c148 0 241 -60 280 -168c11 -28 3 -42 -25 -52l-77 -27c-30 -9 -41 -4 -52 25c-19 49 -59 73 -126 73c-87 0 -132 -40 -132 -119v-204c0 -79 45 -119 132 -119c67 0 107 24 126 73c11 29 24 36 52 25l77 -27c28 -10 36 -24 25 -52
c-39 -108 -132 -168 -280 -168c-189 0 -295 103 -295 269v202z" />
    <glyph glyph-name="Cacute" unicode="&#x106;" horiz-adv-x="644" 
d="M362 909c23 13 47 20 66 -3l36 -43c18 -21 19 -31 -5 -40l-175 -62c-23 -8 -36 -11 -46 2l-19 25c-15 19 -16 28 2 38zM42 456c0 166 106 269 295 269c148 0 241 -60 280 -168c11 -28 3 -42 -25 -52l-77 -27c-30 -9 -41 -4 -52 25c-19 49 -59 73 -126 73
c-87 0 -132 -40 -132 -119v-204c0 -79 45 -119 132 -119c67 0 107 24 126 73c11 29 24 36 52 25l77 -27c28 -10 36 -24 25 -52c-39 -108 -132 -168 -280 -168c-189 0 -295 103 -295 269v202z" />
    <glyph glyph-name="Ccaron" unicode="&#x10c;" horiz-adv-x="644" 
d="M498 913c31 0 30 -15 16 -31l-96 -96c-28 -29 -36 -31 -67 -31h-18c-35 0 -42 2 -70 31l-95 96c-15 16 -16 31 15 31h59c32 0 41 -2 58 -20l41 -44l38 43c16 19 28 21 60 21h59zM42 456c0 166 106 269 295 269c148 0 241 -60 280 -168c11 -28 3 -42 -25 -52l-77 -27
c-30 -9 -41 -4 -52 25c-19 49 -59 73 -126 73c-87 0 -132 -40 -132 -119v-204c0 -79 45 -119 132 -119c67 0 107 24 126 73c11 29 24 36 52 25l77 -27c28 -10 36 -24 25 -52c-39 -108 -132 -168 -280 -168c-189 0 -295 103 -295 269v202z" />
    <glyph glyph-name="Ccedilla" unicode="&#xc7;" horiz-adv-x="644" 
d="M592 205c28 -10 36 -24 25 -52c-36 -98 -116 -157 -241 -167l-14 -36h8c53 0 89 -42 83 -96c-9 -79 -78 -99 -143 -99c-15 0 -50 1 -72 11c-17 7 -21 15 -21 31l-1 37c0 13 6 23 22 15c17 -9 29 -14 55 -14c29 0 39 13 39 27c0 15 -9 21 -38 22h-21c-19 0 -23 9 -15 28
l33 75c-160 16 -249 115 -249 267v202c0 166 106 269 295 269c148 0 241 -60 280 -168c11 -28 3 -42 -25 -52l-77 -27c-30 -9 -41 -4 -52 25c-19 49 -59 73 -126 73c-87 0 -132 -40 -132 -119v-204c0 -79 45 -119 132 -119c67 0 107 24 126 73c11 29 24 36 52 25z" />
    <glyph glyph-name="Ccircumflex" unicode="&#x108;" horiz-adv-x="644" 
d="M356 914c30 0 38 -1 66 -30l96 -97c15 -15 14 -30 -16 -30h-62c-32 0 -44 2 -60 20l-38 44l-41 -44c-17 -19 -26 -20 -58 -20h-57c-31 0 -31 15 -16 30l95 97c28 28 35 30 72 30h19zM42 456c0 166 106 269 295 269c148 0 241 -60 280 -168c11 -28 3 -42 -25 -52l-77 -27
c-30 -9 -41 -4 -52 25c-19 49 -59 73 -126 73c-87 0 -132 -40 -132 -119v-204c0 -79 45 -119 132 -119c67 0 107 24 126 73c11 29 24 36 52 25l77 -27c28 -10 36 -24 25 -52c-39 -108 -132 -168 -280 -168c-189 0 -295 103 -295 269v202z" />
    <glyph glyph-name="Cdotaccent" unicode="&#x10a;" horiz-adv-x="644" 
d="M345 903c51 0 66 -15 66 -66v-8c0 -51 -15 -66 -66 -66h-6c-51 0 -66 15 -66 66v8c0 51 15 66 66 66h6zM42 456c0 166 106 269 295 269c148 0 241 -60 280 -168c11 -28 3 -42 -25 -52l-77 -27c-30 -9 -41 -4 -52 25c-19 49 -59 73 -126 73c-87 0 -132 -40 -132 -119v-204
c0 -79 45 -119 132 -119c67 0 107 24 126 73c11 29 24 36 52 25l77 -27c28 -10 36 -24 25 -52c-39 -108 -132 -168 -280 -168c-189 0 -295 103 -295 269v202z" />
    <glyph glyph-name="D" unicode="D" horiz-adv-x="673" 
d="M336 710c190 0 295 -103 295 -269v-172c0 -166 -105 -269 -295 -269h-234c-30 0 -41 10 -41 41v628c0 31 11 41 41 41h234zM469 441c0 79 -46 121 -134 121h-111v-413h111c88 0 134 41 134 120v172z" />
    <glyph glyph-name="Eth" unicode="&#xd0;" horiz-adv-x="694" 
d="M357 710c189 0 295 -103 295 -269v-172c0 -166 -106 -269 -295 -269h-234c-31 0 -41 10 -41 41v273h-51c-18 0 -23 5 -23 26v53c0 19 7 25 23 25h51v251c0 31 10 41 41 41h234zM490 441c0 79 -46 121 -134 121h-112v-144h107c18 0 23 -6 23 -25v-53c0 -21 -5 -26 -23 -26
h-107v-165h112c88 0 134 41 134 120v172z" />
    <glyph glyph-name="Dcaron" unicode="&#x10e;" horiz-adv-x="673" 
d="M472 913c30 0 30 -15 15 -31l-95 -96c-28 -29 -36 -31 -67 -31h-18c-35 0 -43 2 -70 31l-96 96c-14 16 -15 31 16 31h59c32 0 41 -2 58 -20l41 -44l38 43c16 19 28 21 59 21h60zM336 710c190 0 295 -103 295 -269v-172c0 -166 -105 -269 -295 -269h-234
c-30 0 -41 10 -41 41v628c0 31 11 41 41 41h234zM469 441c0 79 -46 121 -134 121h-111v-413h111c88 0 134 41 134 120v172z" />
    <glyph glyph-name="Dcroat" unicode="&#x110;" horiz-adv-x="694" 
d="M357 710c189 0 295 -103 295 -269v-172c0 -166 -106 -269 -295 -269h-234c-31 0 -41 10 -41 41v273h-51c-18 0 -23 5 -23 26v53c0 19 7 25 23 25h51v251c0 31 10 41 41 41h234zM490 441c0 79 -46 121 -134 121h-112v-144h107c18 0 23 -6 23 -25v-53c0 -21 -5 -26 -23 -26
h-107v-165h112c88 0 134 41 134 120v172z" />
    <glyph glyph-name="E" unicode="E" horiz-adv-x="584" 
d="M504 710c31 0 41 -10 41 -41v-67c0 -30 -10 -40 -41 -40h-280v-129h230c31 0 41 -10 41 -40v-67c0 -31 -10 -41 -41 -41h-230v-136h290c30 0 41 -11 41 -41v-67c0 -31 -11 -41 -41 -41h-412c-30 0 -41 10 -41 41v628c0 31 11 41 41 41h402z" />
    <glyph glyph-name="Eacute" unicode="&#xc9;" horiz-adv-x="584" 
d="M324 909c23 13 46 20 66 -3l36 -43c17 -21 18 -31 -5 -40l-176 -62c-22 -8 -35 -11 -45 2l-20 25c-15 19 -15 28 3 38zM504 710c31 0 41 -10 41 -41v-67c0 -30 -10 -40 -41 -40h-280v-129h230c31 0 41 -10 41 -40v-67c0 -31 -10 -41 -41 -41h-230v-136h290
c30 0 41 -11 41 -41v-67c0 -31 -11 -41 -41 -41h-412c-30 0 -41 10 -41 41v628c0 31 11 41 41 41h402z" />
    <glyph glyph-name="Ebreve" unicode="&#x114;" horiz-adv-x="584" 
d="M467 859c-24 -64 -84 -101 -163 -101c-78 0 -139 37 -162 101c-6 19 -2 27 17 34l52 20c20 7 28 4 36 -12c10 -25 31 -39 57 -39c25 0 46 14 57 39c7 16 14 18 31 13l58 -21c19 -8 23 -15 17 -34zM504 710c31 0 41 -10 41 -41v-67c0 -30 -10 -40 -41 -40h-280v-129h230
c31 0 41 -10 41 -40v-67c0 -31 -10 -41 -41 -41h-230v-136h290c30 0 41 -11 41 -41v-67c0 -31 -11 -41 -41 -41h-412c-30 0 -41 10 -41 41v628c0 31 11 41 41 41h402z" />
    <glyph glyph-name="Ecaron" unicode="&#x11a;" horiz-adv-x="584" 
d="M459 913c31 0 31 -15 16 -31l-95 -96c-29 -29 -37 -31 -67 -31h-18c-36 0 -43 2 -71 31l-95 96c-14 16 -15 31 15 31h59c32 0 41 -2 58 -20l41 -44l38 43c17 19 29 21 60 21h59zM504 710c31 0 41 -10 41 -41v-67c0 -30 -10 -40 -41 -40h-280v-129h230c31 0 41 -10 41 -40
v-67c0 -31 -10 -41 -41 -41h-230v-136h290c30 0 41 -11 41 -41v-67c0 -31 -11 -41 -41 -41h-412c-30 0 -41 10 -41 41v628c0 31 11 41 41 41h402z" />
    <glyph glyph-name="Ecircumflex" unicode="&#xca;" horiz-adv-x="584" 
d="M318 914c29 0 37 -1 66 -30l96 -97c14 -15 14 -30 -17 -30h-61c-33 0 -45 2 -60 20l-38 44l-41 -44c-18 -19 -27 -20 -58 -20h-57c-31 0 -31 15 -17 30l96 97c27 28 35 30 71 30h20zM504 710c31 0 41 -10 41 -41v-67c0 -30 -10 -40 -41 -40h-280v-129h230
c31 0 41 -10 41 -40v-67c0 -31 -10 -41 -41 -41h-230v-136h290c30 0 41 -11 41 -41v-67c0 -31 -11 -41 -41 -41h-412c-30 0 -41 10 -41 41v628c0 31 11 41 41 41h402z" />
    <glyph glyph-name="Edieresis" unicode="&#xcb;" horiz-adv-x="584" 
d="M204 902c49 0 65 -15 65 -63v-11c0 -47 -16 -64 -65 -64h-7c-49 0 -64 17 -64 64v11c0 48 15 63 64 63h7zM410 902c49 0 64 -15 64 -63v-11c0 -47 -15 -64 -64 -64h-7c-48 0 -64 17 -64 64v11c0 48 16 63 64 63h7zM504 710c31 0 41 -10 41 -41v-67c0 -30 -10 -40 -41 -40
h-280v-129h230c31 0 41 -10 41 -40v-67c0 -31 -10 -41 -41 -41h-230v-136h290c30 0 41 -11 41 -41v-67c0 -31 -11 -41 -41 -41h-412c-30 0 -41 10 -41 41v628c0 31 11 41 41 41h402z" />
    <glyph glyph-name="Edotaccent" unicode="&#x116;" horiz-adv-x="584" 
d="M307 903c51 0 65 -15 65 -66v-8c0 -51 -14 -66 -65 -66h-6c-51 0 -66 15 -66 66v8c0 51 15 66 66 66h6zM504 710c31 0 41 -10 41 -41v-67c0 -30 -10 -40 -41 -40h-280v-129h230c31 0 41 -10 41 -40v-67c0 -31 -10 -41 -41 -41h-230v-136h290c30 0 41 -11 41 -41v-67
c0 -31 -11 -41 -41 -41h-412c-30 0 -41 10 -41 41v628c0 31 11 41 41 41h402z" />
    <glyph glyph-name="Egrave" unicode="&#xc8;" horiz-adv-x="584" 
d="M222 907c19 23 43 15 66 2l141 -83c18 -10 18 -19 2 -38l-19 -25c-10 -13 -23 -10 -45 -2l-176 62c-23 9 -22 19 -5 40zM504 710c31 0 41 -10 41 -41v-67c0 -30 -10 -40 -41 -40h-280v-129h230c31 0 41 -10 41 -40v-67c0 -31 -10 -41 -41 -41h-230v-136h290
c30 0 41 -11 41 -41v-67c0 -31 -11 -41 -41 -41h-412c-30 0 -41 10 -41 41v628c0 31 11 41 41 41h402z" />
    <glyph glyph-name="Emacron" unicode="&#x112;" horiz-adv-x="584" 
d="M421 883c27 0 34 -7 34 -35v-33c0 -27 -7 -34 -34 -34h-235c-27 0 -34 7 -34 34v33c0 28 10 35 34 35h235zM504 710c31 0 41 -10 41 -41v-67c0 -30 -10 -40 -41 -40h-280v-129h230c31 0 41 -10 41 -40v-67c0 -31 -10 -41 -41 -41h-230v-136h290c30 0 41 -11 41 -41v-67
c0 -31 -11 -41 -41 -41h-412c-30 0 -41 10 -41 41v628c0 31 11 41 41 41h402z" />
    <glyph glyph-name="Eogonek" unicode="&#x118;" horiz-adv-x="584" 
d="M504 710c31 0 41 -10 41 -41v-67c0 -30 -10 -40 -41 -40h-280v-129h230c31 0 41 -10 41 -40v-67c0 -31 -10 -41 -41 -41h-230v-136h290c30 0 41 -11 41 -41v-67c0 -18 -5 -26 -13 -35c-53 -56 -70 -104 -65 -128c3 -9 10 -17 20 -17c5 0 9 1 14 4c10 7 19 4 23 -6l17 -40
c5 -13 5 -20 -2 -26c-28 -25 -62 -36 -101 -36c-50 0 -88 23 -97 65c-11 53 22 125 82 178h-331c-30 0 -41 10 -41 41v628c0 31 11 41 41 41h402z" />
    <glyph glyph-name="F" unicode="F" horiz-adv-x="570" 
d="M504 710c31 0 41 -10 41 -41v-67c0 -30 -10 -40 -41 -40h-280v-143h230c31 0 41 -10 41 -41v-67c0 -30 -10 -40 -41 -40h-230v-230c0 -31 -11 -41 -41 -41h-81c-30 0 -41 10 -41 41v628c0 31 11 41 41 41h402z" />
    <glyph glyph-name="G" unicode="G" horiz-adv-x="669" 
d="M592 401c30 0 41 -10 41 -41v-137c0 -135 -106 -238 -296 -238c-189 0 -295 103 -295 269v202c0 166 106 269 295 269c148 0 241 -60 280 -168c11 -28 3 -42 -25 -52l-77 -27c-29 -10 -41 -4 -52 25c-19 49 -59 73 -126 73c-87 0 -132 -40 -132 -119v-204
c0 -79 45 -119 132 -119c84 0 134 37 134 87v36h-121c-31 0 -41 10 -41 41v62c0 31 10 41 41 41h242z" />
    <glyph glyph-name="Gbreve" unicode="&#x11e;" horiz-adv-x="669" 
d="M501 869c-24 -64 -84 -101 -164 -101c-78 0 -138 37 -161 101c-6 19 -2 27 17 34l51 20c21 7 29 4 37 -12c10 -25 30 -39 56 -39s46 14 57 39c8 16 15 18 32 13l58 -21c19 -8 23 -15 17 -34zM592 401c30 0 41 -10 41 -41v-137c0 -135 -106 -238 -296 -238
c-189 0 -295 103 -295 269v202c0 166 106 269 295 269c148 0 241 -60 280 -168c11 -28 3 -42 -25 -52l-77 -27c-29 -10 -41 -4 -52 25c-19 49 -59 73 -126 73c-87 0 -132 -40 -132 -119v-204c0 -79 45 -119 132 -119c84 0 134 37 134 87v36h-121c-31 0 -41 10 -41 41v62
c0 31 10 41 41 41h242z" />
    <glyph glyph-name="Gcircumflex" unicode="&#x11c;" horiz-adv-x="669" 
d="M351 924c30 0 38 -1 66 -30l96 -97c15 -15 15 -30 -16 -30h-62c-32 0 -44 2 -60 20l-38 44l-40 -44c-18 -19 -27 -20 -58 -20h-58c-30 0 -31 15 -16 30l96 97c27 28 34 30 71 30h19zM592 401c30 0 41 -10 41 -41v-137c0 -135 -106 -238 -296 -238
c-189 0 -295 103 -295 269v202c0 166 106 269 295 269c148 0 241 -60 280 -168c11 -28 3 -42 -25 -52l-77 -27c-29 -10 -41 -4 -52 25c-19 49 -59 73 -126 73c-87 0 -132 -40 -132 -119v-204c0 -79 45 -119 132 -119c84 0 134 37 134 87v36h-121c-31 0 -41 10 -41 41v62
c0 31 10 41 41 41h242z" />
    <glyph glyph-name="Gcommaaccent" unicode="&#x122;" horiz-adv-x="669" 
d="M592 401c30 0 41 -10 41 -41v-137c0 -135 -106 -238 -296 -238c-189 0 -295 103 -295 269v202c0 166 106 269 295 269c148 0 241 -60 280 -168c11 -28 3 -42 -25 -52l-77 -27c-29 -10 -41 -4 -52 25c-19 49 -59 73 -126 73c-87 0 -132 -40 -132 -119v-204
c0 -79 45 -119 132 -119c84 0 134 37 134 87v36h-121c-31 0 -41 10 -41 41v62c0 31 10 41 41 41h242zM379 -227c-8 -24 -18 -33 -43 -33h-50c-21 0 -26 7 -24 26l16 141c3 30 14 39 43 39l70 1c35 0 44 -15 34 -40z" />
    <glyph glyph-name="Gdotaccent" unicode="&#x120;" horiz-adv-x="669" 
d="M340 913c52 0 66 -15 66 -66v-8c0 -51 -14 -66 -66 -66h-6c-51 0 -66 15 -66 66v8c0 51 15 66 66 66h6zM592 401c30 0 41 -10 41 -41v-137c0 -135 -106 -238 -296 -238c-189 0 -295 103 -295 269v202c0 166 106 269 295 269c148 0 241 -60 280 -168c11 -28 3 -42 -25 -52
l-77 -27c-29 -10 -41 -4 -52 25c-19 49 -59 73 -126 73c-87 0 -132 -40 -132 -119v-204c0 -79 45 -119 132 -119c84 0 134 37 134 87v36h-121c-31 0 -41 10 -41 41v62c0 31 10 41 41 41h242z" />
    <glyph glyph-name="H" unicode="H" horiz-adv-x="689" 
d="M587 710c30 0 40 -10 40 -41v-628c0 -31 -10 -41 -40 -41h-81c-31 0 -41 10 -41 41v244h-241v-244c0 -31 -11 -41 -41 -41h-81c-30 0 -41 10 -41 41v628c0 31 11 41 41 41h81c30 0 41 -10 41 -41v-235h241v235c0 31 10 41 41 41h81z" />
    <glyph glyph-name="Hbar" unicode="&#x126;" horiz-adv-x="708" 
d="M677 619c18 0 23 -6 23 -25v-40c0 -20 -5 -25 -23 -25h-40v-488c0 -31 -10 -41 -41 -41h-81c-30 0 -40 10 -40 41v244h-242v-244c0 -31 -10 -41 -41 -41h-80c-31 0 -41 10 -41 41v488h-39c-18 0 -23 5 -23 25v40c0 19 7 25 23 25h39v50c0 31 10 41 41 41h80
c31 0 41 -10 41 -41v-50h242v50c0 31 10 41 40 41h81c31 0 41 -10 41 -41v-50h40zM233 529v-95h242v95h-242z" />
    <glyph glyph-name="Hcircumflex" unicode="&#x124;" horiz-adv-x="689" 
d="M358 914c30 0 38 -1 66 -30l96 -97c15 -15 15 -30 -16 -30h-62c-32 0 -44 2 -60 20l-38 44l-40 -44c-18 -19 -27 -20 -59 -20h-57c-30 0 -31 15 -16 30l96 97c27 28 34 30 71 30h19zM587 710c30 0 40 -10 40 -41v-628c0 -31 -10 -41 -40 -41h-81c-31 0 -41 10 -41 41v244
h-241v-244c0 -31 -11 -41 -41 -41h-81c-30 0 -41 10 -41 41v628c0 31 11 41 41 41h81c30 0 41 -10 41 -41v-235h241v235c0 31 10 41 41 41h81z" />
    <glyph glyph-name="I" unicode="I" horiz-adv-x="285" 
d="M61 670c0 30 10 40 40 40h83c30 0 40 -10 40 -40v-630c0 -30 -10 -40 -40 -40h-83c-30 0 -40 10 -40 40v630z" />
    <glyph glyph-name="IJ" unicode="&#x132;" horiz-adv-x="868" 
d="M61 670c0 30 10 40 40 40h83c30 0 40 -10 40 -40v-630c0 -30 -10 -40 -40 -40h-83c-30 0 -40 10 -40 40v630zM772 710c30 0 40 -10 40 -40v-429c0 -159 -91 -256 -265 -256c-132 0 -212 59 -249 162c-11 28 -3 42 25 52l76 27c29 10 40 5 53 -25c19 -45 45 -68 96 -68
c68 0 101 35 101 107v430c0 30 10 40 40 40h83z" />
    <glyph glyph-name="Iacute" unicode="&#xcd;" horiz-adv-x="285" 
d="M163 909c23 13 46 20 66 -3l36 -43c17 -21 18 -31 -5 -40l-176 -62c-22 -8 -35 -11 -45 2l-19 25c-16 19 -16 28 2 38zM61 670c0 30 10 40 40 40h83c30 0 40 -10 40 -40v-630c0 -30 -10 -40 -40 -40h-83c-30 0 -40 10 -40 40v630z" />
    <glyph glyph-name="Ibreve" unicode="&#x12c;" horiz-adv-x="285" 
d="M306 859c-24 -64 -84 -101 -163 -101c-78 0 -138 37 -161 101c-7 19 -2 27 16 34l52 20c20 7 29 4 37 -12c10 -25 30 -39 56 -39s46 14 57 39c8 16 14 18 31 13l59 -21c18 -8 22 -15 16 -34zM61 670c0 30 10 40 40 40h83c30 0 40 -10 40 -40v-630c0 -30 -10 -40 -40 -40
h-83c-30 0 -40 10 -40 40v630z" />
    <glyph glyph-name="Icircumflex" unicode="&#xce;" horiz-adv-x="285" 
d="M157 914c29 0 37 -1 66 -30l96 -97c14 -15 14 -30 -17 -30h-61c-32 0 -44 2 -60 20l-38 44l-41 -44c-18 -19 -27 -20 -58 -20h-57c-31 0 -31 15 -17 30l96 97c28 28 35 30 71 30h20zM61 670c0 30 10 40 40 40h83c30 0 40 -10 40 -40v-630c0 -30 -10 -40 -40 -40h-83
c-30 0 -40 10 -40 40v630z" />
    <glyph glyph-name="Idieresis" unicode="&#xcf;" horiz-adv-x="285" 
d="M43 902c49 0 65 -15 65 -63v-11c0 -47 -16 -64 -65 -64h-7c-49 0 -64 17 -64 64v11c0 48 15 63 64 63h7zM250 902c49 0 63 -15 63 -63v-11c0 -47 -14 -64 -63 -64h-7c-49 0 -65 17 -65 64v11c0 48 16 63 65 63h7zM61 670c0 30 10 40 40 40h83c30 0 40 -10 40 -40v-630
c0 -30 -10 -40 -40 -40h-83c-30 0 -40 10 -40 40v630z" />
    <glyph glyph-name="Idotaccent" unicode="&#x130;" horiz-adv-x="285" 
d="M146 903c51 0 66 -15 66 -66v-8c0 -51 -15 -66 -66 -66h-6c-51 0 -66 15 -66 66v8c0 51 15 66 66 66h6zM61 670c0 30 10 40 40 40h83c30 0 40 -10 40 -40v-630c0 -30 -10 -40 -40 -40h-83c-30 0 -40 10 -40 40v630z" />
    <glyph glyph-name="Igrave" unicode="&#xcc;" horiz-adv-x="285" 
d="M61 907c19 23 43 15 66 2l141 -83c18 -10 18 -19 3 -38l-20 -25c-10 -13 -23 -10 -45 -2l-176 62c-23 9 -22 19 -5 40zM61 670c0 30 10 40 40 40h83c30 0 40 -10 40 -40v-630c0 -30 -10 -40 -40 -40h-83c-30 0 -40 10 -40 40v630z" />
    <glyph glyph-name="Imacron" unicode="&#x12a;" horiz-adv-x="285" 
d="M260 883c27 0 35 -7 35 -35v-33c0 -27 -8 -34 -35 -34h-234c-28 0 -35 7 -35 34v33c0 28 10 35 35 35h234zM61 670c0 30 10 40 40 40h83c30 0 40 -10 40 -40v-630c0 -30 -10 -40 -40 -40h-83c-30 0 -40 10 -40 40v630z" />
    <glyph glyph-name="Iogonek" unicode="&#x12e;" horiz-adv-x="285" 
d="M235 -184c5 -12 5 -19 -2 -26c-26 -23 -65 -35 -101 -35c-47 0 -89 14 -98 65c-10 53 18 121 76 180c-40 0 -49 13 -49 42v628c0 30 10 40 40 40h83c30 0 40 -10 40 -40v-630c0 -17 -4 -27 -11 -35c-51 -58 -59 -110 -55 -129c2 -11 10 -18 20 -18c6 0 11 1 17 5
c10 6 19 4 23 -6z" />
    <glyph glyph-name="Itilde" unicode="&#x128;" horiz-adv-x="285" 
d="M275 904c17 0 22 -8 22 -23c0 -89 -29 -118 -90 -118c-65 0 -89 50 -125 50c-11 0 -16 -8 -16 -29c0 -14 -6 -21 -21 -21h-45c-16 0 -22 7 -22 22c0 91 32 119 88 119c71 0 93 -50 128 -50c11 0 17 7 17 28c0 15 4 22 20 22h44zM61 670c0 30 10 40 40 40h83
c30 0 40 -10 40 -40v-630c0 -30 -10 -40 -40 -40h-83c-30 0 -40 10 -40 40v630z" />
    <glyph glyph-name="J" unicode="J" horiz-adv-x="582" 
d="M486 710c29 0 40 -10 40 -40v-429c0 -159 -91 -256 -265 -256c-132 0 -212 59 -250 162c-10 28 -3 42 26 52l76 27c29 10 40 5 53 -25c19 -45 45 -68 96 -68c68 0 101 35 101 107v430c0 30 10 40 40 40h83z" />
    <glyph glyph-name="Jcircumflex" unicode="&#x134;" horiz-adv-x="582" 
d="M459 914c29 0 38 -1 66 -30l96 -97c14 -15 14 -30 -17 -30h-61c-32 0 -44 2 -60 20l-38 44l-41 -44c-18 -19 -26 -20 -58 -20h-57c-31 0 -31 15 -17 30l96 97c28 28 35 30 71 30h20zM486 710c29 0 40 -10 40 -40v-429c0 -159 -91 -256 -265 -256c-132 0 -212 59 -250 162
c-10 28 -3 42 26 52l76 27c29 10 40 5 53 -25c19 -45 45 -68 96 -68c68 0 101 35 101 107v430c0 30 10 40 40 40h83z" />
    <glyph glyph-name="K" unicode="K" horiz-adv-x="641" 
d="M625 43c13 -24 9 -43 -22 -43h-80c-51 0 -67 6 -82 37l-94 190c-22 46 -40 60 -97 60h-26v-246c0 -31 -11 -41 -41 -41h-81c-30 0 -41 10 -41 41v628c0 31 11 41 41 41h81c30 0 41 -10 41 -41v-236h16h9l177 243c21 29 32 34 80 34h87c28 0 36 -19 20 -40l-207 -278
c38 -22 65 -56 91 -105z" />
    <glyph glyph-name="Kcommaaccent" unicode="&#x136;" horiz-adv-x="641" 
d="M625 43c13 -24 9 -43 -22 -43h-80c-51 0 -67 6 -82 37l-94 190c-22 46 -40 60 -97 60h-26v-246c0 -31 -11 -41 -41 -41h-81c-30 0 -41 10 -41 41v628c0 31 11 41 41 41h81c30 0 41 -10 41 -41v-236h16h9l177 243c21 29 32 34 80 34h87c28 0 36 -19 20 -40l-207 -278
c38 -22 65 -56 91 -105zM358 -227c-8 -24 -18 -33 -42 -33h-50c-22 0 -27 7 -24 26l15 141c3 30 14 39 43 39l71 1c34 0 43 -15 34 -40z" />
    <glyph glyph-name="L" unicode="L" horiz-adv-x="534" 
d="M183 710c30 0 41 -10 41 -41v-520h258c30 0 41 -11 41 -41v-67c0 -31 -11 -41 -41 -41h-380c-30 0 -41 10 -41 41v628c0 31 11 41 41 41h81z" />
    <glyph glyph-name="Lacute" unicode="&#x139;" horiz-adv-x="534" 
d="M163 909c23 13 46 20 66 -3l36 -43c17 -21 18 -31 -5 -40l-176 -62c-22 -8 -35 -11 -45 2l-19 25c-16 19 -16 28 2 38zM183 710c30 0 41 -10 41 -41v-520h258c30 0 41 -11 41 -41v-67c0 -31 -11 -41 -41 -41h-380c-30 0 -41 10 -41 41v628c0 31 11 41 41 41h81z" />
    <glyph glyph-name="Lcaron" unicode="&#x13d;" horiz-adv-x="536" 
d="M183 710c30 0 40 -10 40 -41v-520h259c30 0 40 -11 40 -41v-67c0 -31 -10 -41 -40 -41h-380c-31 0 -41 10 -41 41v628c0 31 10 41 41 41h81zM416 512c-9 -24 -17 -33 -42 -33h-40c-20 0 -24 5 -22 25l19 168c3 30 13 38 42 38h66c33 0 42 -12 33 -38z" />
    <glyph glyph-name="Lcommaaccent" unicode="&#x13b;" horiz-adv-x="534" 
d="M183 710c30 0 41 -10 41 -41v-520h258c30 0 41 -11 41 -41v-67c0 -31 -11 -41 -41 -41h-380c-30 0 -41 10 -41 41v628c0 31 11 41 41 41h81zM314 -227c-8 -24 -18 -33 -43 -33h-49c-22 0 -27 7 -25 26l16 141c3 30 14 39 43 39l70 1c35 0 44 -15 34 -40z" />
    <glyph glyph-name="Ldot" unicode="&#x13f;" horiz-adv-x="536" 
d="M183 710c30 0 41 -10 41 -41v-520h258c30 0 41 -11 41 -41v-67c0 -31 -11 -41 -41 -41h-380c-30 0 -41 10 -41 41v628c0 31 11 41 41 41h81zM393 479c56 0 74 -18 74 -74v-19c0 -56 -18 -74 -74 -74h-17c-56 0 -74 18 -74 74v19c0 56 18 74 74 74h17z" />
    <glyph glyph-name="Lslash" unicode="&#x141;" horiz-adv-x="574" 
d="M520 149c30 0 41 -11 41 -41v-67c0 -31 -11 -41 -41 -41h-380c-31 0 -41 10 -41 41v208l-43 -19c-22 -11 -31 -5 -39 12l-22 44c-8 16 -3 29 11 35l93 42v306c0 31 10 41 41 41h81c30 0 41 -10 41 -41v-234l125 57c22 9 32 2 40 -13l22 -45c7 -16 3 -28 -13 -34l-174 -78
v-173h258z" />
    <glyph glyph-name="M" unicode="M" horiz-adv-x="818" 
d="M716 710c31 0 41 -10 41 -40v-630c0 -30 -10 -40 -41 -40h-75c-30 0 -40 10 -40 40v227c0 61 8 127 33 225h-9c-21 -68 -49 -132 -79 -186l-71 -127c-11 -21 -20 -29 -45 -29h-46c-25 0 -34 6 -46 29l-72 127c-32 54 -54 113 -74 186h-9c24 -102 30 -159 30 -226v-226
c0 -30 -10 -40 -40 -40h-71c-30 0 -41 10 -41 40v630c0 30 11 40 41 40h65c33 0 43 -6 57 -30l183 -338l184 337c15 26 23 31 54 31h71z" />
    <glyph glyph-name="N" unicode="N" horiz-adv-x="699" 
d="M597 710c30 0 40 -10 40 -41v-628c0 -31 -10 -41 -40 -41h-81c-20 0 -31 5 -40 19l-196 298c-49 74 -76 160 -84 187h-7c6 -29 28 -118 28 -224v-239c0 -31 -11 -41 -41 -41h-74c-30 0 -41 10 -41 41v628c0 31 11 41 41 41h83c21 0 30 -6 39 -19l200 -303
c52 -78 73 -156 82 -179h8c-10 31 -32 114 -32 221v239c0 31 10 41 41 41h74z" />
    <glyph glyph-name="Nacute" unicode="&#x143;" horiz-adv-x="699" 
d="M371 909c23 13 46 20 66 -3l36 -43c17 -21 18 -31 -5 -40l-176 -62c-22 -8 -35 -11 -45 2l-19 25c-16 19 -16 28 2 38zM597 710c30 0 40 -10 40 -41v-628c0 -31 -10 -41 -40 -41h-81c-20 0 -31 5 -40 19l-196 298c-49 74 -76 160 -84 187h-7c6 -29 28 -118 28 -224v-239
c0 -31 -11 -41 -41 -41h-74c-30 0 -41 10 -41 41v628c0 31 11 41 41 41h83c21 0 30 -6 39 -19l200 -303c52 -78 73 -156 82 -179h8c-10 31 -32 114 -32 221v239c0 31 10 41 41 41h74z" />
    <glyph glyph-name="Ncaron" unicode="&#x147;" horiz-adv-x="699" 
d="M507 913c30 0 30 -15 15 -31l-95 -96c-28 -29 -36 -31 -67 -31h-18c-35 0 -43 2 -70 31l-96 96c-14 16 -15 31 16 31h59c32 0 40 -2 58 -20l40 -44l39 43c16 19 28 21 59 21h60zM597 710c30 0 40 -10 40 -41v-628c0 -31 -10 -41 -40 -41h-81c-20 0 -31 5 -40 19l-196 298
c-49 74 -76 160 -84 187h-7c6 -29 28 -118 28 -224v-239c0 -31 -11 -41 -41 -41h-74c-30 0 -41 10 -41 41v628c0 31 11 41 41 41h83c21 0 30 -6 39 -19l200 -303c52 -78 73 -156 82 -179h8c-10 31 -32 114 -32 221v239c0 31 10 41 41 41h74z" />
    <glyph glyph-name="Ncommaaccent" unicode="&#x145;" horiz-adv-x="699" 
d="M597 710c30 0 40 -10 40 -41v-628c0 -31 -10 -41 -40 -41h-81c-20 0 -31 5 -40 19l-196 298c-49 74 -76 160 -84 187h-7c6 -29 28 -118 28 -224v-239c0 -31 -11 -41 -41 -41h-74c-30 0 -41 10 -41 41v628c0 31 11 41 41 41h83c21 0 30 -6 39 -19l200 -303
c52 -78 73 -156 82 -179h8c-10 31 -32 114 -32 221v239c0 31 10 41 41 41h74zM386 -227c-8 -24 -18 -33 -43 -33h-49c-22 0 -27 7 -25 26l16 141c3 30 14 39 43 39l70 1c35 0 44 -15 34 -40z" />
    <glyph glyph-name="Eng" unicode="&#x14a;" horiz-adv-x="699" 
d="M597 710c30 0 40 -10 40 -41v-677c0 -144 -79 -222 -242 -222c-28 0 -38 9 -38 38v62c0 28 10 37 38 37c67 0 86 35 86 91v14l-201 305c-49 74 -76 160 -84 187h-7c6 -29 28 -118 28 -224v-239c0 -31 -11 -41 -41 -41h-74c-30 0 -41 10 -41 41v628c0 31 11 41 41 41h83
c21 0 30 -6 39 -19l200 -303c52 -78 73 -156 82 -179h8c-10 31 -32 114 -32 221v239c0 31 10 41 41 41h74z" />
    <glyph glyph-name="Ntilde" unicode="&#xd1;" horiz-adv-x="699" 
d="M483 904c17 0 22 -8 22 -23c0 -89 -29 -118 -90 -118c-65 0 -89 50 -125 50c-11 0 -16 -8 -16 -29c0 -14 -6 -21 -21 -21h-45c-16 0 -22 7 -22 22c0 91 32 119 88 119c71 0 93 -50 128 -50c11 0 17 7 17 28c0 15 4 22 20 22h44zM597 710c30 0 40 -10 40 -41v-628
c0 -31 -10 -41 -40 -41h-81c-20 0 -31 5 -40 19l-196 298c-49 74 -76 160 -84 187h-7c6 -29 28 -118 28 -224v-239c0 -31 -11 -41 -41 -41h-74c-30 0 -41 10 -41 41v628c0 31 11 41 41 41h83c21 0 30 -6 39 -19l200 -303c52 -78 73 -156 82 -179h8c-10 31 -32 114 -32 221
v239c0 31 10 41 41 41h74z" />
    <glyph glyph-name="O" unicode="O" horiz-adv-x="675" 
d="M42 456c0 166 106 269 295 269c190 0 296 -103 296 -269v-202c0 -166 -106 -269 -296 -269c-189 0 -295 103 -295 269v202zM470 459c0 78 -48 117 -133 117c-84 0 -132 -39 -132 -117v-208c0 -78 48 -117 132 -117c85 0 133 39 133 117v208z" />
    <glyph glyph-name="Oacute" unicode="&#xd3;" horiz-adv-x="675" 
d="M357 919c23 13 47 20 66 -3l37 -43c17 -21 18 -31 -6 -40l-175 -62c-23 -8 -35 -11 -45 2l-20 25c-15 19 -16 28 2 38zM42 456c0 166 106 269 295 269c190 0 296 -103 296 -269v-202c0 -166 -106 -269 -296 -269c-189 0 -295 103 -295 269v202zM470 459
c0 78 -48 117 -133 117c-84 0 -132 -39 -132 -117v-208c0 -78 48 -117 132 -117c85 0 133 39 133 117v208z" />
    <glyph glyph-name="Obreve" unicode="&#x14e;" horiz-adv-x="675" 
d="M501 869c-24 -64 -84 -101 -164 -101c-78 0 -138 37 -161 101c-6 19 -2 27 17 34l51 20c21 7 29 4 37 -12c10 -25 30 -39 56 -39s46 14 57 39c8 16 15 18 32 13l58 -21c19 -8 23 -15 17 -34zM42 456c0 166 106 269 295 269c190 0 296 -103 296 -269v-202
c0 -166 -106 -269 -296 -269c-189 0 -295 103 -295 269v202zM470 459c0 78 -48 117 -133 117c-84 0 -132 -39 -132 -117v-208c0 -78 48 -117 132 -117c85 0 133 39 133 117v208z" />
    <glyph glyph-name="Ocircumflex" unicode="&#xd4;" horiz-adv-x="675" 
d="M351 924c30 0 38 -1 66 -30l96 -97c15 -15 15 -30 -16 -30h-62c-32 0 -44 2 -60 20l-38 44l-40 -44c-18 -19 -27 -20 -58 -20h-58c-30 0 -31 15 -16 30l96 97c27 28 34 30 71 30h19zM42 456c0 166 106 269 295 269c190 0 296 -103 296 -269v-202
c0 -166 -106 -269 -296 -269c-189 0 -295 103 -295 269v202zM470 459c0 78 -48 117 -133 117c-84 0 -132 -39 -132 -117v-208c0 -78 48 -117 132 -117c85 0 133 39 133 117v208z" />
    <glyph glyph-name="Odieresis" unicode="&#xd6;" horiz-adv-x="675" 
d="M238 912c49 0 64 -15 64 -63v-11c0 -47 -15 -64 -64 -64h-8c-48 0 -63 17 -63 64v11c0 48 15 63 63 63h8zM444 912c49 0 64 -15 64 -63v-11c0 -47 -15 -64 -64 -64h-7c-49 0 -65 17 -65 64v11c0 48 16 63 65 63h7zM42 456c0 166 106 269 295 269c190 0 296 -103 296 -269
v-202c0 -166 -106 -269 -296 -269c-189 0 -295 103 -295 269v202zM470 459c0 78 -48 117 -133 117c-84 0 -132 -39 -132 -117v-208c0 -78 48 -117 132 -117c85 0 133 39 133 117v208z" />
    <glyph glyph-name="Ograve" unicode="&#xd2;" horiz-adv-x="675" 
d="M256 917c19 23 43 15 66 2l141 -83c18 -10 17 -19 2 -38l-19 -25c-10 -13 -23 -10 -46 -2l-175 62c-23 9 -22 19 -5 40zM42 456c0 166 106 269 295 269c190 0 296 -103 296 -269v-202c0 -166 -106 -269 -296 -269c-189 0 -295 103 -295 269v202zM470 459
c0 78 -48 117 -133 117c-84 0 -132 -39 -132 -117v-208c0 -78 48 -117 132 -117c85 0 133 39 133 117v208z" />
    <glyph glyph-name="Ohungarumlaut" unicode="&#x150;" horiz-adv-x="675" 
d="M241 904c16 23 34 32 62 25l48 -14c26 -9 29 -23 11 -41l-103 -89c-18 -15 -26 -20 -43 -15l-26 7c-25 6 -24 19 -12 36zM418 904c17 23 34 32 62 24l51 -15c26 -9 31 -25 11 -41l-113 -91c-18 -15 -26 -21 -43 -15l-27 7c-24 6 -24 21 -11 37zM42 456
c0 166 106 269 295 269c190 0 296 -103 296 -269v-202c0 -166 -106 -269 -296 -269c-189 0 -295 103 -295 269v202zM470 459c0 78 -48 117 -133 117c-84 0 -132 -39 -132 -117v-208c0 -78 48 -117 132 -117c85 0 133 39 133 117v208z" />
    <glyph glyph-name="Omacron" unicode="&#x14c;" horiz-adv-x="675" 
d="M454 893c28 0 35 -7 35 -35v-33c0 -27 -7 -34 -35 -34h-234c-27 0 -34 7 -34 34v33c0 28 10 35 34 35h234zM42 456c0 166 106 269 295 269c190 0 296 -103 296 -269v-202c0 -166 -106 -269 -296 -269c-189 0 -295 103 -295 269v202zM470 459c0 78 -48 117 -133 117
c-84 0 -132 -39 -132 -117v-208c0 -78 48 -117 132 -117c85 0 133 39 133 117v208z" />
    <glyph glyph-name="Oslash" unicode="&#xd8;" horiz-adv-x="675" 
d="M639 754c10 0 12 -6 7 -14l-70 -108c37 -45 57 -105 57 -176v-202c0 -166 -106 -267 -296 -269c-61 -1 -115 10 -157 30l-27 -42c-8 -11 -10 -12 -28 -12h-82c-10 0 -12 7 -6 15l63 99c-38 45 -58 106 -58 179v202c0 166 106 269 295 269c64 0 117 -11 161 -33l31 49
c8 12 11 13 26 13h84zM415 560c-21 11 -47 16 -78 16c-84 0 -132 -39 -132 -117v-193c0 -10 0 -20 2 -30zM263 148c20 -10 46 -14 74 -14c85 0 133 39 133 117v192c0 9 0 17 -1 25z" />
    <glyph glyph-name="Oslashacute" unicode="&#x1fe;" horiz-adv-x="675" 
d="M357 919c23 13 47 20 66 -3l37 -43c17 -21 18 -31 -5 -40l-176 -62c-22 -8 -35 -11 -45 2l-20 25c-15 19 -15 28 2 38zM639 754c10 0 12 -6 7 -14l-70 -108c37 -45 57 -105 57 -176v-202c0 -166 -106 -267 -296 -269c-61 -1 -115 10 -157 30l-27 -42
c-8 -11 -10 -12 -28 -12h-82c-10 0 -12 7 -6 15l63 99c-38 45 -58 106 -58 179v202c0 166 106 269 295 269c64 0 117 -11 161 -33l31 49c8 12 11 13 26 13h84zM415 560c-21 11 -47 16 -78 16c-84 0 -132 -39 -132 -117v-193c0 -10 0 -20 2 -30zM263 148
c20 -10 46 -14 74 -14c85 0 133 39 133 117v192c0 9 0 17 -1 25z" />
    <glyph glyph-name="Otilde" unicode="&#xd5;" horiz-adv-x="675" 
d="M470 914c17 0 22 -8 22 -23c0 -89 -29 -118 -90 -118c-66 0 -89 50 -126 50c-10 0 -16 -8 -16 -29c0 -14 -6 -21 -20 -21h-45c-17 0 -23 7 -23 22c0 91 33 119 89 119c70 0 92 -50 128 -50c10 0 16 7 16 28c0 15 4 22 21 22h44zM42 456c0 166 106 269 295 269
c190 0 296 -103 296 -269v-202c0 -166 -106 -269 -296 -269c-189 0 -295 103 -295 269v202zM470 459c0 78 -48 117 -133 117c-84 0 -132 -39 -132 -117v-208c0 -78 48 -117 132 -117c85 0 133 39 133 117v208z" />
    <glyph glyph-name="OE" unicode="&#x152;" horiz-adv-x="871" 
d="M801 149c30 0 41 -11 41 -41v-67c0 -31 -11 -41 -41 -41h-347c-36 -11 -73 -15 -117 -15c-189 0 -295 103 -295 269v202c0 166 106 269 295 269c43 0 81 -5 115 -15h339c31 0 41 -10 41 -41v-67c0 -30 -10 -40 -41 -40h-222v-129h172c31 0 41 -10 41 -40v-67
c0 -31 -10 -41 -41 -41h-172v-136h232zM205 251c0 -78 48 -117 132 -117c27 0 51 4 69 11v420c-18 7 -42 11 -69 11c-84 0 -132 -39 -132 -117v-208z" />
    <glyph glyph-name="P" unicode="P" horiz-adv-x="639" 
d="M370 710c149 0 245 -90 245 -240s-94 -239 -245 -239h-146v-190c0 -31 -11 -41 -41 -41h-81c-30 0 -41 10 -41 41v628c0 31 11 41 41 41h268zM353 380c58 0 93 33 93 90s-34 92 -93 92h-129v-182h129z" />
    <glyph glyph-name="Thorn" unicode="&#xde;" horiz-adv-x="635" 
d="M359 610c154 0 254 -96 254 -251s-100 -249 -254 -249h-136v-69c0 -31 -10 -41 -40 -41h-81c-31 0 -41 10 -41 41v628c0 31 10 41 41 41h81c30 0 40 -10 40 -41v-59h136zM341 258c64 0 103 43 103 101s-39 102 -103 102h-118v-203h118z" />
    <glyph glyph-name="Q" unicode="Q" horiz-adv-x="689" 
d="M641 25c20 -23 19 -37 -5 -58l-52 -42c-23 -20 -38 -19 -57 5l-63 74c-36 -13 -79 -19 -127 -19c-189 0 -295 103 -295 269v202c0 166 106 269 295 269c190 0 296 -103 296 -269v-202c0 -65 -16 -120 -47 -163zM205 251c0 -78 48 -117 132 -117c85 0 133 39 133 117v208
c0 78 -48 117 -133 117c-84 0 -132 -39 -132 -117v-208z" />
    <glyph glyph-name="R" unicode="R" horiz-adv-x="656" 
d="M379 710c145 0 236 -85 236 -230c0 -100 -42 -171 -116 -205c8 -11 14 -23 21 -35l103 -197c13 -24 9 -43 -21 -43h-80c-51 0 -69 8 -84 39l-74 154c-22 46 -41 59 -99 59h-41v-211c0 -31 -11 -41 -41 -41h-81c-30 0 -41 10 -41 41v628c0 31 11 41 41 41h277zM446 480
c0 52 -30 82 -83 82h-139v-164h139c53 0 83 30 83 82z" />
    <glyph glyph-name="Racute" unicode="&#x154;" horiz-adv-x="656" 
d="M345 909c23 13 47 20 66 -3l36 -43c17 -21 18 -31 -5 -40l-175 -62c-23 -8 -36 -11 -46 2l-19 25c-15 19 -16 28 2 38zM379 710c145 0 236 -85 236 -230c0 -100 -42 -171 -116 -205c8 -11 14 -23 21 -35l103 -197c13 -24 9 -43 -21 -43h-80c-51 0 -69 8 -84 39l-74 154
c-22 46 -41 59 -99 59h-41v-211c0 -31 -11 -41 -41 -41h-81c-30 0 -41 10 -41 41v628c0 31 11 41 41 41h277zM446 480c0 52 -30 82 -83 82h-139v-164h139c53 0 83 30 83 82z" />
    <glyph glyph-name="Rcaron" unicode="&#x158;" horiz-adv-x="656" 
d="M481 913c30 0 30 -15 16 -31l-96 -96c-28 -29 -36 -31 -67 -31h-18c-35 0 -42 2 -70 31l-95 96c-15 16 -16 31 15 31h59c32 0 41 -2 58 -20l41 -44l38 43c16 19 28 21 60 21h59zM379 710c145 0 236 -85 236 -230c0 -100 -42 -171 -116 -205c8 -11 14 -23 21 -35l103 -197
c13 -24 9 -43 -21 -43h-80c-51 0 -69 8 -84 39l-74 154c-22 46 -41 59 -99 59h-41v-211c0 -31 -11 -41 -41 -41h-81c-30 0 -41 10 -41 41v628c0 31 11 41 41 41h277zM446 480c0 52 -30 82 -83 82h-139v-164h139c53 0 83 30 83 82z" />
    <glyph glyph-name="Rcommaaccent" unicode="&#x156;" horiz-adv-x="656" 
d="M379 710c145 0 236 -85 236 -230c0 -100 -42 -171 -116 -205c8 -11 14 -23 21 -35l103 -197c13 -24 9 -43 -21 -43h-80c-51 0 -69 8 -84 39l-74 154c-22 46 -41 59 -99 59h-41v-211c0 -31 -11 -41 -41 -41h-81c-30 0 -41 10 -41 41v628c0 31 11 41 41 41h277zM446 480
c0 52 -30 82 -83 82h-139v-164h139c53 0 83 30 83 82zM369 -227c-8 -24 -17 -33 -42 -33h-50c-21 0 -26 7 -24 26l15 141c4 30 14 39 44 39l70 1c34 0 43 -15 34 -40z" />
    <glyph glyph-name="S" unicode="S" horiz-adv-x="639" 
d="M36 501c0 129 98 224 285 224c146 0 222 -49 268 -147c14 -28 6 -42 -22 -54l-76 -33c-26 -12 -37 -7 -52 20c-21 42 -55 66 -118 66c-82 0 -118 -21 -118 -69c0 -54 69 -65 150 -74c117 -14 259 -44 259 -220c0 -137 -113 -229 -297 -229c-156 0 -242 57 -281 162
c-10 29 -2 42 26 52l73 26c29 11 40 6 53 -24c20 -43 65 -69 129 -69c85 0 133 22 133 79c0 50 -61 64 -135 72c-120 14 -277 34 -277 218z" />
    <glyph glyph-name="Sacute" unicode="&#x15a;" horiz-adv-x="639" 
d="M341 919c23 13 47 20 66 -3l36 -43c17 -21 18 -31 -5 -40l-175 -62c-23 -8 -36 -11 -46 2l-19 25c-15 19 -16 28 2 38zM36 501c0 129 98 224 285 224c146 0 222 -49 268 -147c14 -28 6 -42 -22 -54l-76 -33c-26 -12 -37 -7 -52 20c-21 42 -55 66 -118 66
c-82 0 -118 -21 -118 -69c0 -54 69 -65 150 -74c117 -14 259 -44 259 -220c0 -137 -113 -229 -297 -229c-156 0 -242 57 -281 162c-10 29 -2 42 26 52l73 26c29 11 40 6 53 -24c20 -43 65 -69 129 -69c85 0 133 22 133 79c0 50 -61 64 -135 72c-120 14 -277 34 -277 218z
" />
    <glyph glyph-name="Scaron" unicode="&#x160;" horiz-adv-x="639" 
d="M477 923c30 0 30 -15 15 -31l-95 -96c-28 -29 -36 -31 -67 -31h-18c-35 0 -43 2 -70 31l-95 96c-15 16 -16 31 15 31h59c32 0 41 -2 58 -20l41 -44l38 43c16 19 28 21 60 21h59zM36 501c0 129 98 224 285 224c146 0 222 -49 268 -147c14 -28 6 -42 -22 -54l-76 -33
c-26 -12 -37 -7 -52 20c-21 42 -55 66 -118 66c-82 0 -118 -21 -118 -69c0 -54 69 -65 150 -74c117 -14 259 -44 259 -220c0 -137 -113 -229 -297 -229c-156 0 -242 57 -281 162c-10 29 -2 42 26 52l73 26c29 11 40 6 53 -24c20 -43 65 -69 129 -69c85 0 133 22 133 79
c0 50 -61 64 -135 72c-120 14 -277 34 -277 218z" />
    <glyph glyph-name="Scedilla" unicode="&#x15e;" horiz-adv-x="638" 
d="M353 434c116 -14 258 -44 258 -220c0 -122 -88 -208 -237 -226l-15 -38h9c53 0 89 -42 83 -96c-9 -79 -78 -99 -144 -99c-14 0 -49 1 -71 11c-17 7 -21 15 -21 31l-1 37c0 13 5 23 22 15c17 -9 28 -14 55 -14c29 0 38 13 38 27c0 15 -9 21 -37 22h-21c-19 0 -23 9 -15 28
l33 73c-141 6 -219 62 -255 162c-11 29 -3 42 25 52l73 26c29 11 41 6 54 -24c19 -43 64 -69 129 -69c84 0 132 22 132 79c0 50 -61 64 -135 72c-120 14 -276 34 -276 218c0 129 97 224 285 224c146 0 221 -49 267 -147c14 -28 6 -42 -22 -54l-75 -33c-27 -12 -38 -7 -52 20
c-22 42 -56 66 -118 66c-83 0 -119 -21 -119 -69c0 -54 69 -65 151 -74z" />
    <glyph glyph-name="Scircumflex" unicode="&#x15c;" horiz-adv-x="639" 
d="M335 924c29 0 38 -1 66 -30l96 -97c15 -15 14 -30 -16 -30h-62c-32 0 -44 2 -60 20l-38 44l-41 -44c-17 -19 -26 -20 -58 -20h-57c-31 0 -31 15 -16 30l95 97c28 28 35 30 72 30h19zM36 501c0 129 98 224 285 224c146 0 222 -49 268 -147c14 -28 6 -42 -22 -54l-76 -33
c-26 -12 -37 -7 -52 20c-21 42 -55 66 -118 66c-82 0 -118 -21 -118 -69c0 -54 69 -65 150 -74c117 -14 259 -44 259 -220c0 -137 -113 -229 -297 -229c-156 0 -242 57 -281 162c-10 29 -2 42 26 52l73 26c29 11 40 6 53 -24c20 -43 65 -69 129 -69c85 0 133 22 133 79
c0 50 -61 64 -135 72c-120 14 -277 34 -277 218z" />
    <glyph glyph-name="Scommaaccent" unicode="&#x218;" horiz-adv-x="639" 
d="M36 501c0 129 98 224 285 224c146 0 222 -49 268 -147c14 -28 6 -42 -22 -54l-76 -33c-26 -12 -37 -7 -52 20c-21 42 -55 66 -118 66c-82 0 -118 -21 -118 -69c0 -54 69 -65 150 -74c117 -14 259 -44 259 -220c0 -137 -113 -229 -297 -229c-156 0 -242 57 -281 162
c-10 29 -2 42 26 52l73 26c29 11 40 6 53 -24c20 -43 65 -69 129 -69c85 0 133 22 133 79c0 50 -61 64 -135 72c-120 14 -277 34 -277 218zM355 -227c-8 -24 -17 -33 -42 -33h-50c-21 0 -26 7 -24 26l16 141c3 30 14 39 43 39l70 1c35 0 43 -15 34 -40z" />
    <glyph glyph-name="T" unicode="T" horiz-adv-x="583" 
d="M529 710c31 0 41 -10 41 -41v-67c0 -30 -10 -40 -41 -40h-156v-521c0 -31 -10 -41 -41 -41h-81c-30 0 -40 10 -40 41v521h-157c-31 0 -41 10 -41 40v67c0 31 10 41 41 41h475z" />
    <glyph glyph-name="Tbar" unicode="&#x166;" horiz-adv-x="598" 
d="M537 710c30 0 40 -10 40 -41v-67c0 -30 -10 -40 -40 -40h-157v-186h106c18 0 23 -6 23 -25v-58c0 -20 -5 -25 -23 -25h-106v-227c0 -31 -10 -41 -41 -41h-80c-31 0 -41 10 -41 41v227h-106c-18 0 -23 5 -23 25v58c0 19 7 25 23 25h106v186h-157c-30 0 -40 10 -40 40v67
c0 31 10 41 40 41h476z" />
    <glyph glyph-name="Tcaron" unicode="&#x164;" horiz-adv-x="583" 
d="M448 913c31 0 30 -15 16 -31l-96 -96c-28 -29 -36 -31 -67 -31h-18c-35 0 -42 2 -70 31l-95 96c-15 16 -16 31 15 31h59c32 0 41 -2 58 -20l41 -44l38 43c16 19 28 21 60 21h59zM529 710c31 0 41 -10 41 -41v-67c0 -30 -10 -40 -41 -40h-156v-521c0 -31 -10 -41 -41 -41
h-81c-30 0 -40 10 -40 41v521h-157c-31 0 -41 10 -41 40v67c0 31 10 41 41 41h475z" />
    <glyph glyph-name="uni021A" unicode="&#x21a;" horiz-adv-x="583" 
d="M529 710c31 0 41 -10 41 -41v-67c0 -30 -10 -40 -41 -40h-156v-521c0 -31 -10 -41 -41 -41h-81c-30 0 -40 10 -40 41v521h-157c-31 0 -41 10 -41 40v67c0 31 10 41 41 41h475zM318 -227c-8 -24 -18 -33 -43 -33h-51c-21 0 -27 7 -24 26l15 141c4 30 15 39 44 39l72 1
c35 0 44 -15 35 -40z" />
    <glyph glyph-name="U" unicode="U" horiz-adv-x="691" 
d="M218 246c0 -72 43 -113 127 -113c85 0 127 41 127 113v423c0 31 10 41 41 41h81c30 0 41 -10 41 -41v-419c0 -161 -100 -265 -290 -265c-189 0 -289 104 -289 265v419c0 31 10 41 41 41h81c30 0 40 -10 40 -41v-423z" />
    <glyph glyph-name="Uacute" unicode="&#xda;" horiz-adv-x="691" 
d="M365 909c23 13 47 20 66 -3l37 -43c17 -21 18 -31 -6 -40l-175 -62c-23 -8 -35 -11 -46 2l-19 25c-15 19 -16 28 2 38zM218 246c0 -72 43 -113 127 -113c85 0 127 41 127 113v423c0 31 10 41 41 41h81c30 0 41 -10 41 -41v-419c0 -161 -100 -265 -290 -265
c-189 0 -289 104 -289 265v419c0 31 10 41 41 41h81c30 0 40 -10 40 -41v-423z" />
    <glyph glyph-name="Ubreve" unicode="&#x16c;" horiz-adv-x="691" 
d="M508 859c-23 -64 -83 -101 -163 -101c-78 0 -138 37 -161 101c-6 19 -2 27 16 34l52 20c21 7 29 4 37 -12c10 -25 30 -39 56 -39s46 14 57 39c8 16 15 18 32 13l58 -21c18 -8 23 -15 16 -34zM218 246c0 -72 43 -113 127 -113c85 0 127 41 127 113v423c0 31 10 41 41 41
h81c30 0 41 -10 41 -41v-419c0 -161 -100 -265 -290 -265c-189 0 -289 104 -289 265v419c0 31 10 41 41 41h81c30 0 40 -10 40 -41v-423z" />
    <glyph glyph-name="Ucircumflex" unicode="&#xdb;" horiz-adv-x="691" 
d="M359 914c30 0 38 -1 66 -30l96 -97c15 -15 15 -30 -16 -30h-62c-32 0 -44 2 -60 20l-38 44l-40 -44c-18 -19 -27 -20 -59 -20h-57c-30 0 -31 15 -16 30l96 97c27 28 34 30 71 30h19zM218 246c0 -72 43 -113 127 -113c85 0 127 41 127 113v423c0 31 10 41 41 41h81
c30 0 41 -10 41 -41v-419c0 -161 -100 -265 -290 -265c-189 0 -289 104 -289 265v419c0 31 10 41 41 41h81c30 0 40 -10 40 -41v-423z" />
    <glyph glyph-name="Udieresis" unicode="&#xdc;" horiz-adv-x="691" 
d="M246 902c48 0 64 -15 64 -63v-11c0 -47 -16 -64 -64 -64h-8c-48 0 -63 17 -63 64v11c0 48 15 63 63 63h8zM452 902c49 0 64 -15 64 -63v-11c0 -47 -15 -64 -64 -64h-7c-49 0 -65 17 -65 64v11c0 48 16 63 65 63h7zM218 246c0 -72 43 -113 127 -113c85 0 127 41 127 113
v423c0 31 10 41 41 41h81c30 0 41 -10 41 -41v-419c0 -161 -100 -265 -290 -265c-189 0 -289 104 -289 265v419c0 31 10 41 41 41h81c30 0 40 -10 40 -41v-423z" />
    <glyph glyph-name="Ugrave" unicode="&#xd9;" horiz-adv-x="691" 
d="M264 907c19 23 43 15 66 2l141 -83c18 -10 17 -19 2 -38l-19 -25c-10 -13 -23 -10 -46 -2l-175 62c-24 9 -22 19 -5 40zM218 246c0 -72 43 -113 127 -113c85 0 127 41 127 113v423c0 31 10 41 41 41h81c30 0 41 -10 41 -41v-419c0 -161 -100 -265 -290 -265
c-189 0 -289 104 -289 265v419c0 31 10 41 41 41h81c30 0 40 -10 40 -41v-423z" />
    <glyph glyph-name="Uhungarumlaut" unicode="&#x170;" horiz-adv-x="691" 
d="M249 894c15 23 33 32 62 25l48 -14c26 -9 29 -23 11 -41l-103 -89c-18 -15 -26 -20 -43 -15l-26 7c-25 6 -24 19 -13 36zM426 894c17 23 34 32 62 24l51 -15c26 -9 31 -25 11 -41l-113 -91c-19 -15 -27 -21 -43 -15l-27 7c-24 6 -24 21 -11 37zM218 246
c0 -72 43 -113 127 -113c85 0 127 41 127 113v423c0 31 10 41 41 41h81c30 0 41 -10 41 -41v-419c0 -161 -100 -265 -290 -265c-189 0 -289 104 -289 265v419c0 31 10 41 41 41h81c30 0 40 -10 40 -41v-423z" />
    <glyph glyph-name="Umacron" unicode="&#x16a;" horiz-adv-x="691" 
d="M462 883c28 0 35 -7 35 -35v-33c0 -27 -7 -34 -35 -34h-234c-27 0 -34 7 -34 34v33c0 28 10 35 34 35h234zM218 246c0 -72 43 -113 127 -113c85 0 127 41 127 113v423c0 31 10 41 41 41h81c30 0 41 -10 41 -41v-419c0 -161 -100 -265 -290 -265c-189 0 -289 104 -289 265
v419c0 31 10 41 41 41h81c30 0 40 -10 40 -41v-423z" />
    <glyph glyph-name="Uogonek" unicode="&#x172;" horiz-adv-x="691" 
d="M594 710c30 0 41 -10 41 -41v-419c0 -86 -29 -155 -83 -201c-89 -90 -109 -154 -106 -173c3 -11 11 -18 21 -18c5 0 11 1 17 5c9 6 18 4 22 -6l18 -41c5 -12 5 -19 -3 -26c-26 -23 -64 -35 -101 -35c-47 0 -87 15 -96 64c-9 50 18 112 70 169c-15 -2 -32 -3 -49 -3
c-189 0 -289 104 -289 265v419c0 31 10 41 41 41h81c30 0 40 -10 40 -41v-423c0 -72 43 -113 127 -113c85 0 127 41 127 113v423c0 31 10 41 41 41h81z" />
    <glyph glyph-name="Uring" unicode="&#x16e;" horiz-adv-x="691" 
d="M233 852c0 67 49 112 118 112c67 0 115 -45 115 -112c0 -65 -48 -110 -115 -110c-69 0 -118 44 -118 110zM391 852c0 25 -17 42 -40 42c-26 0 -44 -17 -44 -42c0 -23 18 -40 44 -40c23 0 40 16 40 40zM218 246c0 -72 43 -113 127 -113c85 0 127 41 127 113v423
c0 31 10 41 41 41h81c30 0 41 -10 41 -41v-419c0 -161 -100 -265 -290 -265c-189 0 -289 104 -289 265v419c0 31 10 41 41 41h81c30 0 40 -10 40 -41v-423z" />
    <glyph glyph-name="Utilde" unicode="&#x168;" horiz-adv-x="691" 
d="M477 904c18 0 23 -8 23 -23c0 -89 -29 -118 -90 -118c-66 0 -89 50 -126 50c-10 0 -16 -8 -16 -29c0 -14 -6 -21 -20 -21h-45c-17 0 -23 7 -23 22c0 91 33 119 88 119c71 0 93 -50 129 -50c10 0 16 7 16 28c0 15 4 22 20 22h44zM218 246c0 -72 43 -113 127 -113
c85 0 127 41 127 113v423c0 31 10 41 41 41h81c30 0 41 -10 41 -41v-419c0 -161 -100 -265 -290 -265c-189 0 -289 104 -289 265v419c0 31 10 41 41 41h81c30 0 40 -10 40 -41v-423z" />
    <glyph glyph-name="V" unicode="V" horiz-adv-x="657" 
d="M622 710c29 0 36 -13 26 -40l-228 -636c-10 -28 -23 -34 -50 -34h-81c-28 0 -41 6 -50 32l-229 638c-10 27 -2 40 27 40h75c51 0 65 -8 74 -37l117 -373c16 -54 25 -120 25 -120h8s8 64 25 119l115 374c9 29 23 37 73 37h73z" />
    <glyph glyph-name="W" unicode="W" horiz-adv-x="919" 
d="M874 710c29 0 33 -12 26 -40l-159 -636c-7 -29 -22 -34 -50 -34h-80c-28 0 -44 6 -50 32l-81 323c-9 42 -15 92 -16 137h-8c0 -45 -7 -93 -17 -137l-82 -321c-8 -29 -23 -34 -50 -34h-80c-27 0 -43 5 -50 32l-158 638c-7 28 -3 40 26 40h94c34 0 48 -6 55 -36l58 -308
c8 -41 15 -135 15 -154h7c0 23 8 109 20 154l80 308c7 30 23 36 53 36h77c31 0 47 -6 54 -36l78 -308c12 -49 20 -133 20 -154h8c0 18 8 108 16 154l57 308c6 30 20 36 54 36h83z" />
    <glyph glyph-name="Wacute" unicode="&#x1e82;" horiz-adv-x="919" 
d="M486 909c23 13 47 20 66 -3l36 -43c17 -21 18 -31 -5 -40l-175 -62c-23 -8 -36 -11 -46 2l-19 25c-15 19 -16 28 2 38zM874 710c29 0 33 -12 26 -40l-159 -636c-7 -29 -22 -34 -50 -34h-80c-28 0 -44 6 -50 32l-81 323c-9 42 -15 92 -16 137h-8c0 -45 -7 -93 -17 -137
l-82 -321c-8 -29 -23 -34 -50 -34h-80c-27 0 -43 5 -50 32l-158 638c-7 28 -3 40 26 40h94c34 0 48 -6 55 -36l58 -308c8 -41 15 -135 15 -154h7c0 23 8 109 20 154l80 308c7 30 23 36 53 36h77c31 0 47 -6 54 -36l78 -308c12 -49 20 -133 20 -154h8c0 18 8 108 16 154
l57 308c6 30 20 36 54 36h83z" />
    <glyph glyph-name="Wcircumflex" unicode="&#x174;" horiz-adv-x="919" 
d="M480 914c30 0 38 -1 66 -30l96 -97c15 -15 14 -30 -16 -30h-62c-32 0 -44 2 -60 20l-38 44l-41 -44c-17 -19 -26 -20 -58 -20h-57c-31 0 -31 15 -16 30l95 97c28 28 35 30 72 30h19zM874 710c29 0 33 -12 26 -40l-159 -636c-7 -29 -22 -34 -50 -34h-80
c-28 0 -44 6 -50 32l-81 323c-9 42 -15 92 -16 137h-8c0 -45 -7 -93 -17 -137l-82 -321c-8 -29 -23 -34 -50 -34h-80c-27 0 -43 5 -50 32l-158 638c-7 28 -3 40 26 40h94c34 0 48 -6 55 -36l58 -308c8 -41 15 -135 15 -154h7c0 23 8 109 20 154l80 308c7 30 23 36 53 36h77
c31 0 47 -6 54 -36l78 -308c12 -49 20 -133 20 -154h8c0 18 8 108 16 154l57 308c6 30 20 36 54 36h83z" />
    <glyph glyph-name="Wdieresis" unicode="&#x1e84;" horiz-adv-x="919" 
d="M366 902c49 0 65 -15 65 -63v-11c0 -47 -16 -64 -65 -64h-7c-49 0 -63 17 -63 64v11c0 48 14 63 63 63h7zM573 902c49 0 64 -15 64 -63v-11c0 -47 -15 -64 -64 -64h-7c-49 0 -65 17 -65 64v11c0 48 16 63 65 63h7zM874 710c29 0 33 -12 26 -40l-159 -636
c-7 -29 -22 -34 -50 -34h-80c-28 0 -44 6 -50 32l-81 323c-9 42 -15 92 -16 137h-8c0 -45 -7 -93 -17 -137l-82 -321c-8 -29 -23 -34 -50 -34h-80c-27 0 -43 5 -50 32l-158 638c-7 28 -3 40 26 40h94c34 0 48 -6 55 -36l58 -308c8 -41 15 -135 15 -154h7c0 23 8 109 20 154
l80 308c7 30 23 36 53 36h77c31 0 47 -6 54 -36l78 -308c12 -49 20 -133 20 -154h8c0 18 8 108 16 154l57 308c6 30 20 36 54 36h83z" />
    <glyph glyph-name="Wgrave" unicode="&#x1e80;" horiz-adv-x="919" 
d="M385 907c19 23 43 15 66 2l141 -83c18 -10 17 -19 2 -38l-19 -25c-11 -13 -23 -10 -46 -2l-175 62c-24 9 -23 19 -6 40zM874 710c29 0 33 -12 26 -40l-159 -636c-7 -29 -22 -34 -50 -34h-80c-28 0 -44 6 -50 32l-81 323c-9 42 -15 92 -16 137h-8c0 -45 -7 -93 -17 -137
l-82 -321c-8 -29 -23 -34 -50 -34h-80c-27 0 -43 5 -50 32l-158 638c-7 28 -3 40 26 40h94c34 0 48 -6 55 -36l58 -308c8 -41 15 -135 15 -154h7c0 23 8 109 20 154l80 308c7 30 23 36 53 36h77c31 0 47 -6 54 -36l78 -308c12 -49 20 -133 20 -154h8c0 18 8 108 16 154
l57 308c6 30 20 36 54 36h83z" />
    <glyph glyph-name="X" unicode="X" horiz-adv-x="652" 
d="M637 41c16 -21 9 -41 -20 -41h-96c-49 0 -60 2 -80 36l-121 198l-114 -198c-21 -32 -30 -36 -80 -36h-90c-29 0 -35 19 -20 41l209 321l-200 309c-15 20 -8 39 19 39h92c48 0 58 -5 79 -34l112 -185l111 185c21 31 31 34 74 34h96c27 0 34 -19 19 -39l-202 -308z" />
    <glyph glyph-name="Y" unicode="Y" horiz-adv-x="658" 
d="M624 710c30 0 34 -18 21 -41l-235 -393v-235c0 -31 -11 -41 -41 -41h-81c-31 0 -41 10 -41 41v237l-235 391c-13 23 -9 41 21 41h93c48 0 61 -1 79 -36l125 -233l127 233c19 35 32 36 80 36h87z" />
    <glyph glyph-name="Yacute" unicode="&#xdd;" horiz-adv-x="658" 
d="M352 909c23 13 46 20 66 -3l36 -43c17 -21 18 -31 -5 -40l-176 -62c-22 -8 -35 -11 -45 2l-20 25c-15 19 -15 28 3 38zM624 710c30 0 34 -18 21 -41l-235 -393v-235c0 -31 -11 -41 -41 -41h-81c-31 0 -41 10 -41 41v237l-235 391c-13 23 -9 41 21 41h93
c48 0 61 -1 79 -36l125 -233l127 233c19 35 32 36 80 36h87z" />
    <glyph glyph-name="Ycircumflex" unicode="&#x176;" horiz-adv-x="658" 
d="M346 914c29 0 37 -1 66 -30l96 -97c14 -15 14 -30 -17 -30h-61c-33 0 -45 2 -60 20l-38 44l-41 -44c-18 -19 -27 -20 -58 -20h-57c-31 0 -31 15 -17 30l96 97c28 28 35 30 71 30h20zM624 710c30 0 34 -18 21 -41l-235 -393v-235c0 -31 -11 -41 -41 -41h-81
c-31 0 -41 10 -41 41v237l-235 391c-13 23 -9 41 21 41h93c48 0 61 -1 79 -36l125 -233l127 233c19 35 32 36 80 36h87z" />
    <glyph glyph-name="Ydieresis" unicode="&#x178;" horiz-adv-x="658" 
d="M232 902c49 0 65 -15 65 -63v-11c0 -47 -16 -64 -65 -64h-7c-49 0 -64 17 -64 64v11c0 48 15 63 64 63h7zM439 902c48 0 63 -15 63 -63v-11c0 -47 -15 -64 -63 -64h-7c-49 0 -65 17 -65 64v11c0 48 16 63 65 63h7zM624 710c30 0 34 -18 21 -41l-235 -393v-235
c0 -31 -11 -41 -41 -41h-81c-31 0 -41 10 -41 41v237l-235 391c-13 23 -9 41 21 41h93c48 0 61 -1 79 -36l125 -233l127 233c19 35 32 36 80 36h87z" />
    <glyph glyph-name="Ygrave" unicode="&#x1ef2;" horiz-adv-x="658" 
d="M250 907c19 23 43 15 66 2l141 -83c18 -10 18 -19 3 -38l-20 -25c-10 -13 -23 -10 -45 -2l-176 62c-23 9 -22 19 -5 40zM624 710c30 0 34 -18 21 -41l-235 -393v-235c0 -31 -11 -41 -41 -41h-81c-31 0 -41 10 -41 41v237l-235 391c-13 23 -9 41 21 41h93
c48 0 61 -1 79 -36l125 -233l127 233c19 35 32 36 80 36h87z" />
    <glyph glyph-name="Z" unicode="Z" horiz-adv-x="601" 
d="M523 710c30 0 41 -10 41 -41v-58c0 -17 -5 -29 -14 -41l-310 -421h288c30 0 41 -11 41 -41v-67c0 -31 -11 -41 -41 -41h-455c-31 0 -41 10 -41 41v58c0 16 4 28 13 41l311 422h-278c-31 0 -41 10 -41 40v67c0 31 10 41 41 41h445z" />
    <glyph glyph-name="Zacute" unicode="&#x179;" horiz-adv-x="601" 
d="M327 909c23 13 46 20 66 -3l36 -43c17 -21 18 -31 -5 -40l-176 -62c-22 -8 -35 -11 -45 2l-20 25c-15 19 -15 28 3 38zM523 710c30 0 41 -10 41 -41v-58c0 -17 -5 -29 -14 -41l-310 -421h288c30 0 41 -11 41 -41v-67c0 -31 -11 -41 -41 -41h-455c-31 0 -41 10 -41 41v58
c0 16 4 28 13 41l311 422h-278c-31 0 -41 10 -41 40v67c0 31 10 41 41 41h445z" />
    <glyph glyph-name="Zcaron" unicode="&#x17d;" horiz-adv-x="601" 
d="M462 913c31 0 31 -15 16 -31l-95 -96c-28 -29 -36 -31 -67 -31h-18c-35 0 -43 2 -70 31l-96 96c-14 16 -15 31 16 31h58c33 0 41 -2 59 -20l40 -44l39 43c16 19 28 21 59 21h59zM523 710c30 0 41 -10 41 -41v-58c0 -17 -5 -29 -14 -41l-310 -421h288c30 0 41 -11 41 -41
v-67c0 -31 -11 -41 -41 -41h-455c-31 0 -41 10 -41 41v58c0 16 4 28 13 41l311 422h-278c-31 0 -41 10 -41 40v67c0 31 10 41 41 41h445z" />
    <glyph glyph-name="Zdotaccent" unicode="&#x17b;" horiz-adv-x="601" 
d="M310 903c51 0 66 -15 66 -66v-8c0 -51 -15 -66 -66 -66h-6c-51 0 -66 15 -66 66v8c0 51 15 66 66 66h6zM523 710c30 0 41 -10 41 -41v-58c0 -17 -5 -29 -14 -41l-310 -421h288c30 0 41 -11 41 -41v-67c0 -31 -11 -41 -41 -41h-455c-31 0 -41 10 -41 41v58
c0 16 4 28 13 41l311 422h-278c-31 0 -41 10 -41 40v67c0 31 10 41 41 41h445z" />
    <glyph glyph-name="a" unicode="a" horiz-adv-x="524" 
d="M45 431c35 66 106 104 214 104c169 0 223 -88 223 -211v-254c0 -36 -8 -46 -37 -58c-38 -17 -103 -27 -189 -27c-182 0 -229 58 -229 165c0 125 69 164 233 164c26 0 55 -1 71 -2v22c0 49 -22 74 -77 74c-40 0 -65 -13 -83 -37c-16 -22 -24 -27 -51 -16l-55 23
c-26 11 -34 25 -20 53zM331 197c-19 0 -57 2 -84 2c-57 0 -69 -21 -69 -48c0 -29 11 -49 67 -49c42 0 66 2 79 4c4 1 7 2 7 7v84z" />
    <glyph glyph-name="aacute" unicode="&#xe1;" horiz-adv-x="524" 
d="M278 733c23 13 47 20 66 -2l37 -43c17 -21 18 -31 -5 -40l-175 -64c-23 -8 -36 -10 -46 3l-20 24c-15 19 -15 28 2 38zM45 431c35 66 106 104 214 104c169 0 223 -88 223 -211v-254c0 -36 -8 -46 -37 -58c-38 -17 -103 -27 -189 -27c-182 0 -229 58 -229 165
c0 125 69 164 233 164c26 0 55 -1 71 -2v22c0 49 -22 74 -77 74c-40 0 -65 -13 -83 -37c-16 -22 -24 -27 -51 -16l-55 23c-26 11 -34 25 -20 53zM331 197c-19 0 -57 2 -84 2c-57 0 -69 -21 -69 -48c0 -29 11 -49 67 -49c42 0 66 2 79 4c4 1 7 2 7 7v84z" />
    <glyph glyph-name="abreve" unicode="&#x103;" horiz-adv-x="524" 
d="M422 683c-24 -64 -84 -102 -163 -102s-139 38 -162 102c-6 18 -2 26 17 33l52 20c20 7 28 5 36 -12c10 -24 31 -39 57 -39c25 0 46 15 57 39c7 17 14 19 31 13l58 -21c19 -8 23 -15 17 -33zM45 431c35 66 106 104 214 104c169 0 223 -88 223 -211v-254
c0 -36 -8 -46 -37 -58c-38 -17 -103 -27 -189 -27c-182 0 -229 58 -229 165c0 125 69 164 233 164c26 0 55 -1 71 -2v22c0 49 -22 74 -77 74c-40 0 -65 -13 -83 -37c-16 -22 -24 -27 -51 -16l-55 23c-26 11 -34 25 -20 53zM331 197c-19 0 -57 2 -84 2c-57 0 -69 -21 -69 -48
c0 -29 11 -49 67 -49c42 0 66 2 79 4c4 1 7 2 7 7v84z" />
    <glyph glyph-name="acircumflex" unicode="&#xe2;" horiz-adv-x="524" 
d="M273 739c29 0 37 -2 66 -31l96 -96c14 -16 14 -31 -17 -31h-61c-33 0 -45 2 -60 20l-38 44l-41 -43c-18 -20 -27 -21 -58 -21h-56c-31 0 -31 15 -16 31l95 96c28 28 35 31 72 31h18zM45 431c35 66 106 104 214 104c169 0 223 -88 223 -211v-254c0 -36 -8 -46 -37 -58
c-38 -17 -103 -27 -189 -27c-182 0 -229 58 -229 165c0 125 69 164 233 164c26 0 55 -1 71 -2v22c0 49 -22 74 -77 74c-40 0 -65 -13 -83 -37c-16 -22 -24 -27 -51 -16l-55 23c-26 11 -34 25 -20 53zM331 197c-19 0 -57 2 -84 2c-57 0 -69 -21 -69 -48c0 -29 11 -49 67 -49
c42 0 66 2 79 4c4 1 7 2 7 7v84z" />
    <glyph glyph-name="adieresis" unicode="&#xe4;" horiz-adv-x="524" 
d="M159 723c49 0 65 -16 65 -64v-11c0 -47 -16 -63 -65 -63h-7c-49 0 -64 16 -64 63v11c0 48 15 64 64 64h7zM365 723c49 0 64 -16 64 -64v-11c0 -47 -15 -63 -64 -63h-7c-48 0 -64 16 -64 63v11c0 48 16 64 64 64h7zM45 431c35 66 106 104 214 104c169 0 223 -88 223 -211
v-254c0 -36 -8 -46 -37 -58c-38 -17 -103 -27 -189 -27c-182 0 -229 58 -229 165c0 125 69 164 233 164c26 0 55 -1 71 -2v22c0 49 -22 74 -77 74c-40 0 -65 -13 -83 -37c-16 -22 -24 -27 -51 -16l-55 23c-26 11 -34 25 -20 53zM331 197c-19 0 -57 2 -84 2
c-57 0 -69 -21 -69 -48c0 -29 11 -49 67 -49c42 0 66 2 79 4c4 1 7 2 7 7v84z" />
    <glyph glyph-name="agrave" unicode="&#xe0;" horiz-adv-x="524" 
d="M178 731c19 22 43 15 66 2l140 -84c18 -10 18 -19 2 -38l-19 -24c-11 -13 -23 -11 -46 -3l-175 64c-23 9 -22 19 -5 40zM45 431c35 66 106 104 214 104c169 0 223 -88 223 -211v-254c0 -36 -8 -46 -37 -58c-38 -17 -103 -27 -189 -27c-182 0 -229 58 -229 165
c0 125 69 164 233 164c26 0 55 -1 71 -2v22c0 49 -22 74 -77 74c-40 0 -65 -13 -83 -37c-16 -22 -24 -27 -51 -16l-55 23c-26 11 -34 25 -20 53zM331 197c-19 0 -57 2 -84 2c-57 0 -69 -21 -69 -48c0 -29 11 -49 67 -49c42 0 66 2 79 4c4 1 7 2 7 7v84z" />
    <glyph glyph-name="amacron" unicode="&#x101;" horiz-adv-x="524" 
d="M376 706c27 0 34 -7 34 -34v-33c0 -28 -7 -35 -34 -35h-235c-27 0 -34 7 -34 35v33c0 27 10 34 34 34h235zM45 431c35 66 106 104 214 104c169 0 223 -88 223 -211v-254c0 -36 -8 -46 -37 -58c-38 -17 -103 -27 -189 -27c-182 0 -229 58 -229 165c0 125 69 164 233 164
c26 0 55 -1 71 -2v22c0 49 -22 74 -77 74c-40 0 -65 -13 -83 -37c-16 -22 -24 -27 -51 -16l-55 23c-26 11 -34 25 -20 53zM331 197c-19 0 -57 2 -84 2c-57 0 -69 -21 -69 -48c0 -29 11 -49 67 -49c42 0 66 2 79 4c4 1 7 2 7 7v84z" />
    <glyph glyph-name="aogonek" unicode="&#x105;" horiz-adv-x="527" 
d="M45 431c35 66 106 104 214 104c169 0 223 -88 223 -211v-254c0 -21 -3 -33 -11 -43c-63 -84 -71 -132 -67 -151c3 -11 10 -18 20 -18c5 0 11 1 18 5c9 6 18 4 22 -6l17 -41c6 -12 5 -19 -2 -26c-26 -23 -65 -35 -101 -35c-46 0 -89 14 -98 65s18 113 70 170
c-27 -3 -59 -5 -94 -5c-182 0 -229 58 -229 165c0 125 69 164 233 164c26 0 55 -1 71 -2v22c0 49 -22 74 -77 74c-40 0 -65 -13 -83 -37c-16 -22 -24 -27 -51 -16l-55 23c-26 11 -34 25 -20 53zM331 197c-19 0 -57 2 -84 2c-57 0 -69 -21 -69 -48c0 -29 11 -49 67 -49
c42 0 66 2 79 4c4 1 7 2 7 7v84z" />
    <glyph glyph-name="aring" unicode="&#xe5;" horiz-adv-x="524" 
d="M145 679c0 67 49 113 118 113c67 0 115 -46 115 -113c0 -65 -48 -110 -115 -110c-69 0 -118 44 -118 110zM303 679c0 25 -17 42 -40 42c-26 0 -44 -17 -44 -42c0 -23 18 -40 44 -40c23 0 40 16 40 40zM45 431c35 66 106 104 214 104c169 0 223 -88 223 -211v-254
c0 -36 -8 -46 -37 -58c-38 -17 -103 -27 -189 -27c-182 0 -229 58 -229 165c0 125 69 164 233 164c26 0 55 -1 71 -2v22c0 49 -22 74 -77 74c-40 0 -65 -13 -83 -37c-16 -22 -24 -27 -51 -16l-55 23c-26 11 -34 25 -20 53zM331 197c-19 0 -57 2 -84 2c-57 0 -69 -21 -69 -48
c0 -29 11 -49 67 -49c42 0 66 2 79 4c4 1 7 2 7 7v84z" />
    <glyph glyph-name="aringacute" unicode="&#x1fb;" horiz-adv-x="524" 
d="M279 908c21 10 43 15 61 -2l35 -31c16 -16 17 -23 -5 -30l-164 -47c-21 -6 -33 -8 -42 2l-19 18c-14 14 -15 21 2 28zM143 671c0 66 49 111 117 111c67 0 114 -45 114 -111c0 -65 -47 -109 -114 -109c-68 0 -117 44 -117 109zM300 671c0 25 -16 41 -40 41
c-25 0 -43 -16 -43 -41c0 -23 18 -40 43 -40c24 0 40 16 40 40zM45 431c35 66 106 104 214 104c169 0 223 -88 223 -211v-254c0 -36 -8 -46 -37 -58c-38 -17 -103 -27 -189 -27c-182 0 -229 58 -229 165c0 125 69 164 233 164c26 0 55 -1 71 -2v22c0 49 -22 74 -77 74
c-40 0 -65 -13 -83 -37c-16 -22 -24 -27 -51 -16l-55 23c-26 11 -34 25 -20 53zM331 197c-19 0 -57 2 -84 2c-57 0 -69 -21 -69 -48c0 -29 11 -49 67 -49c42 0 66 2 79 4c4 1 7 2 7 7v84z" />
    <glyph glyph-name="atilde" unicode="&#xe3;" horiz-adv-x="524" 
d="M391 731c17 0 22 -7 22 -22c0 -90 -29 -119 -90 -119c-66 0 -89 50 -125 50c-11 0 -17 -7 -17 -28c0 -15 -5 -22 -20 -22h-45c-16 0 -22 8 -22 23c0 90 32 118 88 118c70 0 92 -50 128 -50c10 0 16 8 16 29c0 14 4 21 21 21h44zM45 431c35 66 106 104 214 104
c169 0 223 -88 223 -211v-254c0 -36 -8 -46 -37 -58c-38 -17 -103 -27 -189 -27c-182 0 -229 58 -229 165c0 125 69 164 233 164c26 0 55 -1 71 -2v22c0 49 -22 74 -77 74c-40 0 -65 -13 -83 -37c-16 -22 -24 -27 -51 -16l-55 23c-26 11 -34 25 -20 53zM331 197
c-19 0 -57 2 -84 2c-57 0 -69 -21 -69 -48c0 -29 11 -49 67 -49c42 0 66 2 79 4c4 1 7 2 7 7v84z" />
    <glyph glyph-name="ae" unicode="&#xe6;" horiz-adv-x="797" 
d="M45 431c35 66 99 104 203 104c63 0 110 -15 143 -41c37 27 87 41 147 41c162 0 231 -96 231 -211v-61c0 -30 -13 -50 -52 -50h-258v-27c0 -52 28 -77 80 -77c42 0 67 15 85 40c16 23 29 29 58 13l49 -25c27 -14 32 -32 16 -59c-37 -60 -100 -93 -210 -93
c-50 0 -94 11 -127 28c-40 -16 -87 -28 -165 -28c-177 0 -218 58 -218 165c0 125 62 164 222 164c23 0 48 -1 62 -2v35c0 38 -16 61 -67 61c-35 0 -56 -13 -73 -38c-15 -22 -23 -26 -50 -15l-55 23c-27 11 -35 25 -21 53zM618 338c0 50 -26 77 -80 77c-53 0 -79 -27 -79 -77
v-16h159v16zM312 197c-17 0 -52 2 -75 2c-51 0 -59 -20 -59 -48c0 -30 7 -49 57 -49c54 0 77 6 77 6v40v49z" />
    <glyph glyph-name="aeacute" unicode="&#x1fd;" horiz-adv-x="797" 
d="M407 733c23 13 47 20 66 -2l37 -43c17 -21 18 -31 -5 -40l-175 -64c-23 -8 -35 -10 -45 3l-20 24c-15 19 -16 28 2 38zM45 431c35 66 99 104 203 104c63 0 110 -15 143 -41c37 27 87 41 147 41c162 0 231 -96 231 -211v-61c0 -30 -13 -50 -52 -50h-258v-27
c0 -52 28 -77 80 -77c42 0 67 15 85 40c16 23 29 29 58 13l49 -25c27 -14 32 -32 16 -59c-37 -60 -100 -93 -210 -93c-50 0 -94 11 -127 28c-40 -16 -87 -28 -165 -28c-177 0 -218 58 -218 165c0 125 62 164 222 164c23 0 48 -1 62 -2v35c0 38 -16 61 -67 61
c-35 0 -56 -13 -73 -38c-15 -22 -23 -26 -50 -15l-55 23c-27 11 -35 25 -21 53zM618 338c0 50 -26 77 -80 77c-53 0 -79 -27 -79 -77v-16h159v16zM312 197c-17 0 -52 2 -75 2c-51 0 -59 -20 -59 -48c0 -30 7 -49 57 -49c54 0 77 6 77 6v40v49z" />
    <glyph glyph-name="b" unicode="b" horiz-adv-x="545" 
d="M164 740c27 0 36 -9 36 -37v-178c28 6 59 10 94 10c147 0 216 -76 216 -207v-125c0 -141 -77 -218 -235 -218c-84 0 -154 17 -189 33c-33 16 -37 24 -37 56v629c0 28 9 37 37 37h78zM358 327c0 47 -30 73 -84 73c-28 0 -54 -5 -74 -11v-256c0 -1 0 -4 3 -5
c19 -6 41 -8 64 -8c63 0 91 27 91 83v124z" />
    <glyph glyph-name="c" unicode="c" horiz-adv-x="519" 
d="M35 323c0 131 74 212 238 212c120 0 193 -58 219 -133c10 -29 2 -42 -26 -52l-64 -21c-29 -11 -42 -4 -53 25c-13 32 -40 51 -82 51c-54 0 -81 -26 -81 -75v-140c0 -49 27 -75 81 -75c42 0 69 19 82 51c11 28 23 33 53 24l65 -20c28 -9 38 -23 26 -53
c-35 -83 -107 -132 -230 -132c-159 0 -228 80 -228 212v126z" />
    <glyph glyph-name="cacute" unicode="&#x107;" horiz-adv-x="519" 
d="M292 733c23 13 46 20 66 -2l36 -43c18 -21 19 -31 -5 -40l-175 -64c-22 -8 -35 -10 -45 3l-20 24c-15 19 -16 28 2 38zM35 323c0 131 74 212 238 212c120 0 193 -58 219 -133c10 -29 2 -42 -26 -52l-64 -21c-29 -11 -42 -4 -53 25c-13 32 -40 51 -82 51
c-54 0 -81 -26 -81 -75v-140c0 -49 27 -75 81 -75c42 0 69 19 82 51c11 28 23 33 53 24l65 -20c28 -9 38 -23 26 -53c-35 -83 -107 -132 -230 -132c-159 0 -228 80 -228 212v126z" />
    <glyph glyph-name="ccaron" unicode="&#x10d;" horiz-adv-x="519" 
d="M415 721c28 0 28 -14 14 -29l-87 -89c-26 -27 -33 -28 -62 -28h-16c-32 0 -39 2 -64 28l-88 89c-13 15 -14 29 14 29h54c30 0 38 -2 54 -19l37 -40l35 40c15 17 26 19 55 19h54zM35 323c0 131 74 212 238 212c120 0 193 -58 219 -133c10 -29 2 -42 -26 -52l-64 -21
c-29 -11 -42 -4 -53 25c-13 32 -40 51 -82 51c-54 0 -81 -26 -81 -75v-140c0 -49 27 -75 81 -75c42 0 69 19 82 51c11 28 23 33 53 24l65 -20c28 -9 38 -23 26 -53c-35 -83 -107 -132 -230 -132c-159 0 -228 80 -228 212v126z" />
    <glyph glyph-name="ccedilla" unicode="&#xe7;" horiz-adv-x="519" 
d="M467 170c28 -9 38 -23 26 -53c-30 -70 -86 -116 -177 -129l-14 -38h8c53 0 89 -42 83 -96c-9 -79 -77 -99 -143 -99c-15 0 -50 1 -72 11c-16 7 -21 15 -21 31l-1 37c0 13 6 23 22 15c18 -9 29 -14 55 -14c29 0 39 13 39 27c0 15 -9 21 -38 22h-21c-19 0 -23 9 -15 28
l33 74c-136 11 -196 89 -196 211v126c0 131 74 212 238 212c120 0 193 -58 219 -133c10 -29 2 -42 -26 -52l-64 -21c-29 -11 -42 -4 -53 25c-13 32 -40 51 -82 51c-54 0 -81 -26 -81 -75v-140c0 -49 27 -75 81 -75c42 0 69 19 82 51c11 28 23 33 53 24z" />
    <glyph glyph-name="ccircumflex" unicode="&#x109;" horiz-adv-x="519" 
d="M285 734c29 0 37 -2 65 -30l94 -94c14 -15 14 -30 -16 -30h-60c-32 0 -44 2 -59 20l-37 42l-40 -42c-17 -19 -26 -20 -57 -20h-54c-30 0 -31 15 -16 30l93 94c27 27 34 30 70 30h17zM35 323c0 131 74 212 238 212c120 0 193 -58 219 -133c10 -29 2 -42 -26 -52l-64 -21
c-29 -11 -42 -4 -53 25c-13 32 -40 51 -82 51c-54 0 -81 -26 -81 -75v-140c0 -49 27 -75 81 -75c42 0 69 19 82 51c11 28 23 33 53 24l65 -20c28 -9 38 -23 26 -53c-35 -83 -107 -132 -230 -132c-159 0 -228 80 -228 212v126z" />
    <glyph glyph-name="cdotaccent" unicode="&#x10b;" horiz-adv-x="519" 
d="M275 726c51 0 66 -15 66 -66v-8c0 -51 -15 -66 -66 -66h-6c-51 0 -66 15 -66 66v8c0 51 15 66 66 66h6zM35 323c0 131 74 212 238 212c120 0 193 -58 219 -133c10 -29 2 -42 -26 -52l-64 -21c-29 -11 -42 -4 -53 25c-13 32 -40 51 -82 51c-54 0 -81 -26 -81 -75v-140
c0 -49 27 -75 81 -75c42 0 69 19 82 51c11 28 23 33 53 24l65 -20c28 -9 38 -23 26 -53c-35 -83 -107 -132 -230 -132c-159 0 -228 80 -228 212v126z" />
    <glyph glyph-name="d" unicode="d" horiz-adv-x="545" 
d="M36 318c0 141 74 217 217 217c35 0 66 -3 92 -6v174c0 28 9 37 37 37h77c28 0 37 -9 37 -37v-629c0 -33 -7 -42 -40 -55c-41 -17 -99 -34 -197 -34c-153 0 -223 76 -223 207v126zM345 394c-19 3 -42 6 -67 6c-62 0 -91 -26 -91 -82v-125c0 -47 31 -73 84 -73
c27 0 51 2 71 7c3 1 3 3 3 5v262z" />
    <glyph glyph-name="eth" unicode="&#xf0;" horiz-adv-x="556" 
d="M388 751c9 10 13 10 25 1l38 -27c13 -9 11 -16 2 -27l-27 -30c60 -56 85 -146 85 -275v-198c0 -131 -82 -210 -238 -210c-158 0 -239 77 -239 208v103c0 129 86 205 210 205c67 0 105 -15 129 -39c-4 42 -17 75 -42 100l-32 -37c-11 -11 -15 -10 -27 -2l-33 23
c-11 8 -12 15 -2 26l23 28c-27 7 -60 11 -112 11c-30 0 -39 8 -40 37l-1 58c0 28 9 38 37 38c88 0 158 -10 212 -31zM359 296c0 49 -29 75 -86 75c-58 0 -87 -26 -87 -75v-102c0 -48 29 -75 87 -75c57 0 86 27 86 75v102z" />
    <glyph glyph-name="dcaron" unicode="&#x10f;" horiz-adv-x="626" 
d="M36 318c0 141 74 217 217 217c35 0 66 -3 92 -6v174c0 28 9 37 37 37h77c28 0 37 -9 37 -37v-629c0 -33 -7 -42 -40 -55c-41 -17 -99 -34 -197 -34c-153 0 -223 76 -223 207v126zM645 542c-8 -25 -15 -33 -40 -33h-41c-21 0 -25 5 -23 25l19 167c4 31 13 39 43 39h60
c33 0 41 -12 33 -39zM345 394c-19 3 -42 6 -67 6c-62 0 -91 -26 -91 -82v-125c0 -47 31 -73 84 -73c27 0 51 2 71 7c3 1 3 3 3 5v262z" />
    <glyph glyph-name="dcroat" unicode="&#x111;" horiz-adv-x="545" 
d="M543 676c18 0 23 -6 23 -26v-38c0 -20 -5 -25 -23 -25h-47v-513c0 -33 -7 -42 -40 -55c-41 -17 -99 -34 -197 -34c-153 0 -223 76 -223 207v126c0 141 74 217 217 217c35 0 66 -3 92 -6v58h-102c-18 0 -23 5 -23 25v38c0 20 7 26 23 26h102v27c0 28 9 37 37 37h77
c28 0 37 -9 37 -37v-27h47zM345 394c-19 3 -42 6 -67 6c-62 0 -91 -26 -91 -82v-125c0 -47 31 -73 84 -73c27 0 51 2 71 7c3 1 3 3 3 5v262z" />
    <glyph glyph-name="e" unicode="e" horiz-adv-x="543" 
d="M34 313c0 144 85 222 240 222c166 0 241 -96 241 -211v-61c0 -30 -13 -50 -52 -50h-278v-25c0 -54 34 -79 90 -79c47 0 77 16 95 40c17 23 29 28 58 13l49 -25c28 -14 32 -32 16 -59c-37 -59 -106 -93 -220 -93c-172 0 -239 96 -239 222v106zM363 338c0 50 -30 77 -89 77
c-58 0 -89 -27 -89 -77v-16h178v16z" />
    <glyph glyph-name="eacute" unicode="&#xe9;" horiz-adv-x="543" 
d="M294 733c23 13 46 20 66 -2l36 -43c18 -21 19 -31 -5 -40l-175 -64c-22 -8 -35 -10 -45 3l-20 24c-15 19 -16 28 2 38zM34 313c0 144 85 222 240 222c166 0 241 -96 241 -211v-61c0 -30 -13 -50 -52 -50h-278v-25c0 -54 34 -79 90 -79c47 0 77 16 95 40
c17 23 29 28 58 13l49 -25c28 -14 32 -32 16 -59c-37 -59 -106 -93 -220 -93c-172 0 -239 96 -239 222v106zM363 338c0 50 -30 77 -89 77c-58 0 -89 -27 -89 -77v-16h178v16z" />
    <glyph glyph-name="ebreve" unicode="&#x115;" horiz-adv-x="543" 
d="M437 683c-24 -64 -84 -102 -163 -102c-78 0 -138 38 -161 102c-6 18 -2 26 16 33l52 20c21 7 29 5 37 -12c10 -24 30 -39 56 -39s46 15 57 39c8 17 15 19 32 13l58 -21c18 -8 23 -15 16 -33zM34 313c0 144 85 222 240 222c166 0 241 -96 241 -211v-61
c0 -30 -13 -50 -52 -50h-278v-25c0 -54 34 -79 90 -79c47 0 77 16 95 40c17 23 29 28 58 13l49 -25c28 -14 32 -32 16 -59c-37 -59 -106 -93 -220 -93c-172 0 -239 96 -239 222v106zM363 338c0 50 -30 77 -89 77c-58 0 -89 -27 -89 -77v-16h178v16z" />
    <glyph glyph-name="ecaron" unicode="&#x11b;" horiz-adv-x="543" 
d="M417 721c28 0 28 -14 14 -29l-87 -89c-26 -27 -33 -28 -61 -28h-17c-32 0 -39 2 -64 28l-88 89c-13 15 -14 29 15 29h53c30 0 38 -2 54 -19l37 -40l35 40c15 17 26 19 55 19h54zM34 313c0 144 85 222 240 222c166 0 241 -96 241 -211v-61c0 -30 -13 -50 -52 -50h-278v-25
c0 -54 34 -79 90 -79c47 0 77 16 95 40c17 23 29 28 58 13l49 -25c28 -14 32 -32 16 -59c-37 -59 -106 -93 -220 -93c-172 0 -239 96 -239 222v106zM363 338c0 50 -30 77 -89 77c-58 0 -89 -27 -89 -77v-16h178v16z" />
    <glyph glyph-name="ecircumflex" unicode="&#xea;" horiz-adv-x="543" 
d="M288 734c28 0 36 -2 64 -30l94 -94c14 -15 14 -30 -16 -30h-60c-32 0 -44 2 -59 20l-37 42l-40 -42c-17 -19 -26 -20 -57 -20h-54c-30 0 -31 15 -16 30l93 94c27 27 34 30 70 30h18zM34 313c0 144 85 222 240 222c166 0 241 -96 241 -211v-61c0 -30 -13 -50 -52 -50h-278
v-25c0 -54 34 -79 90 -79c47 0 77 16 95 40c17 23 29 28 58 13l49 -25c28 -14 32 -32 16 -59c-37 -59 -106 -93 -220 -93c-172 0 -239 96 -239 222v106zM363 338c0 50 -30 77 -89 77c-58 0 -89 -27 -89 -77v-16h178v16z" />
    <glyph glyph-name="edieresis" unicode="&#xeb;" horiz-adv-x="543" 
d="M174 723c49 0 65 -16 65 -64v-11c0 -47 -16 -63 -65 -63h-7c-49 0 -63 16 -63 63v11c0 48 14 64 63 64h7zM381 723c49 0 64 -16 64 -64v-11c0 -47 -15 -63 -64 -63h-7c-49 0 -65 16 -65 63v11c0 48 16 64 65 64h7zM34 313c0 144 85 222 240 222c166 0 241 -96 241 -211
v-61c0 -30 -13 -50 -52 -50h-278v-25c0 -54 34 -79 90 -79c47 0 77 16 95 40c17 23 29 28 58 13l49 -25c28 -14 32 -32 16 -59c-37 -59 -106 -93 -220 -93c-172 0 -239 96 -239 222v106zM363 338c0 50 -30 77 -89 77c-58 0 -89 -27 -89 -77v-16h178v16z" />
    <glyph glyph-name="edotaccent" unicode="&#x117;" horiz-adv-x="543" 
d="M277 726c51 0 66 -15 66 -66v-8c0 -51 -15 -66 -66 -66h-6c-51 0 -66 15 -66 66v8c0 51 15 66 66 66h6zM34 313c0 144 85 222 240 222c166 0 241 -96 241 -211v-61c0 -30 -13 -50 -52 -50h-278v-25c0 -54 34 -79 90 -79c47 0 77 16 95 40c17 23 29 28 58 13l49 -25
c28 -14 32 -32 16 -59c-37 -59 -106 -93 -220 -93c-172 0 -239 96 -239 222v106zM363 338c0 50 -30 77 -89 77c-58 0 -89 -27 -89 -77v-16h178v16z" />
    <glyph glyph-name="egrave" unicode="&#xe8;" horiz-adv-x="543" 
d="M194 731c19 22 43 15 66 2l140 -84c18 -10 17 -19 2 -38l-20 -24c-10 -13 -23 -11 -45 -3l-175 64c-24 9 -22 19 -5 40zM34 313c0 144 85 222 240 222c166 0 241 -96 241 -211v-61c0 -30 -13 -50 -52 -50h-278v-25c0 -54 34 -79 90 -79c47 0 77 16 95 40
c17 23 29 28 58 13l49 -25c28 -14 32 -32 16 -59c-37 -59 -106 -93 -220 -93c-172 0 -239 96 -239 222v106zM363 338c0 50 -30 77 -89 77c-58 0 -89 -27 -89 -77v-16h178v16z" />
    <glyph glyph-name="emacron" unicode="&#x113;" horiz-adv-x="543" 
d="M382 699c25 0 32 -7 32 -33v-32c0 -26 -7 -33 -32 -33h-215c-25 0 -32 7 -32 33v32c0 26 10 33 32 33h215zM34 313c0 144 85 222 240 222c166 0 241 -96 241 -211v-61c0 -30 -13 -50 -52 -50h-278v-25c0 -54 34 -79 90 -79c47 0 77 16 95 40c17 23 29 28 58 13l49 -25
c28 -14 32 -32 16 -59c-37 -59 -106 -93 -220 -93c-172 0 -239 96 -239 222v106zM363 338c0 50 -30 77 -89 77c-58 0 -89 -27 -89 -77v-16h178v16z" />
    <glyph glyph-name="eogonek" unicode="&#x119;" horiz-adv-x="543" 
d="M34 313c0 144 85 222 240 222c166 0 241 -96 241 -211v-61c0 -30 -13 -50 -52 -50h-278v-25c0 -54 34 -79 90 -79c47 0 77 16 95 40c17 23 29 28 58 13l49 -25c28 -14 32 -32 16 -59c-7 -11 -15 -21 -24 -30c-69 -84 -82 -153 -78 -172c3 -11 10 -18 20 -18
c5 0 11 1 18 5c9 6 18 4 22 -6l17 -41c6 -12 5 -19 -2 -26c-26 -23 -65 -35 -101 -35c-46 0 -89 14 -98 65c-10 51 19 113 73 170c-20 -3 -42 -5 -67 -5c-172 0 -239 96 -239 222v106zM363 338c0 50 -30 77 -89 77c-58 0 -89 -27 -89 -77v-16h178v16z" />
    <glyph glyph-name="f" unicode="f" horiz-adv-x="380" 
d="M336 740c28 0 38 -9 38 -38v-58c0 -29 -10 -38 -38 -38c-67 0 -91 -26 -91 -83v-3h92c27 0 37 -9 37 -37v-60c0 -28 -10 -37 -37 -37h-92v-349c0 -28 -9 -37 -38 -37h-76c-28 0 -37 9 -37 37v349h-44c-27 0 -36 9 -36 37v60c0 28 9 37 36 37h44v3c0 141 77 215 229 217
h13z" />
    <glyph glyph-name="g" unicode="g" horiz-adv-x="544" 
d="M35 318c0 141 76 217 234 217c85 0 154 -16 189 -33c33 -15 37 -23 37 -56v-454c0 -131 -65 -222 -228 -222c-110 0 -177 34 -215 93c-17 27 -12 45 16 59l56 29c28 15 41 10 58 -13c17 -24 40 -38 82 -38c52 0 80 27 80 81v43c-28 -6 -59 -10 -93 -10
c-148 0 -216 76 -216 207v97zM340 393c-18 4 -40 7 -63 7c-62 0 -91 -26 -91 -82v-96c0 -47 31 -73 84 -73c28 0 53 3 74 7v231c0 3 -1 5 -4 6z" />
    <glyph glyph-name="gbreve" unicode="&#x11f;" horiz-adv-x="544" 
d="M441 683c-23 -64 -83 -102 -163 -102c-78 0 -138 38 -161 102c-6 18 -2 26 16 33l52 20c21 7 29 5 37 -12c10 -24 30 -39 56 -39s46 15 57 39c8 17 15 19 32 13l58 -21c18 -8 23 -15 16 -33zM35 318c0 141 76 217 234 217c85 0 154 -16 189 -33c33 -15 37 -23 37 -56
v-454c0 -131 -65 -222 -228 -222c-110 0 -177 34 -215 93c-17 27 -12 45 16 59l56 29c28 15 41 10 58 -13c17 -24 40 -38 82 -38c52 0 80 27 80 81v43c-28 -6 -59 -10 -93 -10c-148 0 -216 76 -216 207v97zM340 393c-18 4 -40 7 -63 7c-62 0 -91 -26 -91 -82v-96
c0 -47 31 -73 84 -73c28 0 53 3 74 7v231c0 3 -1 5 -4 6z" />
    <glyph glyph-name="gcircumflex" unicode="&#x11d;" horiz-adv-x="544" 
d="M292 734c29 0 37 -2 64 -30l94 -94c14 -15 14 -30 -16 -30h-60c-32 0 -43 2 -59 20l-37 42l-40 -42c-17 -19 -26 -20 -57 -20h-54c-30 0 -31 15 -16 30l93 94c27 27 34 30 70 30h18zM35 318c0 141 76 217 234 217c85 0 154 -16 189 -33c33 -15 37 -23 37 -56v-454
c0 -131 -65 -222 -228 -222c-110 0 -177 34 -215 93c-17 27 -12 45 16 59l56 29c28 15 41 10 58 -13c17 -24 40 -38 82 -38c52 0 80 27 80 81v43c-28 -6 -59 -10 -93 -10c-148 0 -216 76 -216 207v97zM340 393c-18 4 -40 7 -63 7c-62 0 -91 -26 -91 -82v-96
c0 -47 31 -73 84 -73c28 0 53 3 74 7v231c0 3 -1 5 -4 6z" />
    <glyph glyph-name="gcommaaccent" unicode="&#x123;" horiz-adv-x="545" 
d="M242 708c9 27 19 34 47 34h42c23 0 27 -7 25 -28l-11 -101c-4 -34 -16 -43 -48 -43h-61c-35 0 -42 14 -32 43zM35 318c0 141 76 217 234 217c85 0 154 -16 189 -33c33 -15 37 -23 37 -56v-454c0 -131 -65 -222 -228 -222c-110 0 -177 34 -215 93c-17 27 -12 45 16 59
l56 29c28 15 41 10 58 -13c17 -24 40 -38 82 -38c52 0 80 27 80 81v43c-28 -6 -59 -10 -93 -10c-148 0 -216 76 -216 207v97zM340 393c-18 4 -40 7 -63 7c-62 0 -91 -26 -91 -82v-96c0 -47 31 -73 84 -73c28 0 53 3 74 7v231c0 3 -1 5 -4 6z" />
    <glyph glyph-name="gdotaccent" unicode="&#x121;" horiz-adv-x="544" 
d="M281 726c51 0 66 -15 66 -66v-8c0 -51 -15 -66 -66 -66h-6c-51 0 -66 15 -66 66v8c0 51 15 66 66 66h6zM35 318c0 141 76 217 234 217c85 0 154 -16 189 -33c33 -15 37 -23 37 -56v-454c0 -131 -65 -222 -228 -222c-110 0 -177 34 -215 93c-17 27 -12 45 16 59l56 29
c28 15 41 10 58 -13c17 -24 40 -38 82 -38c52 0 80 27 80 81v43c-28 -6 -59 -10 -93 -10c-148 0 -216 76 -216 207v97zM340 393c-18 4 -40 7 -63 7c-62 0 -91 -26 -91 -82v-96c0 -47 31 -73 84 -73c28 0 53 3 74 7v231c0 3 -1 5 -4 6z" />
    <glyph glyph-name="h" unicode="h" horiz-adv-x="557" 
d="M165 740c28 0 37 -9 37 -37v-175c3 0 46 7 93 7c148 0 216 -76 216 -207v-291c0 -28 -9 -37 -36 -37h-78c-28 0 -37 9 -37 37v286c0 49 -30 75 -85 75c-37 0 -72 -8 -73 -8v-353c0 -28 -9 -37 -37 -37h-77c-28 0 -37 9 -37 37v666c0 28 9 37 37 37h77z" />
    <glyph glyph-name="hbar" unicode="&#x127;" horiz-adv-x="558" 
d="M202 528c3 0 46 7 94 7c147 0 216 -76 216 -207v-291c0 -28 -10 -37 -37 -37h-78c-27 0 -37 9 -37 37v286c0 49 -30 75 -85 75c-37 0 -71 -8 -73 -8v-353c0 -28 -9 -37 -36 -37h-78c-28 0 -37 9 -37 37v551h-26c-18 0 -23 5 -23 25v35c0 20 7 26 23 26h26v29
c0 28 9 37 37 37h78c27 0 36 -9 36 -37v-29h116c18 0 23 -6 23 -26v-35c0 -20 -5 -25 -23 -25h-116v-60z" />
    <glyph glyph-name="hcircumflex" unicode="&#x125;" horiz-adv-x="557" 
d="M139 938c29 0 36 -2 64 -30l92 -93c14 -14 14 -29 -16 -29h-59c-31 0 -42 2 -58 20l-36 42l-39 -42c-17 -19 -26 -20 -56 -20h-53c-30 0 -30 15 -16 29l92 93c26 28 33 30 68 30h17zM165 740c27 0 36 -9 36 -37v-175c3 0 46 7 94 7c147 0 216 -76 216 -207v-291
c0 -28 -10 -37 -37 -37h-78c-27 0 -37 9 -37 37v286c0 49 -30 75 -85 75c-37 0 -71 -8 -73 -8v-353c0 -28 -9 -37 -36 -37h-78c-28 0 -37 9 -37 37v666c0 28 9 37 37 37h78z" />
    <glyph glyph-name="i" unicode="i" horiz-adv-x="252" 
d="M136 719c54 0 71 -17 71 -71v-10c0 -54 -17 -71 -71 -71h-21c-54 0 -71 17 -71 71v10c0 54 17 71 71 71h21zM165 520c27 0 36 -9 36 -37v-446c0 -28 -9 -37 -36 -37h-78c-28 0 -37 9 -37 37v446c0 28 9 37 37 37h78z" />
    <glyph glyph-name="dotlessi" unicode="&#x131;" horiz-adv-x="252" 
d="M165 520c27 0 36 -9 36 -37v-446c0 -28 -9 -37 -36 -37h-78c-28 0 -37 9 -37 37v446c0 28 9 37 37 37h78z" />
    <glyph glyph-name="iacute" unicode="&#xed;" horiz-adv-x="252" 
d="M133 733c22 15 47 21 66 -1l38 -42c18 -20 19 -30 -4 -40l-158 -66c-22 -10 -35 -11 -45 1l-21 24c-15 19 -15 27 2 38zM165 520c27 0 36 -9 36 -37v-446c0 -28 -9 -37 -36 -37h-78c-28 0 -37 9 -37 37v446c0 28 9 37 37 37h78z" />
    <glyph glyph-name="ibreve" unicode="&#x12d;" horiz-adv-x="252" 
d="M264 716c19 -8 23 -15 17 -33c-24 -64 -76 -102 -155 -102c-78 0 -130 38 -153 102c-7 18 -2 26 16 33l52 20c21 7 29 5 37 -12c10 -27 23 -37 48 -37c24 0 37 10 49 37c7 17 14 20 31 13zM165 520c27 0 36 -9 36 -37v-446c0 -28 -9 -37 -36 -37h-78c-28 0 -37 9 -37 37
v446c0 28 9 37 37 37h78z" />
    <glyph glyph-name="icircumflex" unicode="&#xee;" horiz-adv-x="252" 
d="M284 610c14 -16 14 -30 -16 -30h-57c-32 0 -47 1 -59 19l-27 43l-30 -42c-15 -21 -27 -20 -57 -20h-52c-30 0 -30 14 -17 30l82 94c25 29 34 30 70 30h17c29 0 40 -1 65 -30zM165 520c27 0 36 -9 36 -37v-446c0 -28 -9 -37 -36 -37h-78c-28 0 -37 9 -37 37v446
c0 28 9 37 37 37h78z" />
    <glyph glyph-name="idieresis" unicode="&#xef;" horiz-adv-x="252" 
d="M35 723c49 0 65 -16 65 -64v-11c0 -47 -16 -63 -65 -63h-7c-49 0 -64 16 -64 63v11c0 48 15 64 64 64h7zM224 723c48 0 63 -16 63 -64v-11c0 -47 -15 -63 -63 -63h-7c-49 0 -65 16 -65 63v11c0 48 16 64 65 64h7zM165 520c27 0 36 -9 36 -37v-446c0 -28 -9 -37 -36 -37
h-78c-28 0 -37 9 -37 37v446c0 28 9 37 37 37h78z" />
    <glyph glyph-name="igrave" unicode="&#xec;" horiz-adv-x="252" 
d="M55 732c19 22 44 16 66 1l122 -86c17 -11 17 -19 2 -38l-21 -24c-10 -12 -23 -11 -45 -1l-158 66c-23 10 -22 20 -4 40zM165 520c27 0 36 -9 36 -37v-446c0 -28 -9 -37 -36 -37h-78c-28 0 -37 9 -37 37v446c0 28 9 37 37 37h78z" />
    <glyph glyph-name="ij" unicode="&#x133;" horiz-adv-x="501" 
d="M136 719c54 0 71 -17 71 -71v-10c0 -54 -17 -71 -71 -71h-21c-54 0 -71 17 -71 71v10c0 54 17 71 71 71h21zM385 719c54 0 71 -17 71 -71v-10c0 -54 -17 -71 -71 -71h-21c-54 0 -71 17 -71 71v10c0 54 17 71 71 71h21zM165 520c27 0 36 -9 36 -37v-446
c0 -28 -9 -37 -36 -37h-78c-28 0 -37 9 -37 37v446c0 28 9 37 37 37h78zM412 520c29 0 38 -9 38 -37v-491c0 -144 -79 -222 -242 -222c-29 0 -38 9 -38 38v62c0 28 9 37 38 37c66 0 91 35 91 92v484c0 28 9 37 38 37h75z" />
    <glyph glyph-name="imacron" unicode="&#x12b;" horiz-adv-x="252" 
d="M202 700c18 0 22 -6 22 -33v-32c0 -27 -4 -34 -22 -34h-153c-18 0 -23 7 -23 34v32c0 27 7 33 23 33h153zM165 520c27 0 36 -9 36 -37v-446c0 -28 -9 -37 -36 -37h-78c-28 0 -37 9 -37 37v446c0 28 9 37 37 37h78z" />
    <glyph glyph-name="iogonek" unicode="&#x12f;" horiz-adv-x="252" 
d="M115 567c-54 0 -71 17 -71 71v10c0 54 17 71 71 71h21c54 0 71 -17 71 -71v-10c0 -54 -17 -71 -71 -71h-21zM225 -184c4 -12 4 -19 -3 -26c-26 -23 -60 -35 -97 -35c-46 0 -89 14 -98 65c-10 52 10 114 61 180c-29 0 -38 11 -38 38v445c0 28 9 37 37 37h78
c27 0 36 -9 36 -37v-446c0 -14 -2 -23 -8 -29c-47 -71 -45 -113 -42 -132c3 -11 11 -18 21 -18c5 0 9 0 15 4c10 6 19 4 23 -6z" />
    <glyph glyph-name="itilde" unicode="&#x129;" horiz-adv-x="252" 
d="M235 738c14 0 18 -7 18 -23c0 -93 -27 -120 -77 -120c-53 0 -68 46 -97 46c-9 0 -17 -2 -17 -24c0 -15 -5 -22 -16 -22h-41c-13 0 -18 8 -18 23c0 94 30 120 75 120c57 0 72 -49 101 -49c8 0 16 6 16 28c0 14 4 21 17 21h39zM165 520c27 0 36 -9 36 -37v-446
c0 -28 -9 -37 -36 -37h-78c-28 0 -37 9 -37 37v446c0 28 9 37 37 37h78z" />
    <glyph glyph-name="j" unicode="j" horiz-adv-x="253" 
d="M137 719c54 0 71 -17 71 -71v-10c0 -54 -17 -71 -71 -71h-21c-54 0 -71 17 -71 71v10c0 54 17 71 71 71h21zM164 520c29 0 38 -9 38 -37v-491c0 -144 -79 -222 -242 -222c-29 0 -38 9 -38 38v62c0 28 9 37 38 37c66 0 91 35 91 92v484c0 28 9 37 38 37h75z" />
    <glyph glyph-name="dotlessj" unicode="&#x237;" horiz-adv-x="253" 
d="M165 520c28 0 37 -9 37 -37v-491c0 -144 -79 -222 -242 -222c-28 0 -38 9 -38 38v62c0 28 10 37 38 37c67 0 91 35 91 92v484c0 28 9 37 38 37h76z" />
    <glyph glyph-name="jcircumflex" unicode="&#x135;" horiz-adv-x="253" 
d="M139 734c30 0 38 -2 66 -30l93 -94c15 -16 15 -30 -16 -30h-59c-33 0 -45 2 -59 19l-38 43l-39 -42c-18 -19 -27 -20 -57 -20h-55c-30 0 -30 14 -16 30l93 94c28 27 35 30 71 30h16zM164 520c29 0 38 -9 38 -37v-491c0 -144 -79 -222 -242 -222c-29 0 -38 9 -38 38v62
c0 28 9 37 38 37c66 0 91 35 91 92v484c0 28 9 37 38 37h75z" />
    <glyph glyph-name="k" unicode="k" horiz-adv-x="536" 
d="M514 45c17 -32 12 -45 -25 -45h-69c-43 0 -53 5 -66 34l-53 123c-12 28 -31 40 -64 40h-35v-159c0 -29 -9 -38 -38 -38h-75c-29 0 -38 9 -38 38v664c0 29 9 38 38 38h75c29 0 38 -9 38 -38v-371h21h6l113 159c18 28 30 30 71 30h67c37 0 45 -16 25 -44l-134 -183
c22 -15 39 -38 56 -72z" />
    <glyph glyph-name="kcommaaccent" unicode="&#x137;" horiz-adv-x="536" 
d="M514 45c17 -32 12 -45 -25 -45h-69c-43 0 -53 5 -66 34l-53 123c-12 28 -31 40 -64 40h-35v-159c0 -29 -9 -38 -38 -38h-75c-29 0 -38 9 -38 38v664c0 29 9 38 38 38h75c29 0 38 -9 38 -38v-371h21h6l113 159c18 28 30 30 71 30h67c37 0 45 -16 25 -44l-134 -183
c22 -15 39 -38 56 -72zM322 -196c-10 -27 -20 -34 -48 -34h-41c-24 0 -28 6 -26 28l11 112c4 34 16 43 48 43h61c35 0 42 -14 32 -43z" />
    <glyph glyph-name="kgreenlandic" unicode="&#x138;" horiz-adv-x="526" 
d="M504 45c19 -29 14 -45 -25 -45h-69c-43 0 -60 4 -77 31l-92 140l-40 -49v-83c0 -30 -9 -39 -38 -39h-74c-30 0 -39 9 -39 39v443c0 29 9 38 39 38h74c29 0 38 -9 38 -38v-151l128 160c21 26 30 29 71 29h74c39 0 46 -16 24 -43l-156 -188z" />
    <glyph glyph-name="l" unicode="l" horiz-adv-x="256" 
d="M204 37c0 -28 -9 -37 -37 -37h-78c-27 0 -36 9 -36 37v666c0 28 9 37 36 37h78c28 0 37 -9 37 -37v-666z" />
    <glyph glyph-name="lacute" unicode="&#x13a;" horiz-adv-x="256" 
d="M139 915c22 14 42 19 61 -4l39 -48c17 -21 18 -33 -5 -40l-158 -52c-23 -8 -35 -11 -46 2l-22 29c-14 19 -16 28 2 38zM203 37c0 -28 -9 -37 -37 -37h-77c-28 0 -37 9 -37 37v666c0 28 9 37 37 37h77c28 0 37 -9 37 -37v-666z" />
    <glyph glyph-name="lcaron" unicode="&#x13e;" horiz-adv-x="282" 
d="M204 37c0 -28 -9 -37 -37 -37h-78c-27 0 -36 9 -36 37v666c0 28 9 37 36 37h78c28 0 37 -9 37 -37v-666zM355 564c-9 -24 -16 -32 -42 -32h-40c-20 0 -24 5 -22 24l16 146c4 30 13 38 43 38h66c33 0 42 -13 32 -38z" />
    <glyph glyph-name="lcommaaccent" unicode="&#x13c;" horiz-adv-x="256" 
d="M204 37c0 -28 -9 -37 -37 -37h-78c-27 0 -36 9 -36 37v666c0 28 9 37 36 37h78c28 0 37 -9 37 -37v-666zM155 -187c-9 -27 -19 -34 -47 -34h-43c-23 0 -27 7 -25 28l11 112c4 33 15 43 48 43h62c35 0 42 -15 32 -43z" />
    <glyph glyph-name="ldot" unicode="&#x140;" horiz-adv-x="430" 
d="M204 37c0 -28 -9 -37 -37 -37h-78c-27 0 -36 9 -36 37v666c0 28 9 37 36 37h78c28 0 37 -9 37 -37v-666zM354 462c57 0 75 -18 75 -75v-19c0 -57 -18 -76 -75 -76h-17c-57 0 -76 19 -76 76v19c0 57 19 75 76 75h17z" />
    <glyph glyph-name="lslash" unicode="&#x142;" horiz-adv-x="360" 
d="M354 439c9 -16 5 -28 -9 -35l-91 -49v-318c0 -28 -9 -37 -36 -37h-78c-28 0 -37 9 -37 37v237l-31 -17c-22 -11 -32 -7 -41 10l-24 41c-8 16 -4 27 10 35l86 46v314c0 28 9 37 37 37h78c27 0 36 -9 36 -37v-233l36 19c22 11 31 7 41 -10z" />
    <glyph glyph-name="m" unicode="m" horiz-adv-x="826" 
d="M406 507c39 15 91 28 168 28c142 0 206 -76 206 -207v-291c0 -28 -9 -37 -37 -37h-77c-28 0 -37 9 -37 37v287c0 48 -26 74 -76 74c-24 0 -48 -4 -69 -10c4 -18 6 -39 6 -61v-290c0 -28 -9 -37 -37 -37h-77c-28 0 -37 9 -37 37v287c0 48 -26 74 -76 74
c-21 0 -39 -3 -59 -8c-3 0 -4 -3 -4 -6v-347c0 -28 -9 -37 -37 -37h-77c-28 0 -37 9 -37 37v404c0 33 7 45 40 58c41 17 100 36 195 36c50 0 91 -10 122 -28z" />
    <glyph glyph-name="n" unicode="n" 
d="M89 499c41 17 105 36 204 36c148 0 216 -76 216 -207v-291c0 -28 -9 -37 -36 -37h-78c-28 0 -37 9 -37 37v286c0 52 -28 75 -85 75c-27 0 -49 -3 -70 -9c-1 0 -3 -2 -3 -4v-348c0 -28 -9 -37 -37 -37h-77c-28 0 -37 9 -37 37v404c0 33 7 45 40 58z" />
    <glyph glyph-name="nacute" unicode="&#x144;" 
d="M299 733c23 13 46 20 66 -2l36 -43c18 -21 19 -31 -5 -40l-175 -64c-22 -8 -35 -10 -45 3l-20 24c-15 19 -16 28 2 38zM89 499c41 17 105 36 204 36c148 0 216 -76 216 -207v-291c0 -28 -9 -37 -36 -37h-78c-28 0 -37 9 -37 37v286c0 52 -28 75 -85 75
c-27 0 -49 -3 -70 -9c-1 0 -3 -2 -3 -4v-348c0 -28 -9 -37 -37 -37h-77c-28 0 -37 9 -37 37v404c0 33 7 45 40 58z" />
    <glyph glyph-name="napostrophe" unicode="&#x149;" 
d="M136 563c-14 -20 -19 -24 -45 -24h-43c-20 0 -24 6 -18 24l50 144c8 25 14 33 43 33h78c33 0 38 -15 24 -38zM89 499c41 17 105 36 204 36c148 0 216 -76 216 -207v-291c0 -28 -9 -37 -36 -37h-78c-28 0 -37 9 -37 37v286c0 52 -28 75 -85 75c-27 0 -49 -3 -70 -9
c-1 0 -3 -2 -3 -4v-348c0 -28 -9 -37 -37 -37h-77c-28 0 -37 9 -37 37v404c0 33 7 45 40 58z" />
    <glyph glyph-name="ncaron" unicode="&#x148;" 
d="M422 721c28 0 28 -14 14 -29l-87 -89c-26 -27 -33 -28 -61 -28h-17c-32 0 -39 2 -64 28l-88 89c-13 15 -14 29 15 29h53c30 0 38 -2 54 -19l37 -40l35 40c15 17 26 19 55 19h54zM89 499c41 17 105 36 204 36c148 0 216 -76 216 -207v-291c0 -28 -9 -37 -36 -37h-78
c-28 0 -37 9 -37 37v286c0 52 -28 75 -85 75c-27 0 -49 -3 -70 -9c-1 0 -3 -2 -3 -4v-348c0 -28 -9 -37 -37 -37h-77c-28 0 -37 9 -37 37v404c0 33 7 45 40 58z" />
    <glyph glyph-name="ncommaaccent" unicode="&#x146;" 
d="M89 499c41 17 105 36 204 36c148 0 216 -76 216 -207v-291c0 -28 -9 -37 -36 -37h-78c-28 0 -37 9 -37 37v286c0 52 -28 75 -85 75c-27 0 -49 -3 -70 -9c-1 0 -3 -2 -3 -4v-348c0 -28 -9 -37 -37 -37h-77c-28 0 -37 9 -37 37v404c0 33 7 45 40 58zM316 -186
c-9 -27 -19 -34 -47 -34h-42c-23 0 -27 6 -25 28l11 112c4 34 15 43 48 43h61c34 0 41 -14 31 -43z" />
    <glyph glyph-name="eng" unicode="&#x14b;" horiz-adv-x="556" 
d="M89 499c41 17 105 36 204 36c148 0 216 -76 216 -207v-344c0 -139 -76 -214 -234 -214c-27 0 -36 8 -36 36v60c0 28 9 36 36 36c64 0 83 34 83 88v333c0 52 -28 75 -85 75c-27 0 -49 -3 -70 -9c-1 0 -3 -2 -3 -4v-348c0 -28 -9 -37 -37 -37h-77c-28 0 -37 9 -37 37v404
c0 33 7 45 40 58z" />
    <glyph glyph-name="ntilde" unicode="&#xf1;" 
d="M411 731c18 0 23 -7 23 -22c0 -90 -29 -119 -90 -119c-66 0 -89 50 -126 50c-10 0 -16 -7 -16 -28c0 -15 -6 -22 -20 -22h-45c-17 0 -23 8 -23 23c0 90 33 118 88 118c71 0 93 -50 129 -50c10 0 16 8 16 29c0 14 4 21 20 21h44zM89 499c41 17 105 36 204 36
c148 0 216 -76 216 -207v-291c0 -28 -9 -37 -36 -37h-78c-28 0 -37 9 -37 37v286c0 52 -28 75 -85 75c-27 0 -49 -3 -70 -9c-1 0 -3 -2 -3 -4v-348c0 -28 -9 -37 -37 -37h-77c-28 0 -37 9 -37 37v404c0 33 7 45 40 58z" />
    <glyph glyph-name="o" unicode="o" horiz-adv-x="547" 
d="M35 324c0 131 82 211 238 211c158 0 239 -80 239 -211v-129c0 -131 -81 -210 -239 -210c-156 0 -238 79 -238 210v129zM361 326c0 49 -29 75 -88 75c-58 0 -87 -26 -87 -75v-132c0 -48 29 -75 87 -75c59 0 88 27 88 75v132z" />
    <glyph glyph-name="oacute" unicode="&#xf3;" horiz-adv-x="547" 
d="M292 733c23 13 47 20 66 -2l37 -43c17 -21 19 -31 -5 -40l-175 -64c-22 -8 -35 -10 -45 3l-20 24c-15 19 -16 28 2 38zM35 324c0 131 82 211 238 211c158 0 239 -80 239 -211v-129c0 -131 -81 -210 -239 -210c-156 0 -238 79 -238 210v129zM361 326c0 49 -29 75 -88 75
c-58 0 -87 -26 -87 -75v-132c0 -48 29 -75 87 -75c59 0 88 27 88 75v132z" />
    <glyph glyph-name="obreve" unicode="&#x14f;" horiz-adv-x="547" 
d="M436 683c-24 -64 -84 -102 -163 -102c-78 0 -138 38 -161 102c-7 18 -2 26 16 33l52 20c21 7 29 5 37 -12c10 -24 30 -39 56 -39s46 15 57 39c8 17 14 19 32 13l58 -21c18 -8 23 -15 16 -33zM35 324c0 131 82 211 238 211c158 0 239 -80 239 -211v-129
c0 -131 -81 -210 -239 -210c-156 0 -238 79 -238 210v129zM361 326c0 49 -29 75 -88 75c-58 0 -87 -26 -87 -75v-132c0 -48 29 -75 87 -75c59 0 88 27 88 75v132z" />
    <glyph glyph-name="ocircumflex" unicode="&#xf4;" horiz-adv-x="547" 
d="M286 734c29 0 37 -2 65 -30l94 -94c14 -15 14 -30 -16 -30h-60c-32 0 -44 2 -59 20l-37 42l-40 -42c-17 -19 -26 -20 -57 -20h-54c-31 0 -31 15 -17 30l94 94c27 27 34 30 70 30h17zM35 324c0 131 82 211 238 211c158 0 239 -80 239 -211v-129c0 -131 -81 -210 -239 -210
c-156 0 -238 79 -238 210v129zM361 326c0 49 -29 75 -88 75c-58 0 -87 -26 -87 -75v-132c0 -48 29 -75 87 -75c59 0 88 27 88 75v132z" />
    <glyph glyph-name="odieresis" unicode="&#xf6;" horiz-adv-x="547" 
d="M173 723c49 0 65 -16 65 -64v-11c0 -47 -16 -63 -65 -63h-7c-49 0 -63 16 -63 63v11c0 48 14 64 63 64h7zM380 723c49 0 64 -16 64 -64v-11c0 -47 -15 -63 -64 -63h-7c-49 0 -65 16 -65 63v11c0 48 16 64 65 64h7zM35 324c0 131 82 211 238 211c158 0 239 -80 239 -211
v-129c0 -131 -81 -210 -239 -210c-156 0 -238 79 -238 210v129zM361 326c0 49 -29 75 -88 75c-58 0 -87 -26 -87 -75v-132c0 -48 29 -75 87 -75c59 0 88 27 88 75v132z" />
    <glyph glyph-name="ograve" unicode="&#xf2;" horiz-adv-x="547" 
d="M192 731c20 22 43 15 66 2l141 -84c18 -10 17 -19 2 -38l-20 -24c-10 -13 -23 -11 -45 -3l-175 64c-24 9 -23 19 -5 40zM35 324c0 131 82 211 238 211c158 0 239 -80 239 -211v-129c0 -131 -81 -210 -239 -210c-156 0 -238 79 -238 210v129zM361 326c0 49 -29 75 -88 75
c-58 0 -87 -26 -87 -75v-132c0 -48 29 -75 87 -75c59 0 88 27 88 75v132z" />
    <glyph glyph-name="ohungarumlaut" unicode="&#x151;" horiz-adv-x="547" 
d="M184 696c15 21 31 30 58 23l44 -13c23 -8 26 -21 10 -38l-95 -81c-17 -14 -24 -19 -39 -14l-25 6c-22 6 -22 18 -11 34zM347 696c16 21 32 30 58 22l47 -14c23 -8 28 -22 10 -37l-105 -84c-16 -14 -24 -19 -39 -14l-25 7c-22 6 -22 19 -10 34zM35 324
c0 131 82 211 238 211c158 0 239 -80 239 -211v-129c0 -131 -81 -210 -239 -210c-156 0 -238 79 -238 210v129zM361 326c0 49 -29 75 -88 75c-58 0 -87 -26 -87 -75v-132c0 -48 29 -75 87 -75c59 0 88 27 88 75v132z" />
    <glyph glyph-name="omacron" unicode="&#x14d;" horiz-adv-x="547" 
d="M381 699c25 0 31 -7 31 -33v-32c0 -26 -6 -33 -31 -33h-215c-25 0 -32 7 -32 33v32c0 26 10 33 32 33h215zM35 324c0 131 82 211 238 211c158 0 239 -80 239 -211v-129c0 -131 -81 -210 -239 -210c-156 0 -238 79 -238 210v129zM361 326c0 49 -29 75 -88 75
c-58 0 -87 -26 -87 -75v-132c0 -48 29 -75 87 -75c59 0 88 27 88 75v132z" />
    <glyph glyph-name="oslash" unicode="&#xf8;" horiz-adv-x="547" 
d="M488 552c10 0 11 -6 6 -14l-39 -62c38 -36 57 -88 57 -152v-129c0 -131 -81 -210 -239 -210c-45 0 -84 7 -116 20l-18 -28c-7 -11 -10 -12 -27 -12h-53c-10 0 -12 6 -7 15l41 64c-38 36 -58 87 -58 151v129c0 131 82 211 238 211c46 0 86 -7 119 -20l16 25
c7 11 11 12 25 12h55zM320 399c-12 6 -27 9 -47 9c-58 0 -87 -26 -87 -75v-126c0 -7 1 -13 2 -19zM226 121c13 -6 29 -9 47 -9c59 0 88 27 88 75v126c0 6 -1 13 -1 18z" />
    <glyph glyph-name="oslashacute" unicode="&#x1ff;" horiz-adv-x="547" 
d="M292 733c23 13 47 20 66 -2l37 -43c17 -21 19 -31 -5 -40l-175 -64c-22 -8 -35 -10 -45 3l-20 24c-15 19 -16 28 2 38zM488 552c10 0 11 -6 6 -14l-39 -62c38 -36 57 -88 57 -152v-129c0 -131 -81 -210 -239 -210c-45 0 -84 7 -116 20l-18 -28c-7 -11 -10 -12 -27 -12
h-53c-10 0 -12 6 -7 15l41 64c-38 36 -58 87 -58 151v129c0 131 82 211 238 211c46 0 86 -7 119 -20l16 25c7 11 11 12 25 12h55zM320 399c-12 6 -27 9 -47 9c-58 0 -87 -26 -87 -75v-126c0 -7 1 -13 2 -19zM226 121c13 -6 29 -9 47 -9c59 0 88 27 88 75v126
c0 6 -1 13 -1 18z" />
    <glyph glyph-name="otilde" unicode="&#xf5;" horiz-adv-x="547" 
d="M405 731c18 0 23 -7 23 -22c0 -90 -30 -119 -91 -119c-65 0 -88 50 -125 50c-10 0 -16 -7 -16 -28c0 -15 -6 -22 -21 -22h-45c-16 0 -22 8 -22 23c0 90 32 118 88 118c71 0 93 -50 128 -50c11 0 17 8 17 29c0 14 4 21 20 21h44zM35 324c0 131 82 211 238 211
c158 0 239 -80 239 -211v-129c0 -131 -81 -210 -239 -210c-156 0 -238 79 -238 210v129zM361 326c0 49 -29 75 -88 75c-58 0 -87 -26 -87 -75v-132c0 -48 29 -75 87 -75c59 0 88 27 88 75v132z" />
    <glyph glyph-name="oe" unicode="&#x153;" horiz-adv-x="825" 
d="M415 490c36 29 87 45 151 45c162 0 231 -96 231 -211v-61c0 -30 -13 -50 -53 -50h-258v-25c0 -54 29 -79 81 -79c41 0 67 15 84 39s29 30 59 14l49 -25c27 -14 32 -32 16 -59c-37 -60 -100 -93 -210 -93c-65 0 -115 17 -151 45c-36 -29 -87 -45 -152 -45
c-151 0 -227 79 -227 210v129c0 131 76 211 227 211c65 0 116 -16 153 -45zM645 338c0 50 -25 77 -79 77c-53 0 -79 -27 -79 -77v-16h158v16zM340 327c0 49 -24 74 -78 74c-52 0 -76 -25 -76 -74v-134c0 -48 25 -74 76 -74c53 0 78 26 78 74v134z" />
    <glyph glyph-name="p" unicode="p" horiz-adv-x="545" 
d="M89 504c42 16 104 31 203 31c149 0 218 -76 218 -207v-126c0 -141 -77 -217 -231 -217c-28 0 -54 4 -79 9v-177c0 -28 -9 -37 -36 -37h-78c-28 0 -37 9 -37 37v629c0 33 7 45 40 58zM358 327c0 47 -30 73 -84 73c-28 0 -49 -3 -69 -7c-4 -1 -5 -4 -5 -7v-260
c19 -3 43 -6 67 -6c62 0 91 26 91 82v125z" />
    <glyph glyph-name="thorn" unicode="&#xfe;" horiz-adv-x="547" 
d="M51 702c0 28 9 37 37 37h78c27 0 37 -9 37 -37v-172c25 3 56 5 91 5c149 0 218 -76 218 -207v-126c0 -141 -77 -217 -231 -217c-28 0 -54 4 -79 9v-177c0 -28 -9 -37 -36 -37h-78c-28 0 -37 9 -37 37v885zM360 327c0 47 -30 73 -84 73c-28 0 -52 -4 -74 -8v-266
c19 -3 43 -6 67 -6c62 0 91 26 91 82v125z" />
    <glyph glyph-name="q" unicode="q" horiz-adv-x="545" 
d="M270 535c85 0 154 -16 189 -33c33 -15 37 -23 37 -56v-629c0 -28 -9 -37 -37 -37h-77c-28 0 -37 9 -37 37v178c-28 -6 -59 -10 -93 -10c-148 0 -216 76 -216 207v126c0 141 76 217 234 217zM187 193c0 -47 31 -73 84 -73c28 0 53 3 74 7v258c0 4 -2 7 -6 8
c-19 5 -37 7 -61 7c-62 0 -91 -26 -91 -82v-125z" />
    <glyph glyph-name="r" unicode="r" horiz-adv-x="358" 
d="M281 535h33c27 0 37 -9 37 -37v-62c0 -27 -10 -36 -37 -36h-37c-28 0 -49 -2 -71 -7c-5 -1 -6 -4 -6 -7v-349c0 -28 -9 -37 -36 -37h-78c-28 0 -37 9 -37 37v409c0 33 7 45 40 58c38 15 100 28 192 31z" />
    <glyph glyph-name="racute" unicode="&#x155;" horiz-adv-x="358" 
d="M226 733c23 13 46 20 66 -2l37 -43c17 -21 18 -31 -5 -40l-176 -64c-22 -8 -35 -10 -45 3l-20 24c-15 19 -16 28 2 38zM281 535h33c27 0 37 -9 37 -37v-62c0 -27 -10 -36 -37 -36h-37c-28 0 -49 -2 -71 -7c-5 -1 -6 -4 -6 -7v-349c0 -28 -9 -37 -36 -37h-78
c-28 0 -37 9 -37 37v409c0 33 7 45 40 58c38 15 100 28 192 31z" />
    <glyph glyph-name="rcaron" unicode="&#x159;" horiz-adv-x="358" 
d="M349 721c28 0 28 -14 14 -29l-87 -89c-26 -27 -33 -28 -61 -28h-17c-32 0 -39 2 -64 28l-87 89c-14 15 -14 29 14 29h54c29 0 37 -2 53 -19l37 -40l35 40c15 17 26 19 55 19h54zM281 535h33c27 0 37 -9 37 -37v-62c0 -27 -10 -36 -37 -36h-37c-28 0 -49 -2 -71 -7
c-5 -1 -6 -4 -6 -7v-349c0 -28 -9 -37 -36 -37h-78c-28 0 -37 9 -37 37v409c0 33 7 45 40 58c38 15 100 28 192 31z" />
    <glyph glyph-name="rcommaaccent" unicode="&#x157;" horiz-adv-x="358" 
d="M281 535h33c27 0 37 -9 37 -37v-62c0 -27 -10 -36 -37 -36h-37c-28 0 -49 -2 -71 -7c-5 -1 -6 -4 -6 -7v-349c0 -28 -9 -37 -36 -37h-78c-28 0 -37 9 -37 37v409c0 33 7 45 40 58c38 15 100 28 192 31zM153 -193c-8 -26 -19 -33 -47 -33h-42c-23 0 -27 6 -25 27l11 117
c3 34 16 43 48 43h61c35 0 41 -14 32 -43z" />
    <glyph glyph-name="s" unicode="s" horiz-adv-x="510" 
d="M31 368c0 98 72 167 215 167c120 0 187 -41 222 -107c14 -27 7 -41 -20 -53l-59 -25c-28 -12 -35 -7 -51 16c-15 21 -36 38 -87 38c-54 0 -74 -12 -74 -36c0 -31 27 -39 97 -45c134 -13 212 -45 212 -164c0 -103 -79 -174 -225 -174c-123 0 -200 44 -230 119
c-10 26 -3 41 24 50l61 20c26 9 37 5 49 -21c12 -25 39 -38 91 -38c57 0 86 13 86 41c0 34 -28 41 -106 48c-105 10 -205 37 -205 164z" />
    <glyph glyph-name="sacute" unicode="&#x15b;" horiz-adv-x="510" 
d="M273 733c23 13 47 20 66 -2l37 -43c17 -21 18 -31 -5 -40l-175 -64c-23 -8 -35 -10 -46 3l-19 24c-15 19 -16 28 2 38zM31 368c0 98 72 167 215 167c120 0 187 -41 222 -107c14 -27 7 -41 -20 -53l-59 -25c-28 -12 -35 -7 -51 16c-15 21 -36 38 -87 38
c-54 0 -74 -12 -74 -36c0 -31 27 -39 97 -45c134 -13 212 -45 212 -164c0 -103 -79 -174 -225 -174c-123 0 -200 44 -230 119c-10 26 -3 41 24 50l61 20c26 9 37 5 49 -21c12 -25 39 -38 91 -38c57 0 86 13 86 41c0 34 -28 41 -106 48c-105 10 -205 37 -205 164z" />
    <glyph glyph-name="scaron" unicode="&#x161;" horiz-adv-x="510" 
d="M395 717c27 0 27 -14 14 -28l-86 -87c-26 -27 -33 -28 -61 -28h-16c-32 0 -39 2 -64 28l-86 87c-13 14 -14 28 14 28h53c29 0 37 -2 53 -19l37 -39l34 39c15 17 26 19 54 19h54zM31 368c0 98 72 167 215 167c120 0 187 -41 222 -107c14 -27 7 -41 -20 -53l-59 -25
c-28 -12 -35 -7 -51 16c-15 21 -36 38 -87 38c-54 0 -74 -12 -74 -36c0 -31 27 -39 97 -45c134 -13 212 -45 212 -164c0 -103 -79 -174 -225 -174c-123 0 -200 44 -230 119c-10 26 -3 41 24 50l61 20c26 9 37 5 49 -21c12 -25 39 -38 91 -38c57 0 86 13 86 41
c0 34 -28 41 -106 48c-105 10 -205 37 -205 164z" />
    <glyph glyph-name="scedilla" unicode="&#x15f;" horiz-adv-x="510" 
d="M31 368c0 98 72 167 215 167c120 0 187 -41 222 -107c14 -27 7 -41 -20 -53l-59 -25c-28 -12 -35 -7 -51 16c-15 21 -36 38 -87 38c-54 0 -74 -12 -74 -36c0 -31 27 -39 97 -45c134 -13 212 -45 212 -164c0 -91 -62 -157 -177 -172l-19 -44h9c52 0 86 -40 80 -92
c-8 -76 -75 -95 -139 -95c-14 0 -48 1 -70 10c-16 7 -20 15 -20 30l-1 36c0 12 5 22 21 14c17 -9 28 -13 53 -13c29 0 38 12 38 26s-9 20 -37 21h-20c-18 0 -22 8 -14 27l36 79c-102 8 -168 50 -195 118c-10 26 -3 41 24 50l61 20c26 9 37 5 49 -21c12 -25 39 -38 91 -38
c57 0 86 13 86 41c0 34 -28 41 -106 48c-105 10 -205 37 -205 164z" />
    <glyph glyph-name="scircumflex" unicode="&#x15d;" horiz-adv-x="510" 
d="M267 734c29 0 37 -2 65 -30l94 -94c14 -15 14 -30 -17 -30h-60c-31 0 -43 2 -58 20l-37 42l-40 -42c-18 -19 -26 -20 -57 -20h-55c-30 0 -30 15 -16 30l94 94c27 27 34 30 70 30h17zM31 368c0 98 72 167 215 167c120 0 187 -41 222 -107c14 -27 7 -41 -20 -53l-59 -25
c-28 -12 -35 -7 -51 16c-15 21 -36 38 -87 38c-54 0 -74 -12 -74 -36c0 -31 27 -39 97 -45c134 -13 212 -45 212 -164c0 -103 -79 -174 -225 -174c-123 0 -200 44 -230 119c-10 26 -3 41 24 50l61 20c26 9 37 5 49 -21c12 -25 39 -38 91 -38c57 0 86 13 86 41
c0 34 -28 41 -106 48c-105 10 -205 37 -205 164z" />
    <glyph glyph-name="scommaaccent" unicode="&#x219;" horiz-adv-x="510" 
d="M31 368c0 98 72 167 215 167c120 0 187 -41 222 -107c14 -27 7 -41 -20 -53l-59 -25c-28 -12 -35 -7 -51 16c-15 21 -36 38 -87 38c-54 0 -74 -12 -74 -36c0 -31 27 -39 97 -45c134 -13 212 -45 212 -164c0 -103 -79 -174 -225 -174c-123 0 -200 44 -230 119
c-10 26 -3 41 24 50l61 20c26 9 37 5 49 -21c12 -25 39 -38 91 -38c57 0 86 13 86 41c0 34 -28 41 -106 48c-105 10 -205 37 -205 164zM294 -189c-10 -27 -20 -33 -47 -33h-42c-24 0 -28 6 -26 27l12 111c4 33 15 43 47 43h61c35 0 42 -15 32 -43z" />
    <glyph glyph-name="germandbls" unicode="&#xdf;" horiz-adv-x="564" 
d="M51 528c0 130 79 222 225 222c154 0 232 -80 232 -206c0 -67 -20 -117 -69 -151v-4c56 -24 96 -71 96 -182c0 -134 -83 -207 -221 -207h-41c-30 0 -40 10 -40 41v67c0 30 10 41 40 41h22c49 0 75 27 75 78c0 50 -26 80 -75 80h-22c-30 0 -40 11 -40 41v63
c0 31 9 41 39 41h10c40 0 67 26 67 74c0 49 -27 76 -74 76s-73 -31 -73 -76v-485c0 -31 -10 -41 -41 -41h-69c-31 0 -41 10 -41 41v487z" />
    <glyph glyph-name="longs" unicode="&#x17f;" horiz-adv-x="316" 
d="M93 524c0 140 82 216 243 216c28 0 37 -9 37 -38v-58c0 -29 -9 -38 -37 -38c-67 0 -91 -35 -91 -91v-478c0 -28 -10 -37 -38 -37h-76c-28 0 -38 9 -38 37v349h-43c-27 0 -37 9 -37 37v60c0 28 10 37 37 37h43v4z" />
    <glyph glyph-name="t" unicode="t" horiz-adv-x="401" 
d="M214 640c27 0 36 -9 36 -37v-83h93c27 0 36 -9 36 -37v-60c0 -28 -9 -37 -36 -37h-93v-168c0 -78 25 -93 92 -93c28 0 37 -9 37 -38v-63c0 -29 -9 -37 -37 -38c-171 -5 -243 50 -243 226v174h-53c-28 0 -37 9 -37 37v60c0 28 9 37 37 37h53v83c0 28 10 37 37 37h78z" />
    <glyph glyph-name="tbar" unicode="&#x167;" horiz-adv-x="402" 
d="M215 641c27 0 36 -9 36 -37v-83h93c27 0 36 -9 36 -37v-60c0 -28 -9 -37 -36 -37h-93v-72h75c19 0 24 -6 24 -25v-45c0 -20 -5 -25 -24 -25h-75v-6c0 -77 26 -88 91 -88c29 0 38 -9 38 -38v-63c0 -29 -9 -37 -38 -38c-170 -5 -242 50 -242 225v8h-49c-19 0 -24 5 -24 25
v45c0 19 7 25 24 25h49v72h-54c-27 0 -36 9 -36 37v60c0 28 9 37 36 37h54v83c0 28 9 37 37 37h78z" />
    <glyph glyph-name="tcaron" unicode="&#x165;" horiz-adv-x="401" 
d="M396 588c-9 -25 -18 -33 -43 -33h-39c-21 0 -24 5 -23 25l8 121c2 31 13 39 44 39h65c33 0 42 -13 32 -39zM214 640c27 0 36 -9 36 -37v-83h93c27 0 36 -9 36 -37v-60c0 -28 -9 -37 -36 -37h-93v-168c0 -78 25 -93 92 -93c28 0 37 -9 37 -38v-63c0 -29 -9 -37 -37 -38
c-171 -5 -243 50 -243 226v174h-53c-28 0 -37 9 -37 37v60c0 28 9 37 37 37h53v83c0 28 10 37 37 37h78z" />
    <glyph glyph-name="uni021B" unicode="&#x21b;" horiz-adv-x="401" 
d="M214 640c27 0 36 -9 36 -37v-83h93c27 0 36 -9 36 -37v-60c0 -28 -9 -37 -36 -37h-93v-168c0 -78 25 -93 92 -93c28 0 37 -9 37 -38v-63c0 -29 -9 -37 -37 -38c-171 -5 -243 50 -243 226v174h-53c-28 0 -37 9 -37 37v60c0 28 9 37 37 37h53v83c0 28 10 37 37 37h78z
M257 -227c-8 -24 -17 -33 -42 -33h-50c-21 0 -26 7 -24 26l16 141c3 30 14 39 43 39l70 1c35 0 43 -15 34 -40z" />
    <glyph glyph-name="u" unicode="u" 
d="M470 520c27 0 36 -9 36 -37v-404c0 -33 -7 -45 -39 -58c-42 -17 -105 -36 -205 -36c-148 0 -216 76 -216 207v291c0 28 9 37 37 37h77c28 0 37 -9 37 -37v-286c0 -52 28 -75 85 -75c27 0 44 2 66 7c5 2 7 5 7 11v343c0 28 9 37 37 37h78z" />
    <glyph glyph-name="uacute" unicode="&#xfa;" 
d="M296 733c23 13 46 20 66 -2l36 -43c18 -21 19 -31 -5 -40l-175 -64c-22 -8 -35 -10 -45 3l-20 24c-15 19 -16 28 2 38zM470 520c27 0 36 -9 36 -37v-404c0 -33 -7 -45 -39 -58c-42 -17 -105 -36 -205 -36c-148 0 -216 76 -216 207v291c0 28 9 37 37 37h77
c28 0 37 -9 37 -37v-286c0 -52 28 -75 85 -75c27 0 44 2 66 7c5 2 7 5 7 11v343c0 28 9 37 37 37h78z" />
    <glyph glyph-name="ubreve" unicode="&#x16d;" 
d="M439 683c-24 -64 -84 -102 -163 -102c-78 0 -138 38 -161 102c-6 18 -2 26 16 33l52 20c21 7 29 5 37 -12c10 -24 30 -39 56 -39s46 15 57 39c8 17 14 19 32 13l58 -21c18 -8 23 -15 16 -33zM470 520c27 0 36 -9 36 -37v-404c0 -33 -7 -45 -39 -58
c-42 -17 -105 -36 -205 -36c-148 0 -216 76 -216 207v291c0 28 9 37 37 37h77c28 0 37 -9 37 -37v-286c0 -52 28 -75 85 -75c27 0 44 2 66 7c5 2 7 5 7 11v343c0 28 9 37 37 37h78z" />
    <glyph glyph-name="ucircumflex" unicode="&#xfb;" 
d="M290 739c30 0 38 -2 66 -31l96 -96c15 -16 14 -31 -16 -31h-62c-32 0 -44 2 -60 20l-38 44l-41 -43c-17 -20 -26 -21 -58 -21h-55c-31 0 -31 15 -17 31l96 96c27 28 35 31 71 31h18zM470 520c27 0 36 -9 36 -37v-404c0 -33 -7 -45 -39 -58c-42 -17 -105 -36 -205 -36
c-148 0 -216 76 -216 207v291c0 28 9 37 37 37h77c28 0 37 -9 37 -37v-286c0 -52 28 -75 85 -75c27 0 44 2 66 7c5 2 7 5 7 11v343c0 28 9 37 37 37h78z" />
    <glyph glyph-name="udieresis" unicode="&#xfc;" 
d="M176 723c49 0 65 -16 65 -64v-11c0 -47 -16 -63 -65 -63h-7c-49 0 -63 16 -63 63v11c0 48 14 64 63 64h7zM383 723c49 0 64 -16 64 -64v-11c0 -47 -15 -63 -64 -63h-7c-49 0 -65 16 -65 63v11c0 48 16 64 65 64h7zM470 520c27 0 36 -9 36 -37v-404c0 -33 -7 -45 -39 -58
c-42 -17 -105 -36 -205 -36c-148 0 -216 76 -216 207v291c0 28 9 37 37 37h77c28 0 37 -9 37 -37v-286c0 -52 28 -75 85 -75c27 0 44 2 66 7c5 2 7 5 7 11v343c0 28 9 37 37 37h78z" />
    <glyph glyph-name="ugrave" unicode="&#xf9;" 
d="M196 731c19 22 43 15 66 2l140 -84c18 -10 17 -19 2 -38l-20 -24c-10 -13 -23 -11 -45 -3l-175 64c-24 9 -23 19 -5 40zM470 520c27 0 36 -9 36 -37v-404c0 -33 -7 -45 -39 -58c-42 -17 -105 -36 -205 -36c-148 0 -216 76 -216 207v291c0 28 9 37 37 37h77
c28 0 37 -9 37 -37v-286c0 -52 28 -75 85 -75c27 0 44 2 66 7c5 2 7 5 7 11v343c0 28 9 37 37 37h78z" />
    <glyph glyph-name="uhungarumlaut" unicode="&#x171;" 
d="M180 712c15 22 33 32 62 24l48 -14c25 -8 29 -23 11 -41l-103 -88c-19 -16 -26 -21 -43 -15l-27 6c-24 7 -23 20 -12 37zM357 712c16 22 34 32 62 24l51 -16c26 -8 30 -24 11 -40l-114 -92c-18 -15 -26 -20 -42 -15l-27 7c-24 7 -24 21 -12 37zM470 520
c27 0 36 -9 36 -37v-404c0 -33 -7 -45 -39 -58c-42 -17 -105 -36 -205 -36c-148 0 -216 76 -216 207v291c0 28 9 37 37 37h77c28 0 37 -9 37 -37v-286c0 -52 28 -75 85 -75c27 0 44 2 66 7c5 2 7 5 7 11v343c0 28 9 37 37 37h78z" />
    <glyph glyph-name="umacron" unicode="&#x16b;" 
d="M393 706c28 0 35 -7 35 -34v-33c0 -28 -7 -35 -35 -35h-234c-27 0 -35 7 -35 35v33c0 27 11 34 35 34h234zM470 520c27 0 36 -9 36 -37v-404c0 -33 -7 -45 -39 -58c-42 -17 -105 -36 -205 -36c-148 0 -216 76 -216 207v291c0 28 9 37 37 37h77c28 0 37 -9 37 -37v-286
c0 -52 28 -75 85 -75c27 0 44 2 66 7c5 2 7 5 7 11v343c0 28 9 37 37 37h78z" />
    <glyph glyph-name="uogonek" unicode="&#x173;" horiz-adv-x="556" 
d="M470 520c27 0 36 -9 36 -37v-404c0 -19 -2 -30 -9 -39c-59 -81 -73 -144 -70 -164c3 -11 11 -18 21 -18c5 0 11 2 17 6c9 6 18 4 22 -6l18 -42c5 -12 5 -19 -3 -26c-25 -23 -64 -35 -101 -35c-46 0 -89 14 -98 65c-9 50 19 117 70 175c-31 -6 -67 -10 -111 -10
c-148 0 -216 76 -216 207v291c0 28 9 37 37 37h77c28 0 37 -9 37 -37v-286c0 -52 28 -75 85 -75c27 0 44 2 66 7c5 2 7 5 7 11v343c0 28 9 37 37 37h78z" />
    <glyph glyph-name="uring" unicode="&#x16f;" 
d="M158 650c0 67 49 112 118 112c67 0 115 -46 115 -112s-48 -111 -115 -111c-69 0 -118 44 -118 111zM316 650c0 24 -17 41 -40 41c-26 0 -44 -17 -44 -41s18 -41 44 -41c23 0 40 17 40 41zM470 520c27 0 36 -9 36 -37v-404c0 -33 -7 -45 -39 -58
c-42 -17 -105 -36 -205 -36c-148 0 -216 76 -216 207v291c0 28 9 37 37 37h77c28 0 37 -9 37 -37v-286c0 -52 28 -75 85 -75c27 0 44 2 66 7c5 2 7 5 7 11v343c0 28 9 37 37 37h78z" />
    <glyph glyph-name="utilde" unicode="&#x169;" 
d="M408 731c18 0 23 -7 23 -22c0 -90 -29 -119 -91 -119c-65 0 -88 50 -125 50c-10 0 -16 -7 -16 -28c0 -15 -6 -22 -21 -22h-45c-16 0 -22 8 -22 23c0 90 32 118 88 118c71 0 93 -50 129 -50c10 0 16 8 16 29c0 14 4 21 20 21h44zM470 520c27 0 36 -9 36 -37v-404
c0 -33 -7 -45 -39 -58c-42 -17 -105 -36 -205 -36c-148 0 -216 76 -216 207v291c0 28 9 37 37 37h77c28 0 37 -9 37 -37v-286c0 -52 28 -75 85 -75c27 0 44 2 66 7c5 2 7 5 7 11v343c0 28 9 37 37 37h78z" />
    <glyph glyph-name="v" unicode="v" horiz-adv-x="528" 
d="M485 520c36 0 44 -9 31 -43l-173 -444c-10 -26 -22 -33 -50 -33h-59c-28 0 -41 7 -51 33l-170 444c-13 34 -5 43 31 43h60c43 0 55 -7 64 -37l68 -195c18 -51 25 -118 25 -118h7s6 65 24 118l67 194c10 31 19 38 63 38h63z" />
    <glyph glyph-name="w" unicode="w" horiz-adv-x="748" 
d="M698 520c36 0 41 -9 31 -43l-125 -444c-7 -26 -22 -33 -50 -33h-57c-28 0 -44 7 -51 33l-53 199c-13 56 -17 120 -17 120h-6s-5 -65 -19 -120l-53 -199c-7 -26 -22 -33 -50 -33h-54c-27 0 -43 7 -50 33l-125 444c-10 34 -5 43 30 43h60c44 0 59 -6 65 -37l37 -172
c9 -48 14 -138 14 -138h6s6 87 19 138l47 171c8 32 16 38 61 38h37c44 0 53 -6 61 -37l48 -172c15 -56 19 -138 19 -138h7s1 77 14 138l35 171c7 32 20 38 65 38h54z" />
    <glyph glyph-name="wacute" unicode="&#x1e83;" horiz-adv-x="748" 
d="M396 733c23 13 47 20 66 -2l37 -43c17 -21 18 -31 -5 -40l-175 -64c-23 -8 -35 -10 -46 3l-19 24c-16 19 -16 28 2 38zM698 520c36 0 41 -9 31 -43l-125 -444c-7 -26 -22 -33 -50 -33h-57c-28 0 -44 7 -51 33l-53 199c-13 56 -17 120 -17 120h-6s-5 -65 -19 -120
l-53 -199c-7 -26 -22 -33 -50 -33h-54c-27 0 -43 7 -50 33l-125 444c-10 34 -5 43 30 43h60c44 0 59 -6 65 -37l37 -172c9 -48 14 -138 14 -138h6s6 87 19 138l47 171c8 32 16 38 61 38h37c44 0 53 -6 61 -37l48 -172c15 -56 19 -138 19 -138h7s1 77 14 138l35 171
c7 32 20 38 65 38h54z" />
    <glyph glyph-name="wcircumflex" unicode="&#x175;" horiz-adv-x="748" 
d="M390 734c29 0 37 -2 65 -30l94 -94c14 -15 13 -30 -17 -30h-60c-31 0 -43 2 -58 20l-38 42l-39 -42c-18 -19 -26 -20 -57 -20h-55c-30 0 -30 15 -16 30l94 94c27 27 34 30 69 30h18zM698 520c36 0 41 -9 31 -43l-125 -444c-7 -26 -22 -33 -50 -33h-57c-28 0 -44 7 -51 33
l-53 199c-13 56 -17 120 -17 120h-6s-5 -65 -19 -120l-53 -199c-7 -26 -22 -33 -50 -33h-54c-27 0 -43 7 -50 33l-125 444c-10 34 -5 43 30 43h60c44 0 59 -6 65 -37l37 -172c9 -48 14 -138 14 -138h6s6 87 19 138l47 171c8 32 16 38 61 38h37c44 0 53 -6 61 -37l48 -172
c15 -56 19 -138 19 -138h7s1 77 14 138l35 171c7 32 20 38 65 38h54z" />
    <glyph glyph-name="wdieresis" unicode="&#x1e85;" horiz-adv-x="748" 
d="M277 723c49 0 65 -16 65 -64v-11c0 -47 -16 -63 -65 -63h-7c-49 0 -64 16 -64 63v11c0 48 15 64 64 64h7zM484 723c48 0 63 -16 63 -64v-11c0 -47 -15 -63 -63 -63h-7c-49 0 -65 16 -65 63v11c0 48 16 64 65 64h7zM698 520c36 0 41 -9 31 -43l-125 -444
c-7 -26 -22 -33 -50 -33h-57c-28 0 -44 7 -51 33l-53 199c-13 56 -17 120 -17 120h-6s-5 -65 -19 -120l-53 -199c-7 -26 -22 -33 -50 -33h-54c-27 0 -43 7 -50 33l-125 444c-10 34 -5 43 30 43h60c44 0 59 -6 65 -37l37 -172c9 -48 14 -138 14 -138h6s6 87 19 138l47 171
c8 32 16 38 61 38h37c44 0 53 -6 61 -37l48 -172c15 -56 19 -138 19 -138h7s1 77 14 138l35 171c7 32 20 38 65 38h54z" />
    <glyph glyph-name="wgrave" unicode="&#x1e81;" horiz-adv-x="748" 
d="M296 731c19 22 43 15 66 2l141 -84c17 -10 17 -19 2 -38l-20 -24c-10 -13 -23 -11 -46 -3l-175 64c-23 9 -22 19 -5 40zM698 520c36 0 41 -9 31 -43l-125 -444c-7 -26 -22 -33 -50 -33h-57c-28 0 -44 7 -51 33l-53 199c-13 56 -17 120 -17 120h-6s-5 -65 -19 -120
l-53 -199c-7 -26 -22 -33 -50 -33h-54c-27 0 -43 7 -50 33l-125 444c-10 34 -5 43 30 43h60c44 0 59 -6 65 -37l37 -172c9 -48 14 -138 14 -138h6s6 87 19 138l47 171c8 32 16 38 61 38h37c44 0 53 -6 61 -37l48 -172c15 -56 19 -138 19 -138h7s1 77 14 138l35 171
c7 32 20 38 65 38h54z" />
    <glyph glyph-name="x" unicode="x" horiz-adv-x="527" 
d="M472 520c39 0 45 -15 26 -44l-141 -208l150 -224c21 -30 15 -44 -27 -44h-69c-40 0 -49 3 -67 32l-82 131l-78 -131c-17 -29 -28 -32 -67 -32h-68c-45 0 -48 14 -27 44l149 222l-143 210c-17 26 -15 44 28 44h67c41 0 52 -5 68 -32l74 -115l72 115c18 28 26 32 64 32h71z
" />
    <glyph glyph-name="y" unicode="y" horiz-adv-x="557" 
d="M470 520c27 0 36 -9 36 -37v-491c0 -131 -65 -222 -228 -222c-110 0 -177 34 -214 93c-18 27 -12 45 15 59l57 29c28 15 41 10 58 -13c17 -24 40 -38 81 -38c52 0 80 27 80 81v41c-26 -5 -57 -7 -93 -7c-148 0 -216 76 -216 207v261c0 28 9 37 37 37h77
c28 0 37 -9 37 -37v-256c0 -52 28 -75 85 -75c27 0 51 3 73 7v324c0 28 9 37 37 37h78z" />
    <glyph glyph-name="yacute" unicode="&#xfd;" horiz-adv-x="557" 
d="M296 733c23 13 46 20 66 -2l36 -43c18 -21 19 -31 -5 -40l-175 -64c-22 -8 -35 -10 -45 3l-20 24c-15 19 -16 28 2 38zM470 520c27 0 36 -9 36 -37v-491c0 -131 -65 -222 -228 -222c-110 0 -177 34 -214 93c-18 27 -12 45 15 59l57 29c28 15 41 10 58 -13
c17 -24 40 -38 81 -38c52 0 80 27 80 81v41c-26 -5 -57 -7 -93 -7c-148 0 -216 76 -216 207v261c0 28 9 37 37 37h77c28 0 37 -9 37 -37v-256c0 -52 28 -75 85 -75c27 0 51 3 73 7v324c0 28 9 37 37 37h78z" />
    <glyph glyph-name="ycircumflex" unicode="&#x177;" horiz-adv-x="557" 
d="M289 734c29 0 37 -2 65 -30l94 -94c14 -15 14 -30 -16 -30h-60c-32 0 -44 2 -59 20l-37 42l-40 -42c-17 -19 -26 -20 -57 -20h-54c-30 0 -31 15 -16 30l93 94c27 27 34 30 70 30h17zM470 520c27 0 36 -9 36 -37v-491c0 -131 -65 -222 -228 -222c-110 0 -177 34 -214 93
c-18 27 -12 45 15 59l57 29c28 15 41 10 58 -13c17 -24 40 -38 81 -38c52 0 80 27 80 81v41c-26 -5 -57 -7 -93 -7c-148 0 -216 76 -216 207v261c0 28 9 37 37 37h77c28 0 37 -9 37 -37v-256c0 -52 28 -75 85 -75c27 0 51 3 73 7v324c0 28 9 37 37 37h78z" />
    <glyph glyph-name="ydieresis" unicode="&#xff;" horiz-adv-x="557" 
d="M176 723c49 0 65 -16 65 -64v-11c0 -47 -16 -63 -65 -63h-7c-49 0 -63 16 -63 63v11c0 48 14 64 63 64h7zM383 723c49 0 64 -16 64 -64v-11c0 -47 -15 -63 -64 -63h-7c-49 0 -65 16 -65 63v11c0 48 16 64 65 64h7zM470 520c27 0 36 -9 36 -37v-491
c0 -131 -65 -222 -228 -222c-110 0 -177 34 -214 93c-18 27 -12 45 15 59l57 29c28 15 41 10 58 -13c17 -24 40 -38 81 -38c52 0 80 27 80 81v41c-26 -5 -57 -7 -93 -7c-148 0 -216 76 -216 207v261c0 28 9 37 37 37h77c28 0 37 -9 37 -37v-256c0 -52 28 -75 85 -75
c27 0 51 3 73 7v324c0 28 9 37 37 37h78z" />
    <glyph glyph-name="ygrave" unicode="&#x1ef3;" horiz-adv-x="557" 
d="M196 731c19 22 43 15 66 2l140 -84c18 -10 17 -19 2 -38l-20 -24c-10 -13 -23 -11 -45 -3l-175 64c-24 9 -23 19 -5 40zM470 520c27 0 36 -9 36 -37v-491c0 -131 -65 -222 -228 -222c-110 0 -177 34 -214 93c-18 27 -12 45 15 59l57 29c28 15 41 10 58 -13
c17 -24 40 -38 81 -38c52 0 80 27 80 81v41c-26 -5 -57 -7 -93 -7c-148 0 -216 76 -216 207v261c0 28 9 37 37 37h77c28 0 37 -9 37 -37v-256c0 -52 28 -75 85 -75c27 0 51 3 73 7v324c0 28 9 37 37 37h78z" />
    <glyph glyph-name="z" unicode="z" horiz-adv-x="483" 
d="M417 134c28 0 37 -10 37 -37v-60c0 -28 -9 -37 -37 -37h-352c-27 0 -36 9 -36 37v59c0 19 2 25 12 37l213 253h-184c-27 0 -36 10 -36 37v60c0 28 9 37 36 37h342c28 0 37 -9 37 -37v-59c0 -18 -4 -26 -15 -40l-216 -250h199z" />
    <glyph glyph-name="zacute" unicode="&#x17a;" horiz-adv-x="483" 
d="M261 733c23 13 46 20 66 -2l37 -43c17 -21 18 -31 -5 -40l-176 -64c-22 -8 -35 -10 -45 3l-20 24c-15 19 -16 28 2 38zM417 134c28 0 37 -10 37 -37v-60c0 -28 -9 -37 -37 -37h-352c-27 0 -36 9 -36 37v59c0 19 2 25 12 37l213 253h-184c-27 0 -36 10 -36 37v60
c0 28 9 37 36 37h342c28 0 37 -9 37 -37v-59c0 -18 -4 -26 -15 -40l-216 -250h199z" />
    <glyph glyph-name="zcaron" unicode="&#x17e;" horiz-adv-x="483" 
d="M381 716c28 0 27 -13 14 -27l-85 -88c-26 -26 -33 -28 -61 -28h-16c-32 0 -39 2 -63 28l-86 88c-13 14 -14 27 13 27h53c30 0 37 -1 53 -18l37 -39l34 39c15 16 25 18 54 18h53zM417 134c28 0 37 -10 37 -37v-60c0 -28 -9 -37 -37 -37h-352c-27 0 -36 9 -36 37v59
c0 19 2 25 12 37l213 253h-184c-27 0 -36 10 -36 37v60c0 28 9 37 36 37h342c28 0 37 -9 37 -37v-59c0 -18 -4 -26 -15 -40l-216 -250h199z" />
    <glyph glyph-name="zdotaccent" unicode="&#x17c;" horiz-adv-x="483" 
d="M244 726c51 0 66 -15 66 -66v-8c0 -51 -15 -66 -66 -66h-6c-51 0 -66 15 -66 66v8c0 51 15 66 66 66h6zM417 134c28 0 37 -10 37 -37v-60c0 -28 -9 -37 -37 -37h-352c-27 0 -36 9 -36 37v59c0 19 2 25 12 37l213 253h-184c-27 0 -36 10 -36 37v60c0 28 9 37 36 37h342
c28 0 37 -9 37 -37v-59c0 -18 -4 -26 -15 -40l-216 -250h199z" />
    <glyph glyph-name="ordfeminine" unicode="&#xaa;" horiz-adv-x="355" 
d="M52 618c27 36 74 53 126 53c100 0 132 -52 132 -125v-129c0 -29 -7 -38 -32 -48c-21 -9 -56 -15 -102 -15c-108 0 -136 38 -136 95c0 60 31 96 138 96c7 0 14 0 22 -1v13c0 19 -7 25 -26 25c-16 0 -25 -9 -35 -17c-11 -10 -20 -14 -39 -6l-31 15c-26 13 -32 24 -17 44z
M200 470c-10 1 -18 1 -28 1c-18 0 -24 -6 -24 -18c0 -15 6 -19 24 -19c16 0 26 2 26 2c2 0 2 0 2 2v32z" />
    <glyph glyph-name="ordmasculine" unicode="&#xba;" horiz-adv-x="358" 
d="M39 546c0 77 49 125 140 125c92 0 140 -48 140 -125v-67c0 -77 -48 -124 -140 -124c-91 0 -140 47 -140 124v67zM207 550c0 13 -10 22 -28 22s-27 -9 -27 -22v-74c0 -13 9 -22 27 -22s28 9 28 22v74z" />
    <glyph glyph-name="uni0410" unicode="&#x410;" horiz-adv-x="672" 
d="M663 40c10 -27 2 -40 -27 -40h-75c-50 0 -65 8 -74 37l-31 94h-247l-32 -94c-10 -29 -23 -37 -73 -37h-69c-30 0 -37 13 -27 40l239 636c10 28 22 34 50 34h77c28 0 41 -6 50 -32zM362 418c-23 72 -25 143 -25 143h-10s1 -71 -23 -142l-52 -156h162z" />
    <glyph glyph-name="uni0411" unicode="&#x411;" horiz-adv-x="638" 
d="M525 710c30 0 41 -10 41 -41v-63c0 -30 -11 -41 -41 -41h-301v-116h162c138 0 228 -85 228 -225c0 -138 -90 -224 -228 -224h-285c-28 0 -40 9 -40 39v630c0 31 11 41 41 41h423zM446 224c0 48 -30 80 -83 80h-139v-159h139c53 0 83 32 83 79z" />
    <glyph glyph-name="uni0412" unicode="&#x412;" horiz-adv-x="655" 
d="M383 710c133 0 213 -68 213 -189c0 -68 -20 -114 -69 -148v-4c61 -26 96 -84 96 -172c0 -127 -100 -197 -236 -197h-285c-30 0 -41 10 -41 41v628c0 31 11 41 41 41h281zM431 498c0 46 -26 68 -73 68h-134v-136h134c47 0 73 21 73 68zM452 216c0 48 -25 73 -75 73h-153
v-145h153c50 0 75 23 75 72z" />
    <glyph glyph-name="uni0413" unicode="&#x413;" horiz-adv-x="525" 
d="M472 710c30 0 40 -10 40 -41v-67c0 -30 -10 -40 -40 -40h-248v-521c0 -31 -11 -41 -41 -41h-81c-30 0 -41 10 -41 41v628c0 31 11 41 41 41h370z" />
    <glyph glyph-name="uni0414" unicode="&#x414;" horiz-adv-x="762" 
d="M616 710c30 0 40 -10 40 -41v-520h48c31 0 41 -11 41 -41v-220c0 -31 -10 -41 -41 -41h-78c-30 0 -40 10 -40 41v112h-408v-112c0 -31 -10 -41 -40 -41h-78c-31 0 -41 10 -41 41v220c0 30 10 41 41 41h19c45 32 85 97 85 306v214c0 31 10 41 41 41h411zM321 561v-105
c0 -153 -21 -246 -54 -307h227v412h-173z" />
    <glyph glyph-name="uni0415" unicode="&#x415;" horiz-adv-x="584" 
d="M504 710c31 0 41 -10 41 -41v-67c0 -30 -10 -40 -41 -40h-280v-129h230c31 0 41 -10 41 -40v-67c0 -31 -10 -41 -41 -41h-230v-136h290c30 0 41 -11 41 -41v-67c0 -31 -11 -41 -41 -41h-412c-30 0 -41 10 -41 41v628c0 31 11 41 41 41h402z" />
    <glyph glyph-name="uni0401" unicode="&#x401;" horiz-adv-x="584" 
d="M204 896c49 0 65 -16 65 -64v-11c0 -47 -16 -63 -65 -63h-7c-49 0 -64 16 -64 63v11c0 48 15 64 64 64h7zM411 896c49 0 63 -16 63 -64v-11c0 -47 -14 -63 -63 -63h-7c-49 0 -65 16 -65 63v11c0 48 16 64 65 64h7zM504 710c31 0 41 -10 41 -41v-67c0 -30 -10 -40 -41 -40
h-280v-129h230c31 0 41 -10 41 -40v-67c0 -31 -10 -41 -41 -41h-230v-136h290c30 0 41 -11 41 -41v-67c0 -31 -11 -41 -41 -41h-412c-30 0 -41 10 -41 41v628c0 31 11 41 41 41h402z" />
    <glyph glyph-name="uni0416" unicode="&#x416;" horiz-adv-x="959" 
d="M911 710c28 0 35 -19 20 -40l-183 -292c27 -22 48 -52 68 -91l127 -244c12 -24 8 -43 -22 -43h-80c-51 0 -68 6 -82 37l-92 192c-22 45 -40 58 -97 58h-9v-246c0 -31 -10 -41 -41 -41h-81c-30 0 -41 10 -41 41v246h-9c-57 0 -75 -13 -97 -58l-91 -192
c-15 -31 -32 -37 -83 -37h-80c-30 0 -34 19 -22 43l127 244c20 39 41 69 68 91l-183 292c-13 22 -8 40 20 40h88c48 0 61 -3 80 -34l145 -244c11 1 19 1 28 1h9v236c0 31 11 41 41 41h81c31 0 41 -10 41 -41v-236h9c10 0 19 0 28 -1l146 244c18 31 31 34 80 34h87z" />
    <glyph glyph-name="uni0417" unicode="&#x417;" horiz-adv-x="644" 
d="M587 518c0 -69 -25 -116 -77 -147c82 -38 100 -101 100 -170c0 -134 -85 -216 -272 -216c-168 0 -270 60 -309 168c-10 28 -3 42 25 52l75 27c28 10 40 4 51 -26c19 -49 62 -74 153 -74c77 0 105 29 105 78c0 51 -25 78 -77 78h-118c-30 0 -40 10 -40 40v62
c0 31 10 41 40 41h101c49 0 77 23 77 73s-31 74 -96 74c-83 0 -120 -25 -140 -74c-11 -30 -22 -34 -52 -26l-74 27c-28 10 -35 24 -25 52c39 108 135 168 303 168c164 0 250 -74 250 -207z" />
    <glyph glyph-name="uni0418" unicode="&#x418;" horiz-adv-x="703" 
d="M601 710c30 0 41 -10 41 -41v-628c0 -31 -11 -41 -41 -41h-81c-30 0 -41 10 -41 41v227c0 116 9 144 32 242h-6c-31 -87 -45 -118 -96 -199l-183 -292c-8 -14 -19 -19 -39 -19h-85c-30 0 -41 10 -41 41v628c0 31 11 41 41 41h81c30 0 41 -10 41 -41v-227
c0 -114 -7 -145 -32 -242h6c31 87 48 123 98 204l181 287c8 13 18 19 39 19h85z" />
    <glyph glyph-name="uni0419" unicode="&#x419;" horiz-adv-x="703" 
d="M540 861c-27 -67 -95 -107 -185 -107c-89 0 -157 40 -183 107c-8 20 -3 28 18 36l59 21c24 7 33 5 42 -13c11 -26 34 -41 64 -41c29 0 52 15 65 41c8 18 16 20 35 14l67 -22c20 -8 25 -16 18 -36zM601 710c30 0 41 -10 41 -41v-628c0 -31 -11 -41 -41 -41h-81
c-30 0 -41 10 -41 41v227c0 116 9 144 32 242h-6c-31 -87 -45 -118 -96 -199l-183 -292c-8 -14 -19 -19 -39 -19h-85c-30 0 -41 10 -41 41v628c0 31 11 41 41 41h81c30 0 41 -10 41 -41v-227c0 -114 -7 -145 -32 -242h6c31 87 48 123 98 204l181 287c8 13 18 19 39 19h85z
" />
    <glyph glyph-name="uni041A" unicode="&#x41a;" horiz-adv-x="641" 
d="M625 43c13 -24 9 -43 -22 -43h-80c-51 0 -67 6 -82 37l-94 190c-22 46 -40 60 -97 60h-26v-246c0 -31 -11 -41 -41 -41h-81c-30 0 -41 10 -41 41v628c0 31 11 41 41 41h81c30 0 41 -10 41 -41v-236h16h9l177 243c21 29 32 34 80 34h87c28 0 36 -19 20 -40l-207 -278
c38 -22 65 -56 91 -105z" />
    <glyph glyph-name="uni041B" unicode="&#x41b;" horiz-adv-x="688" 
d="M585 710c31 0 41 -10 41 -41v-628c0 -31 -10 -41 -41 -41h-80c-31 0 -41 10 -41 41v520h-163v-105c0 -328 -95 -413 -200 -464c-28 -13 -42 -8 -54 20l-39 71c-13 27 -8 41 20 55c50 26 114 71 114 317v214c0 31 10 41 41 41h402z" />
    <glyph glyph-name="uni041C" unicode="&#x41c;" horiz-adv-x="818" 
d="M716 710c31 0 41 -10 41 -40v-630c0 -30 -10 -40 -41 -40h-75c-30 0 -40 10 -40 40v227c0 61 8 127 33 225h-9c-21 -68 -49 -132 -79 -186l-71 -127c-11 -21 -20 -29 -45 -29h-46c-25 0 -34 6 -46 29l-72 127c-32 54 -54 113 -74 186h-9c24 -102 30 -159 30 -226v-226
c0 -30 -10 -40 -40 -40h-71c-30 0 -41 10 -41 40v630c0 30 11 40 41 40h65c33 0 43 -6 57 -30l183 -338l184 337c15 26 23 31 54 31h71z" />
    <glyph glyph-name="uni041D" unicode="&#x41d;" horiz-adv-x="689" 
d="M587 710c30 0 40 -10 40 -41v-628c0 -31 -10 -41 -40 -41h-81c-31 0 -41 10 -41 41v244h-241v-244c0 -31 -11 -41 -41 -41h-81c-30 0 -41 10 -41 41v628c0 31 11 41 41 41h81c30 0 41 -10 41 -41v-235h241v235c0 31 10 41 41 41h81z" />
    <glyph glyph-name="uni041E" unicode="&#x41e;" horiz-adv-x="675" 
d="M42 456c0 166 106 269 295 269c190 0 296 -103 296 -269v-202c0 -166 -106 -269 -296 -269c-189 0 -295 103 -295 269v202zM470 459c0 78 -48 117 -133 117c-84 0 -132 -39 -132 -117v-208c0 -78 48 -117 132 -117c85 0 133 39 133 117v208z" />
    <glyph glyph-name="uni041F" unicode="&#x41f;" horiz-adv-x="684" 
d="M582 710c30 0 40 -10 40 -41v-628c0 -31 -10 -41 -40 -41h-81c-31 0 -41 10 -41 41v521h-236v-521c0 -31 -11 -41 -41 -41h-81c-30 0 -41 10 -41 41v628c0 31 11 41 41 41h480z" />
    <glyph glyph-name="uni0420" unicode="&#x420;" horiz-adv-x="639" 
d="M370 710c149 0 245 -90 245 -240s-94 -239 -245 -239h-146v-190c0 -31 -11 -41 -41 -41h-81c-30 0 -41 10 -41 41v628c0 31 11 41 41 41h268zM353 380c58 0 93 33 93 90s-34 92 -93 92h-129v-182h129z" />
    <glyph glyph-name="uni0421" unicode="&#x421;" horiz-adv-x="644" 
d="M42 456c0 166 106 269 295 269c148 0 241 -60 280 -168c11 -28 3 -42 -25 -52l-77 -27c-30 -9 -41 -4 -52 25c-19 49 -59 73 -126 73c-87 0 -132 -40 -132 -119v-204c0 -79 45 -119 132 -119c67 0 107 24 126 73c11 29 24 36 52 25l77 -27c28 -10 36 -24 25 -52
c-39 -108 -132 -168 -280 -168c-189 0 -295 103 -295 269v202z" />
    <glyph glyph-name="uni0422" unicode="&#x422;" horiz-adv-x="583" 
d="M529 710c31 0 41 -10 41 -41v-67c0 -30 -10 -40 -41 -40h-156v-521c0 -31 -10 -41 -41 -41h-81c-30 0 -40 10 -40 41v521h-157c-31 0 -41 10 -41 40v67c0 31 10 41 41 41h475z" />
    <glyph glyph-name="uni0423" unicode="&#x423;" horiz-adv-x="624" 
d="M593 710c29 0 31 -16 20 -41l-279 -633c-13 -30 -23 -36 -66 -36h-94c-29 0 -31 17 -20 41l81 169l-229 459c-12 25 -8 41 21 41h84c47 0 62 -1 78 -36l131 -277l119 277c14 35 25 36 71 36h83z" />
    <glyph glyph-name="uni0424" unicode="&#x424;" horiz-adv-x="846" 
d="M463 735c31 0 41 -10 41 -41v-44h43c179 0 274 -97 274 -258v-70c0 -160 -95 -257 -274 -257h-43v-44c0 -31 -10 -41 -41 -41h-80c-31 0 -41 10 -41 41v44h-43c-179 0 -275 97 -275 257v70c0 161 96 258 275 258h43v44c0 31 10 41 41 41h80zM302 507
c-75 0 -113 -36 -113 -108v-83c0 -72 38 -108 113 -108h40v299h-40zM657 399c0 72 -38 108 -113 108h-40v-299h40c75 0 113 36 113 108v83z" />
    <glyph glyph-name="uni0425" unicode="&#x425;" horiz-adv-x="652" 
d="M637 41c16 -21 9 -41 -20 -41h-96c-49 0 -60 2 -80 36l-121 198l-114 -198c-21 -32 -30 -36 -80 -36h-90c-29 0 -35 19 -20 41l209 321l-200 309c-15 20 -8 39 19 39h92c48 0 58 -5 79 -34l112 -185l111 185c21 31 31 34 74 34h96c27 0 34 -19 19 -39l-202 -308z" />
    <glyph glyph-name="uni0427" unicode="&#x427;" horiz-adv-x="650" 
d="M548 710c31 0 41 -10 41 -41v-628c0 -31 -10 -41 -41 -41h-81c-30 0 -40 10 -40 41v216c-20 -3 -63 -9 -126 -9c-191 0 -268 91 -268 255v166c0 31 10 41 41 41h80c31 0 41 -10 41 -41v-166c0 -67 39 -104 120 -104c58 0 96 8 112 12v258c0 31 10 41 40 41h81z" />
    <glyph glyph-name="uni0426" unicode="&#x426;" horiz-adv-x="721" 
d="M662 149c30 0 41 -11 41 -41v-220c0 -31 -11 -41 -41 -41h-74c-30 0 -40 10 -40 41v112h-446c-30 0 -41 10 -41 41v628c0 31 11 41 41 41h81c30 0 41 -10 41 -41v-520h232v520c0 31 10 41 41 41h80c31 0 41 -10 41 -41v-520h44z" />
    <glyph glyph-name="uni0428" unicode="&#x428;" horiz-adv-x="938" 
d="M836 710c31 0 41 -10 41 -41v-628c0 -31 -10 -41 -41 -41h-734c-30 0 -41 10 -41 41v628c0 31 11 41 41 41h81c30 0 41 -10 41 -41v-520h164v520c0 31 10 41 41 41h81c30 0 40 -10 40 -41v-520h165v520c0 31 10 41 40 41h81z" />
    <glyph glyph-name="uni0429" unicode="&#x429;" horiz-adv-x="980" 
d="M921 149c30 0 40 -11 40 -41v-221c0 -30 -10 -40 -40 -40h-74c-30 0 -41 10 -41 40v113h-704c-30 0 -41 10 -41 41v628c0 31 11 41 41 41h81c30 0 41 -10 41 -41v-520h164v520c0 31 10 41 41 41h81c30 0 40 -10 40 -41v-520h165v520c0 31 10 41 40 41h81
c31 0 41 -10 41 -41v-520h44z" />
    <glyph glyph-name="uni042F" unicode="&#x42f;" horiz-adv-x="655" 
d="M39 480c0 145 91 230 236 230h277c31 0 41 -10 41 -41v-628c0 -31 -10 -41 -41 -41h-80c-31 0 -41 10 -41 41v211h-45c-60 0 -79 -11 -100 -59l-66 -156c-14 -32 -32 -37 -83 -37h-80c-30 0 -34 18 -22 43l95 197c7 13 14 25 21 37c-71 35 -112 105 -112 203zM292 562
c-54 0 -83 -30 -83 -82s29 -81 83 -81h139v163h-139z" />
    <glyph glyph-name="uni042C" unicode="&#x42c;" horiz-adv-x="639" 
d="M102 0c-30 0 -41 10 -41 41v628c0 31 11 41 41 41h81c30 0 41 -10 41 -41v-190h146c151 0 245 -89 245 -239s-96 -240 -245 -240h-268zM224 330v-182h129c59 0 93 35 93 92s-35 90 -93 90h-129z" />
    <glyph glyph-name="uni042A" unicode="&#x42a;" horiz-adv-x="759" 
d="M490 479c151 0 245 -89 245 -239s-96 -240 -245 -240h-268c-30 0 -41 10 -41 41v520h-126c-31 0 -41 11 -41 41v67c0 31 10 41 41 41h248c31 0 41 -10 41 -41v-190h146zM473 148c59 0 93 35 93 92s-34 90 -93 90h-129v-182h129z" />
    <glyph glyph-name="uni042B" unicode="&#x42b;" horiz-adv-x="928" 
d="M102 0c-30 0 -41 10 -41 41v628c0 31 11 41 41 41h81c30 0 41 -10 41 -41v-190h146c151 0 245 -89 245 -239s-96 -240 -245 -240h-268zM704 670c0 30 10 40 40 40h82c30 0 40 -10 40 -40v-630c0 -30 -10 -40 -40 -40h-82c-30 0 -40 10 -40 40v630zM224 330v-182h129
c59 0 93 35 93 92s-35 90 -93 90h-129z" />
    <glyph glyph-name="uni042D" unicode="&#x42d;" horiz-adv-x="649" 
d="M31 557c40 108 133 168 280 168c190 0 295 -103 295 -269v-202c0 -166 -105 -269 -295 -269c-147 0 -240 60 -280 168c-10 28 -3 42 26 52l74 27c29 10 41 4 52 -26c19 -49 62 -74 128 -74c86 0 133 41 133 117v37h-204c-30 0 -41 10 -41 41v65c0 31 11 41 41 41h204v29
c0 76 -48 116 -133 116c-66 0 -109 -25 -128 -74c-11 -30 -23 -34 -52 -26l-74 27c-29 10 -36 24 -26 52z" />
    <glyph glyph-name="uni042E" unicode="&#x42e;" horiz-adv-x="953" 
d="M337 463c0 162 103 262 286 262c186 0 287 -103 287 -269v-202c0 -166 -101 -269 -287 -269c-183 0 -287 101 -287 264v36h-112v-244c0 -31 -11 -41 -41 -41h-81c-30 0 -41 10 -41 41v628c0 31 11 41 41 41h81c30 0 41 -10 41 -41v-235h113v29zM748 460
c0 77 -44 116 -125 116c-80 0 -125 -39 -125 -116v-210c0 -77 45 -116 125 -116c81 0 125 39 125 116v210z" />
    <glyph glyph-name="uni0430" unicode="&#x430;" horiz-adv-x="524" 
d="M45 431c35 66 106 104 214 104c169 0 223 -88 223 -211v-254c0 -36 -8 -46 -37 -58c-38 -17 -103 -27 -189 -27c-182 0 -229 58 -229 165c0 125 69 164 233 164c26 0 55 -1 71 -2v22c0 49 -22 74 -77 74c-40 0 -65 -13 -83 -37c-16 -22 -24 -27 -51 -16l-55 23
c-26 11 -34 25 -20 53zM331 197c-19 0 -57 2 -84 2c-57 0 -69 -21 -69 -48c0 -29 11 -49 67 -49c42 0 66 2 79 4c4 1 7 2 7 7v84z" />
    <glyph glyph-name="uni0431" unicode="&#x431;" horiz-adv-x="557" 
d="M357 729c30 0 57 5 70 11c28 14 41 5 52 -24l19 -54c9 -29 2 -39 -23 -53c-30 -15 -58 -16 -112 -16h-35c-107 0 -139 -32 -139 -123v-11c15 19 49 46 124 46c129 0 210 -80 210 -211v-99c0 -131 -81 -210 -239 -210c-156 0 -238 79 -238 210v222c0 213 72 312 281 312
h30zM371 296c0 49 -29 75 -87 75c-57 0 -86 -26 -86 -75v-102c0 -48 29 -75 86 -75c58 0 87 27 87 75v102z" />
    <glyph glyph-name="uni0432" unicode="&#x432;" horiz-adv-x="538" 
d="M489 373c0 -43 -15 -78 -42 -102c40 -26 63 -68 63 -122c0 -90 -65 -149 -167 -149h-256c-28 0 -37 9 -37 37v446c0 28 9 37 37 37h242c103 0 160 -60 160 -147zM297 321c28 0 42 17 42 40c0 25 -14 41 -42 41h-97v-81h97zM307 118c30 0 47 18 47 46c0 26 -17 44 -47 44
h-107v-90h107z" />
    <glyph glyph-name="uni0433" unicode="&#x433;" horiz-adv-x="432" 
d="M384 520c28 0 37 -9 37 -37v-64c0 -27 -9 -36 -37 -36h-183v-346c0 -28 -9 -37 -36 -37h-78c-28 0 -37 9 -37 37v446c0 28 9 37 37 37h297z" />
    <glyph glyph-name="uni0434" unicode="&#x434;" horiz-adv-x="635" 
d="M583 134c28 0 37 -9 37 -38v-198c0 -28 -9 -37 -37 -37h-72c-28 0 -38 9 -38 37v99h-303v-99c0 -28 -10 -37 -38 -37h-73c-27 0 -36 9 -36 37v198c0 29 9 38 36 38h18c26 22 54 66 54 200v149c0 28 9 37 36 37h340c27 0 36 -9 36 -37v-349h40zM276 327
c0 -90 -13 -151 -32 -193h148v249h-116v-56z" />
    <glyph glyph-name="uni0435" unicode="&#x435;" horiz-adv-x="543" 
d="M34 313c0 144 85 222 240 222c166 0 241 -96 241 -211v-61c0 -30 -13 -50 -52 -50h-278v-25c0 -54 34 -79 90 -79c47 0 77 16 95 40c17 23 29 28 58 13l49 -25c28 -14 32 -32 16 -59c-37 -59 -106 -93 -220 -93c-172 0 -239 96 -239 222v106zM363 338c0 50 -30 77 -89 77
c-58 0 -89 -27 -89 -77v-16h178v16z" />
    <glyph glyph-name="uni0451" unicode="&#x451;" horiz-adv-x="543" 
d="M174 723c49 0 65 -16 65 -64v-11c0 -47 -16 -63 -65 -63h-7c-49 0 -63 16 -63 63v11c0 48 14 64 63 64h7zM381 723c49 0 64 -16 64 -64v-11c0 -47 -15 -63 -64 -63h-7c-49 0 -65 16 -65 63v11c0 48 16 64 65 64h7zM34 313c0 144 85 222 240 222c166 0 241 -96 241 -211
v-61c0 -30 -13 -50 -52 -50h-278v-25c0 -54 34 -79 90 -79c47 0 77 16 95 40c17 23 29 28 58 13l49 -25c28 -14 32 -32 16 -59c-37 -59 -106 -93 -220 -93c-172 0 -239 96 -239 222v106zM363 338c0 50 -30 77 -89 77c-58 0 -89 -27 -89 -77v-16h178v16z" />
    <glyph glyph-name="uni0436" unicode="&#x436;" horiz-adv-x="765" 
d="M420 520c29 0 38 -9 38 -38v-151h13h8l91 159c15 27 30 30 71 30h67c37 0 43 -15 25 -44l-120 -192c16 -15 30 -35 44 -63l85 -176c16 -32 12 -45 -25 -45h-69c-43 0 -54 5 -66 34l-51 123c-12 28 -29 39 -62 40h-11v-159c0 -29 -9 -38 -38 -38h-75c-29 0 -38 9 -38 38
v159h-11c-32 0 -50 -12 -61 -40l-51 -123c-13 -29 -24 -34 -66 -34h-69c-37 0 -42 13 -26 45l85 176c15 28 28 48 45 63l-121 192c-19 30 -10 44 25 44h68c41 0 55 -3 70 -30l92 -159h8h12v151c0 29 9 38 38 38h75z" />
    <glyph glyph-name="uni0437" unicode="&#x437;" horiz-adv-x="519" 
d="M31 403c26 74 105 132 231 132c161 0 215 -68 215 -161c0 -37 -11 -84 -54 -103v-6c51 -24 66 -67 66 -120c0 -91 -52 -160 -223 -160c-128 0 -208 49 -243 132c-12 30 -3 45 25 53l59 18c30 10 41 3 52 -23c13 -31 43 -53 104 -53s74 20 74 49c0 25 -15 42 -46 42h-83
c-26 0 -35 9 -35 36v45c0 27 9 36 35 36h75c29 0 47 14 47 39c0 31 -13 50 -67 50c-53 0 -84 -23 -97 -54c-10 -26 -21 -33 -51 -24l-58 19c-28 9 -36 23 -26 53z" />
    <glyph glyph-name="uni0438" unicode="&#x438;" horiz-adv-x="563" 
d="M165 520c27 0 36 -9 36 -37v-129c0 -59 -8 -101 -25 -162h4c19 52 35 78 56 113l125 195c9 14 20 20 37 20h78c27 0 37 -9 37 -37v-446c0 -28 -10 -37 -37 -37h-78c-27 0 -37 9 -37 37v128c0 70 12 109 27 162h-5c-17 -45 -33 -74 -58 -115l-123 -192
c-10 -15 -20 -20 -37 -20h-78c-28 0 -37 9 -37 37v446c0 28 9 37 37 37h78z" />
    <glyph glyph-name="uni0439" unicode="&#x439;" horiz-adv-x="563" 
d="M451 683c-23 -64 -83 -102 -163 -102c-78 0 -138 38 -161 102c-6 18 -2 26 16 33l52 21c21 6 29 4 37 -12c10 -25 30 -40 56 -40s46 15 57 40c8 16 15 18 32 12l58 -21c18 -7 23 -15 16 -33zM165 520c27 0 36 -9 36 -37v-129c0 -59 -8 -101 -25 -162h4
c19 52 35 78 56 113l125 195c9 14 20 20 37 20h78c27 0 37 -9 37 -37v-446c0 -28 -10 -37 -37 -37h-78c-27 0 -37 9 -37 37v128c0 70 12 109 27 162h-5c-17 -45 -33 -74 -58 -115l-123 -192c-10 -15 -20 -20 -37 -20h-78c-28 0 -37 9 -37 37v446c0 28 9 37 37 37h78z" />
    <glyph glyph-name="uni043A" unicode="&#x43a;" horiz-adv-x="535" 
d="M513 45c17 -32 12 -45 -25 -45h-69c-43 0 -53 5 -66 34l-53 123c-12 28 -30 40 -63 40h-36v-159c0 -29 -9 -38 -38 -38h-75c-29 0 -38 9 -38 38v444c0 29 9 38 38 38h75c29 0 38 -9 38 -38v-151h20h8l112 159c18 28 30 30 71 30h67c37 0 46 -16 26 -44l-134 -183
c22 -15 39 -38 56 -72z" />
    <glyph glyph-name="uni043B" unicode="&#x43b;" horiz-adv-x="550" 
d="M463 520c28 0 37 -9 37 -37v-446c0 -28 -9 -37 -37 -37h-77c-28 0 -37 9 -37 37v346h-107v-54c0 -249 -82 -305 -155 -340c-21 -9 -34 -2 -45 19l-38 71c-10 20 -5 32 15 42c35 20 79 44 79 224v138c0 28 9 37 37 37h328z" />
    <glyph glyph-name="uni043C" unicode="&#x43c;" horiz-adv-x="650" 
d="M560 520c32 0 40 -10 40 -40v-443c0 -29 -10 -37 -37 -37h-66c-29 0 -37 8 -37 37v123c0 43 9 97 27 166h-5c-14 -45 -28 -77 -48 -111l-48 -83c-12 -22 -19 -27 -44 -27h-37c-23 0 -33 4 -45 27l-47 83c-21 35 -32 64 -47 111h-5c17 -72 27 -124 27 -167v-122
c0 -28 -10 -37 -38 -37h-63c-30 0 -37 7 -37 37v443c0 30 8 40 41 40h59c29 0 40 -6 53 -30l121 -222l121 221c12 23 22 31 51 31h64z" />
    <glyph glyph-name="uni043D" unicode="&#x43d;" horiz-adv-x="557" 
d="M471 520c27 0 36 -9 36 -37v-446c0 -28 -9 -37 -36 -37h-78c-28 0 -37 9 -37 37v158h-155v-158c0 -28 -9 -37 -36 -37h-78c-28 0 -37 9 -37 37v446c0 28 9 37 37 37h78c27 0 36 -9 36 -37v-150h155v150c0 28 9 37 37 37h78z" />
    <glyph glyph-name="uni043E" unicode="&#x43e;" horiz-adv-x="547" 
d="M35 324c0 131 82 211 238 211c158 0 239 -80 239 -211v-129c0 -131 -81 -210 -239 -210c-156 0 -238 79 -238 210v129zM361 326c0 49 -29 75 -88 75c-58 0 -87 -26 -87 -75v-132c0 -48 29 -75 87 -75c59 0 88 27 88 75v132z" />
    <glyph glyph-name="uni043F" unicode="&#x43f;" horiz-adv-x="553" 
d="M467 520c27 0 36 -9 36 -37v-446c0 -28 -9 -37 -36 -37h-78c-28 0 -37 9 -37 37v346h-151v-346c0 -28 -9 -37 -36 -37h-78c-28 0 -37 9 -37 37v446c0 28 9 37 37 37h380z" />
    <glyph glyph-name="uni0440" unicode="&#x440;" horiz-adv-x="545" 
d="M89 504c42 16 104 31 203 31c149 0 218 -76 218 -207v-126c0 -141 -77 -217 -231 -217c-28 0 -54 4 -79 9v-177c0 -28 -9 -37 -36 -37h-78c-28 0 -37 9 -37 37v629c0 33 7 45 40 58zM358 327c0 47 -30 73 -84 73c-28 0 -49 -3 -69 -7c-4 -1 -5 -4 -5 -7v-260
c19 -3 43 -6 67 -6c62 0 91 26 91 82v125z" />
    <glyph glyph-name="uni0441" unicode="&#x441;" horiz-adv-x="519" 
d="M35 323c0 131 74 212 238 212c120 0 193 -58 219 -133c10 -29 2 -42 -26 -52l-64 -21c-29 -11 -42 -4 -53 25c-13 32 -40 51 -82 51c-54 0 -81 -26 -81 -75v-140c0 -49 27 -75 81 -75c42 0 69 19 82 51c11 28 23 33 53 24l65 -20c28 -9 38 -23 26 -53
c-35 -83 -107 -132 -230 -132c-159 0 -228 80 -228 212v126z" />
    <glyph glyph-name="uni0442" unicode="&#x442;" horiz-adv-x="479" 
d="M430 520c27 0 37 -9 37 -37v-64c0 -27 -10 -36 -37 -36h-115v-346c0 -28 -9 -37 -37 -37h-77c-28 0 -37 9 -37 37v346h-115c-27 0 -36 9 -36 36v64c0 28 9 37 36 37h381z" />
    <glyph glyph-name="uni0443" unicode="&#x443;" horiz-adv-x="557" 
d="M470 520c27 0 36 -9 36 -37v-491c0 -131 -65 -222 -228 -222c-110 0 -177 34 -214 93c-18 27 -12 45 15 59l57 29c28 15 41 10 58 -13c17 -24 40 -38 81 -38c52 0 80 27 80 81v41c-26 -5 -57 -7 -93 -7c-148 0 -216 76 -216 207v261c0 28 9 37 37 37h77
c28 0 37 -9 37 -37v-256c0 -52 28 -75 85 -75c27 0 51 3 73 7v324c0 28 9 37 37 37h78z" />
    <glyph glyph-name="uni0444" unicode="&#x444;" horiz-adv-x="748" 
d="M449 533c13 1 26 2 39 2c154 0 226 -83 226 -229v-92c0 -147 -72 -229 -226 -229c-13 0 -26 1 -39 2v-170c0 -28 -9 -37 -36 -37h-78c-27 0 -37 9 -37 37v170c-12 -1 -25 -2 -38 -2c-154 0 -226 82 -226 229v92c0 146 72 229 226 229c13 0 26 -1 38 -2v169
c0 28 10 37 37 37h78c27 0 36 -9 36 -37v-169zM185 214c0 -63 26 -94 84 -94c13 0 23 1 34 2v276c-11 1 -21 2 -34 2c-58 0 -84 -31 -84 -94v-92zM563 306c0 63 -26 94 -85 94c-12 0 -22 -1 -33 -2v-276c11 -1 21 -2 33 -2c59 0 85 30 85 94v92z" />
    <glyph glyph-name="uni0445" unicode="&#x445;" horiz-adv-x="527" 
d="M472 520c39 0 45 -15 26 -44l-141 -208l150 -224c21 -30 15 -44 -27 -44h-69c-40 0 -49 3 -67 32l-82 131l-78 -131c-17 -29 -28 -32 -67 -32h-68c-45 0 -48 14 -27 44l149 222l-143 210c-17 26 -15 44 28 44h67c41 0 52 -5 68 -32l74 -115l72 115c18 28 26 32 64 32h71z
" />
    <glyph glyph-name="uni0447" unicode="&#x447;" horiz-adv-x="524" 
d="M26 483c0 28 9 37 37 37h77c28 0 37 -9 37 -37v-113c0 -48 27 -73 78 -73c43 0 68 9 68 9v177c0 28 9 37 36 37h78c28 0 37 -9 37 -37v-446c0 -28 -9 -37 -37 -37h-78c-27 0 -36 9 -36 37v131s-29 -7 -93 -7c-141 0 -204 74 -204 201v121z" />
    <glyph glyph-name="uni0446" unicode="&#x446;" horiz-adv-x="590" 
d="M538 137c28 0 37 -9 37 -37v-202c0 -28 -9 -37 -37 -37h-72c-28 0 -38 9 -38 37v102h-341c-28 0 -37 9 -37 37v446c0 28 9 37 37 37h78c27 0 36 -9 36 -37v-346h147v346c0 28 9 37 37 37h78c27 0 36 -9 36 -37v-346h39z" />
    <glyph glyph-name="uni0448" unicode="&#x448;" horiz-adv-x="778" 
d="M692 520c27 0 36 -9 36 -37v-446c0 -28 -9 -37 -36 -37h-605c-28 0 -37 9 -37 37v446c0 28 9 37 37 37h78c27 0 36 -9 36 -37v-346h113v346c0 28 9 37 36 37h78c28 0 37 -9 37 -37v-346h112v346c0 28 9 37 37 37h78z" />
    <glyph glyph-name="uni0449" unicode="&#x449;" horiz-adv-x="819" 
d="M767 137c28 0 37 -9 37 -37v-202c0 -28 -9 -37 -37 -37h-72c-28 0 -38 9 -38 37v102h-570c-28 0 -37 9 -37 37v446c0 28 9 37 37 37h78c27 0 36 -9 36 -37v-346h113v346c0 28 9 37 36 37h78c28 0 37 -9 37 -37v-346h112v346c0 28 9 37 37 37h78c27 0 36 -9 36 -37v-346
h39z" />
    <glyph glyph-name="uni044F" unicode="&#x44f;" horiz-adv-x="536" 
d="M449 520c27 0 37 -9 37 -37v-446c0 -28 -10 -37 -37 -37h-78c-27 0 -36 9 -36 37v121h-68l-66 -125c-15 -30 -27 -33 -68 -33h-68c-45 0 -47 14 -28 45l83 136c-54 29 -86 83 -86 158c0 113 72 181 185 181h230zM242 392c-32 0 -52 -24 -52 -53c0 -30 20 -51 52 -51h93
v104h-93z" />
    <glyph glyph-name="uni044C" unicode="&#x44c;" horiz-adv-x="524" 
d="M308 380c120 0 195 -71 195 -189c0 -120 -75 -191 -195 -191h-221c-28 0 -37 9 -37 37v446c0 28 9 37 37 37h78c27 0 36 -9 36 -37v-103h107zM286 130c38 0 62 26 62 61s-24 58 -62 58h-85v-119h85z" />
    <glyph glyph-name="uni044A" unicode="&#x44a;" horiz-adv-x="617" 
d="M401 380c120 0 195 -71 195 -189c0 -120 -75 -191 -195 -191h-221c-28 0 -37 9 -37 37v347h-93c-28 0 -37 10 -37 37v62c0 28 9 37 37 37h208c27 0 36 -9 36 -37v-103h107zM379 130c38 0 62 26 62 61s-24 58 -62 58h-85v-119h85z" />
    <glyph glyph-name="uni044B" unicode="&#x44b;" horiz-adv-x="735" 
d="M308 380c120 0 195 -71 195 -189c0 -120 -75 -191 -195 -191h-221c-28 0 -37 9 -37 37v446c0 28 9 37 37 37h78c27 0 36 -9 36 -37v-103h107zM648 520c27 0 37 -9 37 -37v-446c0 -28 -10 -37 -37 -37h-78c-27 0 -36 9 -36 37v446c0 28 9 37 36 37h78zM286 130
c38 0 62 26 62 61s-24 58 -62 58h-85v-119h85z" />
    <glyph glyph-name="uni044D" unicode="&#x44d;" horiz-adv-x="516" 
d="M26 403c26 74 99 132 218 132c164 0 237 -81 237 -212v-125c0 -132 -68 -213 -226 -213c-123 0 -194 50 -229 133c-12 30 -2 43 26 53l58 18c30 9 42 3 52 -22c14 -31 38 -55 86 -55c57 0 83 27 83 76v12l-118 1c-27 0 -36 9 -36 35v53c0 26 9 35 36 35h118v10
c0 49 -26 75 -83 75c-47 0 -72 -24 -86 -54c-11 -26 -23 -35 -52 -24l-58 19c-28 10 -36 23 -26 53z" />
    <glyph glyph-name="uni044E" unicode="&#x44e;" horiz-adv-x="769" 
d="M268 336c4 125 83 199 231 199c156 0 235 -80 235 -211v-129c0 -131 -79 -210 -235 -210c-149 0 -228 75 -232 201v9h-66v-158c0 -28 -9 -37 -36 -37h-78c-28 0 -37 9 -37 37v446c0 28 9 37 37 37h78c27 0 36 -9 36 -37v-150h66zM582 326c0 49 -27 75 -83 75
c-54 0 -81 -26 -81 -75v-132c0 -48 27 -75 81 -75c56 0 83 27 83 75v132z" />
    <glyph glyph-name="Delta" unicode="&#x2206;" horiz-adv-x="658" 
d="M365 710c27 0 40 -6 49 -32l199 -514c15 -37 20 -47 20 -75v-48c0 -31 -10 -41 -40 -41h-527c-30 0 -40 10 -40 41v48c0 28 5 38 20 75l199 514c9 26 22 32 49 32h71zM367 411c-29 83 -33 146 -34 154h-9c0 -8 -5 -73 -33 -154l-96 -280h268z" />
    <glyph glyph-name="Omega" unicode="&#x2126;" horiz-adv-x="797" 
d="M50 381c0 201 144 344 346 344c206 0 352 -141 352 -341c0 -106 -43 -182 -104 -231h67c31 0 41 -10 41 -40v-72c0 -31 -10 -41 -41 -41h-252c-21 0 -32 11 -32 33v61c0 17 8 27 23 34c87 42 141 138 141 227c0 122 -57 222 -195 222c-128 0 -190 -99 -190 -221
c0 -94 48 -188 139 -229c15 -7 23 -17 23 -35v-59c0 -23 -10 -33 -32 -33h-252c-30 0 -40 10 -40 41v72c0 30 10 40 40 40h65c-58 53 -99 123 -99 228z" />
    <glyph glyph-name="mu" unicode="&#xb5;" horiz-adv-x="566" 
d="M478 520c27 0 36 -9 36 -37v-404c0 -30 -7 -43 -37 -57c-48 -22 -109 -37 -166 -37c-38 0 -75 5 -106 22v-190c0 -28 -9 -37 -37 -37h-77c-28 0 -37 9 -37 37v666c0 28 9 37 37 37h77c28 0 37 -9 37 -37v-286c0 -52 28 -75 85 -75c27 0 45 3 66 8c5 1 7 5 7 9v344
c0 28 9 37 37 37h78z" />
    <glyph glyph-name="pi" unicode="&#x3c0;" horiz-adv-x="661" 
d="M598 520c28 0 37 -9 37 -37v-61c0 -28 -9 -38 -37 -38h-20v-225c0 -34 2 -47 15 -78c12 -26 8 -42 -20 -54l-67 -26c-27 -12 -39 -9 -52 19c-23 52 -27 87 -27 140v224h-151v-347c0 -28 -9 -37 -37 -37h-77c-28 0 -37 9 -37 37v347c-16 -1 -23 -4 -47 -13
c-24 -10 -38 -10 -48 16l-25 59c-11 24 -7 37 18 48c48 20 85 26 146 26h429z" />
    <glyph glyph-name="zero" unicode="0" horiz-adv-x="640" 
d="M47 476c0 152 100 249 274 249c173 0 272 -97 272 -249v-240c0 -154 -99 -251 -272 -251c-174 0 -274 97 -274 251v240zM431 478c0 64 -41 98 -110 98c-71 0 -112 -34 -112 -98v-245c0 -64 41 -99 112 -99c69 0 110 35 110 99v245z" />
    <glyph glyph-name="one" unicode="1" horiz-adv-x="442" 
d="M332 710c30 0 41 -10 41 -41v-628c0 -31 -11 -41 -41 -41h-81c-30 0 -41 10 -41 41v469l-97 -55c-31 -18 -48 -11 -62 16l-35 63c-14 26 -7 39 20 55l181 105c22 13 33 16 58 16h57z" />
    <glyph glyph-name="two" unicode="2" horiz-adv-x="605" 
d="M46 557c40 100 120 168 269 168c161 0 253 -107 253 -229c0 -150 -70 -209 -267 -286c-37 -14 -92 -25 -92 -55v-8h304c31 0 41 -11 41 -41v-65c0 -31 -10 -41 -41 -41h-433c-30 0 -40 10 -40 41v76c0 137 99 184 192 223c86 34 168 63 168 149c0 49 -36 87 -91 87
s-87 -23 -109 -73c-14 -30 -24 -36 -52 -26l-77 28c-28 10 -36 24 -25 52z" />
    <glyph glyph-name="three" unicode="3" horiz-adv-x="621" 
d="M561 520c0 -65 -25 -116 -75 -148c68 -35 97 -97 97 -167c0 -132 -86 -220 -265 -220c-154 0 -241 60 -281 168c-10 28 -3 42 25 52l75 27c28 10 40 4 52 -26c19 -49 47 -74 124 -74c69 0 100 29 100 78c0 54 -28 78 -84 78h-79c-31 0 -41 10 -41 40v62c0 31 10 41 41 41
h59c50 0 88 23 88 73s-30 74 -88 74c-73 0 -96 -25 -115 -74c-12 -30 -23 -34 -52 -26l-75 27c-28 10 -35 24 -25 52c40 108 122 168 276 168c155 0 243 -79 243 -205z" />
    <glyph glyph-name="four" unicode="4" horiz-adv-x="645" 
d="M582 287c31 0 41 -11 41 -41v-56c0 -30 -10 -41 -41 -41h-56v-108c0 -31 -10 -41 -41 -41h-70c-31 0 -41 10 -41 41v108h-314c-31 0 -41 11 -41 41v50c0 28 2 36 17 53l316 388c19 23 30 29 59 29h74c31 0 41 -10 41 -41v-382h56zM374 498l-173 -211h173v211z" />
    <glyph glyph-name="five" unicode="5" horiz-adv-x="604" 
d="M501 710c31 0 41 -10 41 -41v-66c0 -31 -10 -41 -41 -41h-263l-10 -105h92c173 0 251 -104 251 -232c0 -131 -93 -240 -259 -240c-155 0 -240 57 -280 165c-10 29 -3 42 25 52l77 28c28 10 40 5 52 -25c18 -46 51 -71 122 -71c54 0 93 31 93 94c0 55 -39 85 -94 85h-209
c-35 0 -45 15 -42 47l30 292c4 44 20 58 65 58h350z" />
    <glyph glyph-name="six" unicode="6" horiz-adv-x="643" 
d="M208 439c26 6 66 12 127 12c183 0 269 -78 269 -232c0 -146 -105 -234 -279 -234c-182 0 -279 100 -279 266v208c0 166 98 266 279 266c142 0 228 -56 267 -160c12 -28 4 -41 -25 -52l-72 -27c-28 -11 -39 -3 -52 26c-19 43 -55 64 -117 64c-78 0 -118 -38 -118 -116v-21
zM208 243c0 -73 38 -111 117 -111s117 30 117 86c0 57 -31 86 -117 86c-66 0 -102 -10 -117 -16v-45z" />
    <glyph glyph-name="seven" unicode="7" horiz-adv-x="553" 
d="M497 710c30 0 41 -10 41 -41v-49c0 -23 -2 -33 -13 -57l-241 -527c-13 -31 -24 -36 -75 -36h-79c-29 0 -31 15 -20 41l240 521h-289c-30 0 -40 10 -40 40v67c0 31 10 41 40 41h436z" />
    <glyph glyph-name="eight" unicode="8" horiz-adv-x="637" 
d="M60 517c0 131 98 208 257 208c170 0 259 -71 259 -196c0 -79 -44 -127 -81 -153c60 -32 105 -82 105 -174c0 -127 -81 -217 -283 -217c-201 0 -280 79 -280 199c0 89 58 141 104 168c-48 33 -81 85 -81 165zM418 514c0 48 -37 73 -99 73c-63 0 -95 -25 -95 -73
s35 -65 91 -80l42 -11c31 15 61 42 61 91zM430 200c0 68 -70 75 -160 97c-31 -14 -69 -40 -69 -97c0 -48 32 -77 117 -77c84 0 112 29 112 77z" />
    <glyph glyph-name="nine" unicode="9" horiz-adv-x="643" 
d="M435 271c-27 -6 -67 -12 -127 -12c-184 0 -269 78 -269 232c0 146 105 234 279 234c182 0 279 -100 279 -266v-208c0 -166 -98 -266 -279 -266c-143 0 -228 56 -268 160c-11 28 -3 41 25 52l73 27c28 11 39 3 52 -26c18 -43 55 -64 117 -64c78 0 118 38 118 116v21z
M435 467c0 73 -39 111 -117 111c-79 0 -117 -30 -117 -86c0 -57 31 -86 117 -86c65 0 102 10 117 16v45z" />
    <glyph glyph-name="zero.denom" horiz-adv-x="382" 
d="M33 258c0 88 57 145 158 145s158 -57 158 -145v-121c0 -89 -57 -145 -158 -145s-158 56 -158 145v121zM228 259c0 21 -14 31 -37 31s-37 -10 -37 -31v-123c0 -21 14 -32 37 -32s37 11 37 32v123z" />
    <glyph glyph-name="one.denom" horiz-adv-x="289" 
d="M203 395c32 0 42 -9 42 -41v-314c0 -30 -10 -40 -41 -40h-40c-31 0 -41 10 -41 40v206l-31 -18c-27 -15 -43 -9 -58 14l-18 31c-15 26 -7 40 17 54l98 57c15 9 27 11 47 11h25z" />
    <glyph glyph-name="two.denom" horiz-adv-x="370" 
d="M36 309c22 57 69 94 155 94c95 0 148 -56 148 -131c0 -71 -22 -112 -104 -137l-50 -13c-15 -4 -27 -8 -27 -13v-1h139c27 0 35 -11 35 -35v-39c0 -24 -8 -34 -34 -34h-230c-26 0 -36 8 -36 34v29c0 73 18 108 88 135l53 20c30 11 42 19 42 46c0 15 -10 27 -28 27
s-31 -6 -39 -23c-13 -28 -21 -36 -51 -25l-37 14c-27 10 -36 23 -24 52z" />
    <glyph glyph-name="three.denom" horiz-adv-x="374" 
d="M31 307c22 62 71 96 159 96c91 0 143 -44 143 -115c0 -40 -8 -61 -39 -81c41 -21 51 -61 51 -100c0 -72 -51 -115 -155 -115c-87 0 -139 30 -161 94c-9 27 -5 40 18 48l36 13c28 9 39 5 51 -23c8 -19 23 -28 54 -28c26 0 38 8 38 24c0 18 -9 27 -31 27h-28
c-28 0 -33 5 -33 33v35c0 31 4 36 36 36h19c18 0 31 4 31 25c0 17 -11 24 -31 24c-29 0 -43 -8 -52 -28c-13 -30 -24 -38 -58 -25l-26 11c-22 9 -32 22 -22 49z" />
    <glyph glyph-name="four.denom" horiz-adv-x="394" 
d="M335 172c29 0 33 -7 33 -31v-37c0 -25 -4 -31 -33 -31h-11v-40c0 -25 -6 -33 -32 -33h-50c-25 0 -31 8 -31 33v40h-160c-28 0 -35 8 -35 35v29c0 19 1 25 12 38l161 199c15 18 23 21 50 21h49c31 0 36 -6 36 -36v-187h11zM211 250l-64 -78h64v78z" />
    <glyph glyph-name="five.denom" horiz-adv-x="369" 
d="M298 395c21 0 28 -6 28 -28v-43c0 -22 -5 -27 -28 -27h-141l-4 -32h40c101 0 148 -55 148 -130c0 -77 -54 -143 -152 -143c-89 0 -136 34 -160 95c-11 28 -4 40 18 48l36 14c28 10 37 8 49 -18c11 -24 25 -36 52 -36c26 0 43 13 43 39c0 22 -12 38 -40 38h-117
c-27 0 -34 10 -32 33l17 160c2 24 10 30 37 30h206z" />
    <glyph glyph-name="six.denom" horiz-adv-x="382" 
d="M153 247c17 4 37 8 58 8c99 0 143 -51 143 -130c0 -86 -62 -133 -161 -133c-105 0 -160 50 -160 146v116c0 96 56 149 165 149c76 0 125 -32 146 -69c9 -17 3 -29 -16 -39l-49 -24c-24 -12 -31 -4 -39 7c-9 9 -19 19 -41 19c-31 0 -46 -8 -46 -38v-12zM153 133
c0 -25 12 -36 40 -36s40 10 40 27c0 19 -11 26 -40 26c-14 0 -28 -2 -40 -7v-10z" />
    <glyph glyph-name="seven.denom" horiz-adv-x="335" 
d="M289 395c25 0 31 -7 31 -30v-30c0 -17 -2 -26 -8 -39l-124 -272c-10 -21 -13 -24 -50 -24h-48c-32 0 -37 10 -22 42l113 244h-131c-26 0 -31 9 -31 32v46c0 26 8 31 31 31h239z" />
    <glyph glyph-name="eight.denom" horiz-adv-x="392" 
d="M40 286c0 73 59 117 156 117c102 0 156 -40 156 -106c0 -43 -20 -69 -44 -84c32 -19 56 -47 56 -96c0 -75 -49 -125 -168 -125c-120 0 -168 45 -168 107c0 51 32 79 62 95c-28 20 -50 49 -50 92zM234 284c0 14 -7 27 -39 27c-27 0 -37 -11 -37 -26c0 -18 22 -26 49 -35
c14 7 27 18 27 34zM239 113c0 21 -21 29 -51 38c-19 -10 -35 -21 -35 -37c0 -15 8 -30 45 -30c32 0 41 15 41 29z" />
    <glyph glyph-name="nine.denom" horiz-adv-x="382" 
d="M229 148c-17 -4 -36 -8 -58 -8c-98 0 -143 51 -143 130c0 86 62 133 161 133c105 0 161 -50 161 -146v-116c0 -96 -57 -149 -166 -149c-76 0 -125 32 -145 69c-10 17 -3 29 15 39l49 24c24 12 31 4 40 -7c8 -9 18 -19 41 -19c30 0 45 8 45 38v12zM229 262
c0 25 -12 36 -40 36c-27 0 -39 -10 -39 -27c0 -19 11 -26 39 -26c14 0 28 2 40 7v10z" />
    <glyph glyph-name="zero.num" horiz-adv-x="382" 
d="M33 578c0 88 57 145 158 145s158 -57 158 -145v-121c0 -89 -57 -145 -158 -145s-158 56 -158 145v121zM228 579c0 21 -14 31 -37 31s-37 -10 -37 -31v-123c0 -21 14 -32 37 -32s37 11 37 32v123z" />
    <glyph glyph-name="one.num" horiz-adv-x="289" 
d="M203 715c32 0 42 -9 42 -41v-314c0 -30 -10 -40 -41 -40h-40c-31 0 -41 10 -41 40v206l-31 -18c-27 -15 -43 -9 -58 14l-18 31c-15 26 -7 40 17 54l98 57c15 9 27 11 47 11h25z" />
    <glyph glyph-name="two.num" horiz-adv-x="370" 
d="M36 629c22 57 69 94 155 94c95 0 148 -56 148 -131c0 -71 -22 -112 -104 -137l-50 -13c-15 -4 -27 -8 -27 -13v-1h139c27 0 35 -11 35 -35v-39c0 -24 -8 -34 -34 -34h-230c-26 0 -36 8 -36 34v29c0 73 18 108 88 135l53 20c30 11 42 19 42 46c0 15 -10 27 -28 27
s-31 -6 -39 -23c-13 -28 -21 -36 -51 -25l-37 14c-27 10 -36 23 -24 52z" />
    <glyph glyph-name="three.num" horiz-adv-x="374" 
d="M31 627c22 62 71 96 159 96c91 0 143 -44 143 -115c0 -40 -8 -61 -39 -81c40 -22 51 -62 51 -101c0 -72 -51 -114 -155 -114c-87 0 -139 30 -161 94c-9 27 -5 40 18 48l36 13c28 9 39 5 51 -23c8 -19 23 -28 54 -28c26 0 38 8 38 24c0 18 -9 27 -31 27h-28
c-28 0 -33 5 -33 33v35c0 31 4 36 36 36h19c18 0 31 4 31 25c0 17 -11 24 -31 24c-29 0 -43 -8 -52 -28c-13 -30 -24 -38 -58 -25l-26 11c-22 9 -32 22 -22 49z" />
    <glyph glyph-name="four.num" horiz-adv-x="394" 
d="M335 492c29 0 33 -7 33 -31v-37c0 -25 -4 -31 -33 -31h-11v-40c0 -25 -6 -33 -32 -33h-50c-25 0 -31 8 -31 33v40h-160c-28 0 -35 8 -35 35v29c0 19 1 25 12 38l161 199c15 18 23 21 50 21h49c31 0 36 -6 36 -36v-187h11zM211 570l-64 -78h64v78z" />
    <glyph glyph-name="five.num" horiz-adv-x="369" 
d="M298 715c21 0 28 -6 28 -28v-43c0 -22 -5 -27 -28 -27h-141l-4 -32h40c101 0 148 -55 148 -130c0 -77 -54 -143 -152 -143c-89 0 -136 34 -160 95c-11 28 -4 40 18 48l36 14c28 10 37 8 49 -18c11 -24 25 -36 52 -36c26 0 43 13 43 39c0 22 -12 38 -40 38h-117
c-27 0 -34 10 -32 33l17 160c2 24 10 30 37 30h206z" />
    <glyph glyph-name="six.num" horiz-adv-x="382" 
d="M153 567c17 4 37 8 58 8c99 0 143 -51 143 -130c0 -86 -62 -133 -161 -133c-105 0 -160 50 -160 146v116c0 96 56 149 165 149c76 0 125 -32 146 -69c9 -17 3 -29 -16 -39l-49 -24c-24 -12 -31 -4 -39 7c-9 9 -19 19 -41 19c-31 0 -46 -8 -46 -38v-12zM153 453
c0 -25 12 -36 40 -36s40 10 40 27c0 19 -11 26 -40 26c-14 0 -28 -2 -40 -7v-10z" />
    <glyph glyph-name="seven.num" horiz-adv-x="335" 
d="M289 715c25 0 31 -7 31 -30v-30c0 -17 -2 -26 -8 -39l-124 -272c-10 -21 -13 -24 -50 -24h-48c-32 0 -37 10 -22 42l113 244h-131c-26 0 -31 9 -31 32v46c0 26 8 31 31 31h239z" />
    <glyph glyph-name="eight.num" horiz-adv-x="392" 
d="M40 606c0 73 59 117 156 117c102 0 156 -40 156 -106c0 -43 -20 -69 -44 -84c32 -19 56 -47 56 -96c0 -75 -49 -125 -168 -125c-120 0 -168 45 -168 107c0 51 32 79 62 95c-28 20 -50 49 -50 92zM234 604c0 14 -7 27 -39 27c-27 0 -37 -11 -37 -26c0 -18 22 -26 49 -35
c14 7 27 18 27 34zM239 433c0 21 -21 29 -51 38c-19 -10 -35 -21 -35 -37c0 -15 8 -30 45 -30c32 0 41 15 41 29z" />
    <glyph glyph-name="nine.num" horiz-adv-x="382" 
d="M229 468c-17 -4 -36 -8 -58 -8c-98 0 -143 51 -143 130c0 86 62 133 161 133c105 0 161 -50 161 -146v-116c0 -96 -57 -149 -166 -149c-76 0 -125 32 -145 69c-10 17 -3 29 15 39l49 24c24 12 31 4 40 -7c8 -9 18 -19 41 -19c30 0 45 8 45 38v12zM229 582
c0 25 -12 36 -40 36c-27 0 -39 -10 -39 -27c0 -19 11 -26 39 -26c14 0 28 2 40 7v10z" />
    <glyph glyph-name="fraction" unicode="&#x2044;" horiz-adv-x="226" 
d="M268 676c21 30 31 34 74 34h65c28 0 34 -18 19 -39l-467 -635c-23 -32 -31 -36 -79 -36h-60c-29 0 -36 19 -20 41z" />
    <glyph glyph-name="onehalf" unicode="&#xbd;" horiz-adv-x="845" 
d="M218 714c33 0 42 -10 42 -41v-314c0 -30 -10 -40 -41 -40h-40c-30 0 -40 10 -40 40v205l-32 -17c-26 -15 -43 -9 -57 14l-18 30c-15 26 -7 41 17 55l98 56c15 9 27 12 46 12h25zM692 710c28 0 34 -18 20 -39l-467 -635c-24 -32 -32 -36 -80 -36h-52c-29 0 -36 19 -20 41
l468 635c21 30 30 34 74 34h57zM506 309c23 57 69 94 155 94c95 0 148 -56 148 -131c0 -71 -22 -112 -103 -137l-50 -13c-16 -4 -27 -8 -27 -13v-1h139c26 0 34 -11 34 -35v-39c0 -24 -7 -34 -34 -34h-230c-25 0 -36 8 -36 34v29c0 73 18 108 89 135l53 20
c29 11 41 19 41 46c0 15 -10 27 -27 27c-19 0 -31 -6 -40 -23c-13 -28 -21 -36 -50 -25l-38 14c-26 10 -35 23 -24 52z" />
    <glyph glyph-name="uni2153" unicode="&#x2153;" horiz-adv-x="859" 
d="M696 710c28 0 34 -18 19 -39l-467 -635c-23 -32 -32 -36 -79 -36h-53c-29 0 -36 19 -20 41l468 635c21 30 31 34 74 34h58zM218 709c33 0 42 -10 42 -41v-314c0 -30 -10 -40 -41 -40h-40c-30 0 -40 10 -40 40v205l-32 -17c-26 -15 -43 -9 -57 14l-18 30
c-15 27 -7 41 17 55l98 57c15 8 27 11 46 11h25zM513 307c22 62 70 96 159 96c91 0 143 -44 143 -115c0 -40 -8 -61 -39 -81c40 -22 51 -62 51 -101c0 -72 -51 -114 -155 -114c-87 0 -139 30 -161 94c-10 27 -5 40 18 48l36 13c28 9 39 5 51 -23c8 -19 22 -28 54 -28
c26 0 38 8 38 24c0 18 -9 27 -31 27h-29c-27 0 -32 5 -32 33v35c0 31 4 36 35 36h20c18 0 31 4 31 25c0 17 -11 24 -31 24c-30 0 -43 -8 -52 -28c-13 -30 -24 -38 -58 -25l-26 11c-23 9 -32 22 -22 49z" />
    <glyph glyph-name="uni2154" unicode="&#x2154;" horiz-adv-x="919" 
d="M39 629c23 58 69 94 155 94c95 0 148 -56 148 -130c0 -72 -22 -112 -103 -138l-50 -13c-16 -4 -28 -7 -28 -12v-2h140c26 0 34 -10 34 -35v-39c0 -24 -8 -34 -34 -34h-230c-26 0 -36 9 -36 34v29c0 73 18 109 89 135l53 21c29 11 41 18 41 46c0 14 -10 27 -28 27
s-30 -7 -39 -24c-13 -27 -21 -36 -51 -25l-37 14c-26 10 -35 23 -24 52zM764 710c28 0 34 -18 19 -39l-467 -635c-23 -32 -32 -36 -79 -36h-53c-29 0 -36 19 -20 41l468 635c21 30 31 34 74 34h58zM577 307c22 62 71 96 159 96c91 0 144 -44 144 -115c0 -40 -9 -61 -40 -81
c40 -22 52 -62 52 -101c0 -72 -52 -114 -156 -114c-87 0 -139 30 -161 94c-9 27 -5 40 18 48l36 13c28 9 39 5 51 -23c9 -19 23 -28 54 -28c26 0 38 8 38 24c0 18 -9 27 -30 27h-29c-28 0 -33 5 -33 33v35c0 31 4 36 36 36h19c18 0 31 4 31 25c0 17 -11 24 -31 24
c-29 0 -43 -8 -52 -28c-12 -30 -24 -38 -58 -25l-26 11c-22 9 -32 22 -22 49z" />
    <glyph glyph-name="onequarter" unicode="&#xbc;" horiz-adv-x="825" 
d="M704 710c28 0 34 -18 19 -39l-467 -635c-23 -32 -31 -36 -79 -36h-52c-30 0 -36 19 -21 41l468 635c22 30 31 34 75 34h57zM218 707c33 0 42 -9 42 -41v-314c0 -30 -10 -40 -41 -40h-40c-30 0 -40 10 -40 40v206l-32 -18c-26 -15 -43 -9 -57 14l-18 31
c-15 26 -7 40 17 54l98 57c15 9 27 11 46 11h25zM713 395c31 0 36 -6 36 -36v-187h11c29 0 33 -7 33 -31v-37c0 -25 -4 -31 -33 -31h-11v-40c0 -25 -6 -33 -32 -33h-50c-25 0 -31 8 -31 33v40h-160c-28 0 -35 8 -35 35v29c0 19 1 25 12 38l161 199c15 18 24 21 50 21h49z
M572 172h64v78z" />
    <glyph glyph-name="threequarters" unicode="&#xbe;" horiz-adv-x="851" 
d="M35 628c22 62 71 96 159 96c91 0 143 -44 143 -115c0 -40 -8 -61 -39 -81c40 -22 51 -62 51 -101c0 -72 -51 -114 -155 -114c-87 0 -139 31 -161 94c-9 27 -5 40 18 48l36 13c28 9 39 5 51 -23c9 -19 23 -28 54 -28c26 0 38 9 38 24c0 18 -9 27 -31 27h-28
c-28 0 -33 5 -33 33v35c0 32 4 36 36 36h19c18 0 31 5 31 25c0 18 -11 25 -31 25c-29 0 -43 -9 -52 -29c-12 -30 -24 -38 -58 -25l-26 11c-22 9 -32 22 -22 49zM736 710c28 0 34 -18 19 -39l-467 -635c-23 -32 -31 -36 -79 -36h-53c-29 0 -36 19 -20 41l468 635
c21 30 31 34 75 34h57zM742 395c31 0 36 -6 36 -36v-187h11c29 0 33 -7 33 -31v-37c0 -25 -4 -31 -33 -31h-11v-40c0 -25 -6 -33 -32 -33h-50c-25 0 -31 8 -31 33v40h-160c-28 0 -35 8 -35 35v29c0 19 1 25 12 38l161 199c15 18 23 21 50 21h49zM665 172v78l-64 -78h64z" />
    <glyph glyph-name="oneeighth" unicode="&#x215b;" horiz-adv-x="881" 
d="M218 714c33 0 42 -10 42 -41v-314c0 -30 -10 -40 -41 -40h-40c-30 0 -40 10 -40 40v205l-32 -17c-26 -15 -43 -9 -57 14l-18 30c-15 26 -7 41 17 55l98 56c15 9 27 12 46 12h25zM705 710c28 0 34 -18 20 -39l-467 -635c-24 -32 -32 -36 -80 -36h-52c-30 0 -36 19 -21 41
l469 635c21 30 30 34 74 34h57zM525 286c0 73 59 117 156 117c102 0 156 -40 156 -106c0 -43 -20 -69 -44 -84c32 -19 56 -47 56 -96c0 -75 -49 -125 -168 -125c-120 0 -168 45 -168 107c0 51 32 79 62 95c-28 20 -50 49 -50 92zM719 284c0 14 -7 27 -39 27
c-27 0 -37 -11 -37 -26c0 -18 22 -26 50 -35c13 7 26 18 26 34zM724 113c0 21 -20 29 -51 38c-19 -10 -35 -21 -35 -37c0 -15 8 -30 45 -30c32 0 41 15 41 29z" />
    <glyph glyph-name="threeeighths" unicode="&#x215c;" horiz-adv-x="904" 
d="M35 628c22 62 71 96 159 96c91 0 143 -44 143 -115c0 -40 -8 -61 -39 -81c41 -21 51 -61 51 -100c0 -72 -51 -115 -155 -115c-87 0 -139 31 -161 94c-9 27 -5 40 18 48l36 13c28 9 39 5 51 -23c9 -19 23 -28 54 -28c26 0 38 9 38 24c0 18 -9 27 -31 27h-28
c-28 0 -33 5 -33 33v35c0 32 4 36 36 36h19c18 0 31 5 31 25c0 18 -11 25 -31 25c-29 0 -43 -9 -52 -29c-12 -30 -24 -38 -58 -25l-26 11c-22 9 -32 22 -22 49zM744 709c28 0 34 -18 19 -38l-467 -636c-23 -32 -31 -36 -79 -36h-53c-29 0 -36 19 -20 41l468 636
c21 29 31 33 75 33h57zM551 286c0 73 59 117 156 117c102 0 157 -40 157 -106c0 -43 -21 -69 -45 -84c32 -19 57 -47 57 -96c0 -75 -50 -125 -169 -125c-120 0 -168 45 -168 107c0 51 32 79 62 95c-28 20 -50 49 -50 92zM745 284c0 14 -7 27 -39 27c-27 0 -36 -11 -36 -26
c0 -18 21 -26 49 -35c13 7 26 18 26 34zM750 113c0 21 -20 29 -51 38c-19 -10 -34 -21 -34 -37c0 -15 7 -30 44 -30c33 0 41 15 41 29z" />
    <glyph glyph-name="fiveeighths" unicode="&#x215d;" horiz-adv-x="915" 
d="M299 715c21 0 28 -7 28 -28v-43c0 -22 -5 -28 -28 -28h-141l-3 -32h40c100 0 147 -55 147 -130c0 -77 -54 -142 -151 -142c-89 0 -137 33 -160 94c-11 29 -4 40 17 49l37 14c28 9 37 7 49 -18c11 -25 25 -37 52 -37c26 0 42 13 42 39c0 22 -12 39 -39 39h-118
c-26 0 -33 9 -31 33l16 159c2 25 11 31 38 31h205zM740 710c28 0 34 -18 19 -39l-467 -635c-23 -32 -31 -36 -79 -36h-53c-29 0 -36 19 -20 41l468 635c21 30 31 34 75 34h57zM561 286c0 73 60 117 156 117c103 0 157 -40 157 -106c0 -43 -21 -69 -45 -84
c32 -19 57 -47 57 -96c0 -75 -49 -125 -169 -125s-168 45 -168 107c0 51 33 79 62 95c-28 20 -50 49 -50 92zM755 284c0 14 -6 27 -39 27c-27 0 -36 -11 -36 -26c0 -18 21 -26 49 -35c13 7 26 18 26 34zM760 113c0 21 -20 29 -51 38c-18 -10 -34 -21 -34 -37
c0 -15 7 -30 44 -30c33 0 41 15 41 29z" />
    <glyph glyph-name="seveneighths" unicode="&#x215e;" horiz-adv-x="859" 
d="M298 714c26 0 32 -6 32 -30v-29c0 -17 -3 -27 -9 -39l-124 -273c-9 -21 -13 -24 -50 -24h-48c-31 0 -37 10 -22 42l113 245h-131c-25 0 -31 8 -31 31v46c0 27 8 31 32 31h238zM674 710c28 0 34 -18 19 -39l-467 -635c-23 -32 -31 -36 -79 -36h-53c-29 0 -36 19 -20 41
l468 635c21 30 31 34 75 34h57zM507 286c0 73 60 117 156 117c103 0 157 -40 157 -106c0 -43 -20 -69 -45 -84c33 -19 57 -47 57 -96c0 -75 -49 -125 -169 -125s-168 45 -168 107c0 51 33 79 62 95c-28 20 -50 49 -50 92zM701 284c0 14 -6 27 -39 27c-27 0 -36 -11 -36 -26
c0 -18 21 -26 49 -35c13 7 26 18 26 34zM706 113c0 21 -20 29 -51 38c-18 -10 -34 -21 -34 -37c0 -15 8 -30 44 -30c33 0 41 15 41 29z" />
    <glyph glyph-name="zeroinferior" unicode="&#x2080;" horiz-adv-x="382" 
d="M33 139c0 88 57 145 158 145s158 -57 158 -145v-121c0 -89 -57 -145 -158 -145s-158 56 -158 145v121zM228 140c0 20 -14 31 -37 31s-37 -11 -37 -31v-123c0 -21 14 -33 37 -33s37 12 37 33v123z" />
    <glyph glyph-name="oneinferior" unicode="&#x2081;" horiz-adv-x="289" 
d="M203 276c32 0 42 -10 42 -41v-314c0 -30 -10 -40 -41 -40h-40c-31 0 -41 10 -41 40v206l-31 -18c-27 -15 -43 -9 -58 14l-18 31c-15 26 -7 40 17 54l98 57c15 8 27 11 47 11h25z" />
    <glyph glyph-name="twoinferior" unicode="&#x2082;" horiz-adv-x="370" 
d="M36 190c22 57 69 94 155 94c95 0 148 -57 148 -131c0 -71 -22 -112 -104 -137l-50 -14c-15 -3 -27 -7 -27 -12v-2h139c27 0 35 -10 35 -35v-38c0 -24 -8 -34 -34 -34h-230c-26 0 -36 8 -36 34v29c0 73 18 108 88 135l53 20c30 11 42 19 42 46c0 15 -10 27 -28 27
s-31 -6 -39 -24c-13 -27 -21 -35 -51 -24l-37 14c-27 10 -36 23 -24 52z" />
    <glyph glyph-name="threeinferior" unicode="&#x2083;" horiz-adv-x="374" 
d="M31 188c22 62 71 96 159 96c91 0 143 -44 143 -115c0 -40 -8 -61 -39 -81c41 -22 51 -61 51 -100c0 -72 -51 -115 -155 -115c-87 0 -139 30 -161 93c-9 28 -5 41 18 49l36 13c28 9 39 4 51 -24c8 -18 23 -27 54 -27c26 0 38 8 38 24c0 18 -9 27 -31 27h-28
c-28 0 -33 5 -33 33v35c0 31 4 36 36 36h19c18 0 31 4 31 25c0 17 -11 24 -31 24c-29 0 -43 -8 -52 -28c-13 -30 -24 -38 -58 -25l-26 11c-22 9 -32 21 -22 49z" />
    <glyph glyph-name="fourinferior" unicode="&#x2084;" horiz-adv-x="394" 
d="M335 53c29 0 33 -7 33 -31v-37c0 -25 -4 -31 -33 -31h-11v-40c0 -25 -6 -33 -32 -33h-50c-25 0 -31 8 -31 33v40h-160c-28 0 -35 8 -35 35v29c0 19 1 25 12 38l161 198c15 18 23 22 50 22h49c31 0 36 -6 36 -37v-186h11zM211 131l-64 -78h64v78z" />
    <glyph glyph-name="fiveinferior" unicode="&#x2085;" horiz-adv-x="369" 
d="M298 276c21 0 28 -7 28 -28v-43c0 -22 -5 -27 -28 -27h-141l-4 -32h40c101 0 148 -55 148 -130c0 -77 -54 -143 -152 -143c-89 0 -136 34 -160 95c-11 28 -4 40 18 48l36 14c28 10 37 8 49 -18c11 -24 25 -37 52 -37c26 0 43 14 43 39c0 22 -12 39 -40 39h-117
c-27 0 -34 10 -32 33l17 160c2 24 10 30 37 30h206z" />
    <glyph glyph-name="sixinferior" unicode="&#x2086;" horiz-adv-x="382" 
d="M153 127c17 5 37 9 58 9c99 0 143 -51 143 -130c0 -86 -62 -133 -161 -133c-105 0 -160 50 -160 146v116c0 96 56 149 165 149c76 0 125 -32 146 -70c9 -17 3 -29 -16 -38l-49 -24c-24 -12 -31 -4 -39 7c-9 9 -19 19 -41 19c-31 0 -46 -8 -46 -38v-13zM153 14
c0 -25 12 -36 40 -36s40 10 40 27c0 19 -11 26 -40 26c-14 0 -28 -3 -40 -7v-10z" />
    <glyph glyph-name="seveninferior" unicode="&#x2087;" horiz-adv-x="335" 
d="M288 276c26 0 31 -7 31 -30v-30c0 -17 -2 -26 -8 -39l-124 -272c-10 -21 -13 -24 -50 -24h-48c-31 0 -37 10 -22 41l113 245h-131c-25 0 -31 9 -31 32v45c0 27 8 32 31 32h239z" />
    <glyph glyph-name="eightinferior" unicode="&#x2088;" horiz-adv-x="392" 
d="M40 167c0 73 59 117 156 117c102 0 156 -40 156 -106c0 -43 -20 -69 -44 -84c32 -19 56 -47 56 -96c0 -75 -49 -125 -168 -125c-120 0 -168 45 -168 107c0 51 32 79 62 95c-28 20 -50 49 -50 92zM234 165c0 14 -7 27 -39 27c-27 0 -37 -11 -37 -26c0 -18 22 -26 49 -35
c14 7 27 18 27 34zM239 -6c0 21 -21 29 -51 38c-19 -10 -35 -21 -35 -37c0 -15 8 -30 45 -30c32 0 41 15 41 29z" />
    <glyph glyph-name="nineinferior" unicode="&#x2089;" horiz-adv-x="382" 
d="M229 29c-17 -4 -36 -8 -58 -8c-98 0 -143 51 -143 130c0 86 62 133 161 133c105 0 161 -50 161 -146v-117c0 -96 -57 -148 -166 -148c-76 0 -125 32 -145 69c-10 17 -3 29 15 39l49 24c24 12 31 4 40 -7c8 -9 18 -19 41 -19c30 0 45 8 45 38v12zM229 142
c0 26 -12 36 -40 36c-27 0 -39 -9 -39 -26c0 -20 11 -27 39 -27c14 0 28 3 40 8v9z" />
    <glyph glyph-name="zerosuperior" unicode="&#x2070;" horiz-adv-x="382" 
d="M33 673c0 88 57 145 158 145s158 -57 158 -145v-122c0 -89 -57 -144 -158 -144s-158 55 -158 144v122zM228 673c0 21 -14 32 -37 32s-37 -11 -37 -32v-122c0 -21 14 -33 37 -33s37 12 37 33v122z" />
    <glyph glyph-name="onesuperior" unicode="&#xb9;" horiz-adv-x="289" 
d="M203 810c32 0 42 -10 42 -41v-314c0 -30 -10 -40 -41 -40h-40c-31 0 -41 10 -41 40v205l-31 -17c-27 -15 -43 -9 -58 14l-18 30c-15 26 -7 41 17 55l98 56c15 9 27 12 47 12h25z" />
    <glyph glyph-name="twosuperior" unicode="&#xb2;" horiz-adv-x="370" 
d="M36 722c22 57 69 94 155 94c95 0 148 -56 148 -131c0 -71 -22 -112 -104 -137l-50 -13c-15 -4 -27 -8 -27 -12v-2h139c27 0 35 -11 35 -35v-39c0 -24 -8 -34 -34 -34h-230c-26 0 -36 8 -36 34v29c0 73 18 109 88 135l53 20c30 12 42 19 42 46c0 15 -10 27 -28 27
s-31 -6 -39 -23c-13 -28 -21 -36 -51 -25l-37 14c-27 10 -36 23 -24 52z" />
    <glyph glyph-name="threesuperior" unicode="&#xb3;" horiz-adv-x="373" 
d="M30 722c22 61 71 96 159 96c91 0 144 -44 144 -115c0 -41 -9 -61 -40 -81c41 -22 52 -61 52 -100c0 -73 -52 -115 -156 -115c-87 0 -139 30 -161 93c-9 27 -5 41 18 49l36 12c28 10 39 5 51 -23c9 -19 23 -27 54 -27c26 0 38 8 38 24c0 18 -9 26 -30 26h-29
c-28 0 -33 5 -33 34v35c0 31 4 36 36 36h19c18 0 31 4 31 24c0 18 -11 25 -31 25c-29 0 -43 -8 -52 -28c-12 -30 -24 -38 -58 -25l-26 10c-22 9 -32 22 -22 50z" />
    <glyph glyph-name="foursuperior" unicode="&#x2074;" horiz-adv-x="390" 
d="M330 586c30 0 34 -6 34 -30v-37c0 -26 -4 -31 -34 -31h-10v-40c0 -26 -6 -33 -32 -33h-46c-25 0 -31 7 -31 33v40h-160c-28 0 -35 8 -35 35v28c0 20 1 25 12 39l161 198c15 18 23 22 50 22h45c31 0 36 -7 36 -37v-187h10zM211 665l-64 -79h64v79z" />
    <glyph glyph-name="fivesuperior" unicode="&#x2075;" horiz-adv-x="368" 
d="M298 810c21 0 28 -7 28 -28v-43c0 -22 -5 -28 -28 -28h-141l-4 -32h40c101 0 148 -55 148 -130c0 -77 -54 -142 -152 -142c-89 0 -136 33 -160 94c-11 29 -4 40 18 49l36 14c28 9 37 7 49 -18c11 -25 25 -37 52 -37c26 0 43 13 43 39c0 22 -12 39 -40 39h-117
c-27 0 -34 9 -32 33l17 159c2 25 10 31 37 31h206z" />
    <glyph glyph-name="sixsuperior" unicode="&#x2076;" horiz-adv-x="382" 
d="M153 661c17 5 37 8 58 8c99 0 143 -50 143 -130c0 -85 -62 -132 -161 -132c-105 0 -160 50 -160 145v117c0 96 56 149 165 149c76 0 125 -32 146 -70c9 -17 3 -29 -16 -38l-49 -24c-24 -13 -31 -4 -39 7c-9 9 -19 19 -41 19c-31 0 -46 -9 -46 -38v-13zM153 548
c0 -25 12 -36 40 -36s40 9 40 27c0 19 -11 26 -40 26c-14 0 -28 -3 -40 -7v-10z" />
    <glyph glyph-name="sevensuperior" unicode="&#x2077;" horiz-adv-x="335" 
d="M289 810c25 0 31 -7 31 -30v-30c0 -17 -2 -27 -8 -39l-124 -272c-10 -22 -13 -24 -50 -24h-48c-32 0 -37 9 -22 41l113 245h-131c-26 0 -31 8 -31 31v46c0 27 8 32 31 32h239z" />
    <glyph glyph-name="eightsuperior" unicode="&#x2078;" horiz-adv-x="392" 
d="M40 701c0 73 59 117 156 117c102 0 156 -41 156 -106c0 -43 -20 -69 -44 -84c32 -20 56 -48 56 -96c0 -75 -49 -126 -168 -126c-120 0 -168 46 -168 108c0 50 32 79 62 95c-28 20 -50 49 -50 92zM234 698c0 15 -7 28 -39 28c-27 0 -37 -11 -37 -26c0 -19 22 -26 49 -36
c14 8 27 18 27 34zM239 528c0 20 -21 28 -51 38c-19 -10 -35 -22 -35 -38c0 -15 8 -29 45 -29c32 0 41 14 41 29z" />
    <glyph glyph-name="ninesuperior" unicode="&#x2079;" horiz-adv-x="382" 
d="M229 563c-17 -5 -36 -8 -58 -8c-98 0 -143 50 -143 130c0 85 62 133 161 133c105 0 161 -51 161 -146v-117c0 -96 -57 -148 -166 -148c-76 0 -125 31 -145 69c-10 17 -3 29 15 38l49 24c24 13 31 4 40 -6c8 -10 18 -20 41 -20c30 0 45 9 45 39v12zM229 676
c0 25 -12 36 -40 36c-27 0 -39 -9 -39 -26c0 -20 11 -27 39 -27c14 0 28 3 40 7v10z" />
    <glyph glyph-name="asterisk" unicode="*" horiz-adv-x="354" 
d="M197 675c18 0 24 -7 20 -24l-12 -76l69 36c16 8 24 4 30 -13l13 -37c4 -16 1 -25 -18 -28l-77 -11l55 -54c13 -12 12 -22 -2 -33l-31 -22c-15 -10 -25 -8 -33 8l-33 66l-34 -66c-8 -16 -18 -19 -32 -9l-32 23c-15 11 -16 21 -2 33l55 54l-76 11c-19 3 -23 12 -18 29
l13 36c6 17 14 21 30 13l68 -36l-12 76c-4 16 2 24 20 24h39z" />
    <glyph glyph-name="backslash" unicode="\" horiz-adv-x="465" 
d="M25 676c-8 24 -3 34 24 34h80c28 0 39 -7 49 -34l263 -702c8 -24 3 -34 -25 -34h-80c-27 0 -38 7 -49 34z" />
    <glyph glyph-name="periodcentered" unicode="&#xb7;" horiz-adv-x="272" 
d="M144 380c58 0 76 -18 76 -76v-19c0 -57 -18 -75 -76 -75h-17c-57 0 -75 18 -75 75v19c0 58 18 76 75 76h17z" />
    <glyph glyph-name="bullet" unicode="&#x2022;" horiz-adv-x="393" 
d="M197 126c-79 0 -137 60 -137 138s58 137 137 137c78 0 136 -59 136 -137s-58 -138 -136 -138z" />
    <glyph glyph-name="colon" unicode=":" horiz-adv-x="271" 
d="M144 512c57 0 76 -18 76 -76v-19c0 -57 -19 -75 -76 -75h-17c-57 0 -75 18 -75 75v19c0 58 18 76 75 76h17zM144 162c57 0 76 -18 76 -76v-19c0 -57 -19 -75 -76 -75h-17c-57 0 -75 18 -75 75v19c0 58 18 76 75 76h17z" />
    <glyph glyph-name="comma" unicode="," horiz-adv-x="243" 
d="M134 -85c-9 -27 -19 -37 -47 -37h-34c-24 0 -28 6 -26 28l23 203c5 34 16 45 49 45h64c38 0 48 -16 38 -45z" />
    <glyph glyph-name="ellipsis" unicode="&#x2026;" horiz-adv-x="761" 
d="M133 162c57 0 76 -18 76 -76v-19c0 -57 -19 -75 -76 -75h-17c-57 0 -75 18 -75 75v19c0 58 18 76 75 76h17zM389 162c57 0 75 -18 75 -76v-19c0 -57 -18 -75 -75 -75h-17c-57 0 -76 18 -76 75v19c0 58 19 76 76 76h17zM644 162c57 0 76 -18 76 -76v-19
c0 -57 -19 -75 -76 -75h-17c-57 0 -75 18 -75 75v19c0 58 18 76 75 76h17z" />
    <glyph glyph-name="exclam" unicode="!" horiz-adv-x="264" 
d="M173 740c28 0 38 -9 37 -37l-16 -444c-1 -27 -9 -36 -37 -36h-50c-28 0 -36 9 -37 36l-15 444c-1 28 9 37 36 37h82zM142 160c57 0 75 -18 75 -75v-18c0 -57 -18 -75 -75 -75h-21c-57 0 -75 18 -75 75v18c0 57 18 75 75 75h21z" />
    <glyph glyph-name="exclamdown" unicode="&#xa1;" horiz-adv-x="256" 
d="M117 360c-57 0 -75 18 -75 75v18c0 57 18 75 75 75h21c57 0 75 -18 75 -75v-18c0 -57 -18 -75 -75 -75h-21zM88 -220c-28 0 -38 9 -37 37l15 444c1 27 9 36 37 36h50c28 0 36 -9 37 -36l16 -444c1 -28 -9 -37 -37 -37h-81z" />
    <glyph glyph-name="numbersign" unicode="#" horiz-adv-x="736" 
d="M681 519c29 0 35 -9 28 -35l-19 -64c-8 -26 -21 -34 -49 -34h-66l-30 -101h68c28 0 36 -9 28 -36l-20 -64c-8 -25 -21 -34 -49 -34h-67l-34 -114c-8 -27 -20 -37 -47 -37h-68c-28 0 -35 10 -27 37l34 114h-100l-34 -114c-8 -27 -20 -37 -47 -37h-68c-28 0 -35 10 -27 37
l35 114h-67c-27 0 -35 10 -27 36l19 64c8 27 21 34 49 34h65l31 101h-68c-27 0 -35 9 -27 36l20 64c7 26 20 33 48 33h66l35 117c8 27 19 37 47 37h68c27 0 34 -10 26 -37l-35 -117h101l35 117c8 27 19 37 47 37h68c27 0 34 -10 26 -37l-35 -117h67zM333 386l-30 -101h100
l31 101h-101z" />
    <glyph glyph-name="period" unicode="." horiz-adv-x="250" 
d="M133 162c57 0 76 -18 76 -76v-19c0 -57 -19 -75 -76 -75h-17c-57 0 -75 18 -75 75v19c0 58 18 76 75 76h17z" />
    <glyph glyph-name="question" unicode="?" horiz-adv-x="579" 
d="M29 571c39 100 120 168 268 168c161 0 254 -91 254 -207c0 -152 -108 -187 -171 -226c-28 -17 -48 -35 -48 -64c0 -30 -10 -39 -39 -39h-59c-28 0 -39 9 -39 39c0 93 43 132 89 161c52 32 107 52 107 123c0 45 -32 77 -96 77c-67 0 -97 -29 -121 -83
c-13 -30 -24 -36 -52 -26l-68 25c-28 10 -37 24 -25 52zM275 160c57 0 76 -18 76 -75v-18c0 -57 -19 -75 -76 -75h-20c-57 0 -76 18 -76 75v18c0 57 19 75 76 75h20z" />
    <glyph glyph-name="questiondown" unicode="&#xbf;" horiz-adv-x="574" 
d="M302 359c-57 0 -75 18 -75 75v17c0 57 18 76 75 76h21c57 0 75 -19 75 -76v-17c0 -57 -18 -75 -75 -75h-21zM549 -52c-40 -100 -121 -168 -269 -168c-161 0 -254 91 -254 207c0 151 108 186 171 226c28 17 48 35 48 64c0 30 10 39 39 39h59c29 0 39 -9 39 -39
c0 -93 -43 -132 -89 -161c-52 -32 -106 -53 -106 -123c0 -45 31 -77 95 -77c67 0 97 29 121 83c14 29 24 35 52 25l68 -24c29 -11 37 -24 26 -52z" />
    <glyph glyph-name="quotedbl" unicode="&#x22;" horiz-adv-x="382" 
d="M165 477c-2 -28 -8 -31 -36 -31h-45c-28 0 -34 3 -34 31v200c0 28 6 33 34 33h64c27 0 36 -5 33 -33zM325 477c-3 -28 -9 -31 -37 -31h-45c-27 0 -33 3 -33 31v200c0 28 6 33 33 33h64c28 0 36 -5 34 -33z" />
    <glyph glyph-name="quotesingle" unicode="'" horiz-adv-x="223" 
d="M165 477c-2 -28 -8 -31 -36 -31h-45c-28 0 -34 3 -34 31v200c0 28 6 33 34 33h64c27 0 36 -5 33 -33z" />
    <glyph glyph-name="semicolon" unicode=";" horiz-adv-x="275" 
d="M154 512c57 0 75 -18 75 -76v-19c0 -57 -18 -75 -75 -75h-17c-57 0 -76 18 -76 75v19c0 58 19 76 76 76h17zM144 -85c-9 -27 -19 -37 -47 -37h-35c-23 0 -28 6 -26 28l24 203c4 34 16 45 48 45h65c38 0 48 -16 37 -45z" />
    <glyph glyph-name="slash" unicode="/" horiz-adv-x="465" 
d="M178 -26c-10 -27 -21 -34 -49 -34h-80c-27 0 -32 10 -24 34l262 703c10 27 22 34 49 34h80c27 0 33 -10 24 -34z" />
    <glyph glyph-name="underscore" unicode="_" horiz-adv-x="496" 
d="M437 0c31 0 41 -10 41 -41v-61c0 -30 -10 -41 -41 -41h-378c-31 0 -41 11 -41 41v61c0 31 10 41 41 41h378z" />
    <glyph glyph-name="braceleft" unicode="{" horiz-adv-x="375" 
d="M318 856c27 0 36 -9 36 -37v-61c0 -27 -9 -36 -36 -36h-48c-12 0 -21 -10 -21 -21v-219c0 -63 -33 -105 -74 -130c53 -22 74 -67 74 -131v-213c0 -11 9 -21 20 -21h49c27 0 36 -9 36 -36v-61c0 -28 -9 -37 -36 -37h-65c-111 0 -147 42 -147 137v206c0 42 -13 80 -60 80
h-6c-23 0 -31 11 -31 37v77c0 25 7 37 30 37h7c47 0 60 39 60 80v211c0 95 37 138 145 138h67z" />
    <glyph glyph-name="braceright" unicode="}" horiz-adv-x="375" 
d="M124 856c108 0 145 -43 145 -138v-211c0 -41 13 -80 61 -80h6c23 0 30 -12 30 -37v-77c0 -26 -8 -37 -30 -37h-6c-48 0 -61 -38 -61 -80v-206c0 -95 -36 -137 -147 -137h-65c-27 0 -36 9 -36 37v61c0 27 9 36 36 36h49c11 0 21 10 21 21v213c0 64 20 109 73 131
c-41 25 -73 67 -73 130v219c0 11 -10 21 -22 21h-48c-27 0 -36 9 -36 36v61c0 28 9 37 36 37h67z" />
    <glyph glyph-name="bracketleft" unicode="[" horiz-adv-x="327" 
d="M269 856c31 0 36 -5 36 -36v-56c0 -31 -5 -36 -36 -36h-68v-746h68c31 0 36 -5 36 -35v-58c0 -30 -5 -35 -36 -35h-175c-31 0 -37 6 -37 36v929c0 31 6 37 37 37h175z" />
    <glyph glyph-name="bracketright" unicode="]" horiz-adv-x="327" 
d="M233 856c31 0 37 -6 37 -37v-929c0 -30 -6 -36 -37 -36h-175c-31 0 -36 5 -36 35v58c0 30 5 35 36 35h68v746h-68c-31 0 -36 5 -36 36v56c0 31 5 36 36 36h175z" />
    <glyph glyph-name="parenleft" unicode="(" horiz-adv-x="305" 
d="M49 606c0 137 52 212 145 255c26 11 37 3 50 -24l32 -64c12 -26 5 -36 -20 -50c-39 -20 -60 -50 -60 -111v-513c0 -62 21 -92 60 -112c25 -14 33 -24 20 -50l-32 -64c-13 -27 -24 -35 -50 -24c-93 43 -145 118 -145 256v501z" />
    <glyph glyph-name="parenright" unicode=")" horiz-adv-x="305" 
d="M60 837c14 27 25 35 50 24c94 -43 146 -118 146 -255v-501c0 -138 -52 -213 -146 -256c-25 -11 -36 -3 -50 24l-32 64c-11 26 -5 36 21 50c39 20 59 50 59 112v513c0 61 -20 91 -59 111c-26 14 -32 24 -21 50z" />
    <glyph glyph-name="emdash" unicode="&#x2014;" horiz-adv-x="767" 
d="M675 338c30 0 40 -10 40 -41v-62c0 -31 -10 -41 -40 -41h-583c-30 0 -40 10 -40 41v62c0 31 10 41 40 41h583z" />
    <glyph glyph-name="endash" unicode="&#x2013;" horiz-adv-x="565" 
d="M472 338c31 0 41 -10 41 -41v-61c0 -31 -10 -41 -41 -41h-379c-30 0 -41 10 -41 41v61c0 31 11 41 41 41h379z" />
    <glyph glyph-name="hyphen" unicode="-" horiz-adv-x="406" 
d="M314 336c31 0 41 -10 41 -41v-61c0 -31 -10 -41 -41 -41h-222c-30 0 -41 10 -41 41v61c0 31 11 41 41 41h222z" />
    <glyph glyph-name="guillemotleft" unicode="&#xab;" horiz-adv-x="612" 
d="M312 148c17 -16 17 -28 0 -45l-47 -48c-18 -16 -29 -16 -46 0l-185 184c-16 18 -16 29 0 46l190 191c17 16 29 17 46 0l44 -46c17 -18 17 -27 0 -44l-119 -121zM559 148c16 -16 16 -28 0 -45l-47 -48c-18 -16 -30 -16 -46 0l-184 184c-18 18 -18 29 0 46l189 191
c16 16 29 17 46 0l44 -46c17 -18 17 -27 0 -44l-120 -121z" />
    <glyph glyph-name="guillemotright" unicode="&#xbb;" horiz-adv-x="612" 
d="M298 386c-17 17 -17 26 0 44l44 46c17 17 30 17 46 0l190 -191c16 -17 16 -28 0 -46l-185 -184c-17 -16 -28 -16 -45 0l-48 48c-17 17 -17 29 0 45l117 117zM51 386c-17 17 -17 27 0 44l44 46c17 17 30 16 46 0l189 -191c18 -17 18 -28 0 -46l-184 -184
c-16 -16 -28 -17 -46 0l-47 48c-16 17 -16 29 0 45l118 117z" />
    <glyph glyph-name="guilsinglleft" unicode="&#x2039;" horiz-adv-x="365" 
d="M312 148c17 -16 17 -28 0 -45l-47 -48c-18 -16 -29 -16 -46 0l-185 184c-16 18 -16 29 0 46l190 191c16 17 29 17 46 0l44 -46c17 -18 17 -27 0 -44l-119 -121z" />
    <glyph glyph-name="guilsinglright" unicode="&#x203a;" horiz-adv-x="365" 
d="M51 386c-17 17 -17 26 0 44l44 46c17 17 30 17 46 0l189 -191c17 -17 17 -28 0 -46l-184 -184c-17 -16 -28 -16 -46 0l-47 48c-17 17 -17 29 0 45l117 117z" />
    <glyph glyph-name="quotedblbase" unicode="&#x201e;" horiz-adv-x="422" 
d="M134 -85c-9 -27 -19 -37 -47 -37h-34c-24 0 -28 6 -26 28l23 203c5 34 16 45 49 45h64c38 0 48 -16 38 -45zM313 -85c-9 -27 -19 -37 -47 -37h-35c-23 0 -28 6 -26 28l24 203c4 34 16 45 49 45h64c38 0 48 -16 37 -45z" />
    <glyph glyph-name="quotedblleft" unicode="&#x201c;" horiz-adv-x="423" 
d="M99 673c10 27 20 37 48 37h34c24 0 28 -6 26 -28l-24 -203c-4 -34 -15 -45 -48 -45h-64c-38 0 -48 16 -38 45zM278 673c9 27 19 37 47 37h35c23 0 28 -6 25 -28l-23 -203c-4 -34 -16 -45 -49 -45h-64c-38 0 -48 16 -37 45z" />
    <glyph glyph-name="quotedblright" unicode="&#x201d;" horiz-adv-x="416" 
d="M149 471c-10 -26 -19 -37 -48 -37h-34c-23 0 -28 6 -26 28l24 203c4 35 15 45 48 45h64c39 0 48 -15 38 -45zM327 471c-9 -26 -19 -37 -47 -37h-34c-24 0 -28 6 -26 28l23 203c5 35 16 45 49 45h64c38 0 48 -15 38 -45z" />
    <glyph glyph-name="quoteleft" unicode="&#x2018;" horiz-adv-x="244" 
d="M99 673c10 27 20 37 48 37h34c24 0 28 -6 26 -28l-24 -203c-4 -34 -15 -45 -48 -45h-64c-38 0 -48 16 -38 45z" />
    <glyph glyph-name="quoteright" unicode="&#x2019;" horiz-adv-x="238" 
d="M149 471c-10 -26 -19 -36 -48 -36h-34c-23 0 -28 6 -26 27l24 204c4 34 15 44 48 44h64c39 0 48 -15 38 -44z" />
    <glyph glyph-name="quotesinglbase" unicode="&#x201a;" horiz-adv-x="225" 
d="M161 -117c-3 -28 -12 -37 -39 -37h-41c-27 0 -36 9 -36 37v190c0 28 9 37 36 37h64c28 0 40 -9 37 -37z" />
    <glyph glyph-name="CR" horiz-adv-x="322" 
 />
    <glyph glyph-name=".null" horiz-adv-x="600" 
 />
    <glyph glyph-name="Euro" unicode="&#x20ac;" horiz-adv-x="746" 
d="M142 485c2 147 117 240 295 240c133 0 213 -42 258 -115c19 -30 12 -52 -19 -67l-60 -27c-32 -17 -46 -11 -65 15c-3 2 -30 45 -115 45c-75 0 -129 -31 -129 -88v-9h209c27 0 34 -9 27 -34l-12 -41c-8 -24 -20 -32 -47 -32h-183v-43h171c26 0 34 -9 26 -34l-12 -41
c-8 -24 -20 -32 -47 -32h-132v-6c6 -61 61 -83 128 -83c81 0 111 44 114 47c19 26 33 32 65 15l62 -28c31 -15 37 -36 19 -67c-43 -72 -126 -115 -258 -115c-174 0 -281 75 -294 229v8h-90c-27 0 -33 9 -27 34l12 41c8 25 20 32 47 32h58v43h-46c-26 0 -33 9 -26 34l12 41
c8 25 20 32 47 32h12v6z" />
    <glyph glyph-name="uni20BD" unicode="&#x20bd;" horiz-adv-x="684" 
d="M266 204h271c28 0 37 -9 37 -37v-39c0 -27 -9 -36 -37 -36h-271v-51c0 -31 -10 -41 -41 -41h-81c-30 0 -40 10 -40 41v51h-35c-28 0 -37 9 -37 36v39c0 28 9 37 37 37h35v465c0 31 10 41 40 41h279c145 0 234 -84 234 -229c0 -144 -89 -227 -234 -227h-157v-50zM266 400
h138c55 0 84 32 84 82c0 49 -29 81 -85 81h-137v-163z" />
    <glyph glyph-name="cent" unicode="&#xa2;" horiz-adv-x="539" 
d="M476 170c27 -9 37 -23 25 -53c-26 -63 -75 -106 -150 -124v-40c0 -28 -9 -37 -36 -37h-73c-27 0 -36 9 -36 37v38c-113 19 -163 94 -163 206v126c0 108 51 183 163 205v45c0 28 9 37 36 37h73c27 0 36 -9 36 -37v-45c79 -18 129 -68 149 -126c10 -29 2 -42 -25 -52
l-65 -21c-28 -11 -41 -4 -53 25c-13 32 -39 51 -82 51c-54 0 -81 -26 -81 -75v-140c0 -49 28 -75 81 -75c43 0 69 19 82 51c12 28 24 33 53 24z" />
    <glyph glyph-name="currency" unicode="&#xa4;" horiz-adv-x="626" 
d="M569 186c20 -19 20 -33 0 -52l-53 -53c-19 -19 -32 -19 -52 0l-49 49c-30 -16 -64 -24 -101 -24s-72 8 -103 24l-49 -49c-19 -19 -32 -19 -52 0l-53 53c-19 19 -19 33 0 52l50 50c-16 30 -24 64 -24 101s8 71 24 101l-50 50c-19 19 -19 33 0 52l53 53c20 19 33 19 52 0
l49 -49c31 16 66 24 103 24s71 -8 101 -24l49 49c20 19 33 19 52 0l53 -53c20 -19 20 -33 0 -52l-48 -48c16 -31 24 -66 24 -103s-8 -72 -24 -103zM314 435c-54 0 -98 -43 -99 -98c1 -55 45 -98 99 -98c55 0 98 43 98 98s-43 98 -98 98z" />
    <glyph glyph-name="dollar" unicode="$" horiz-adv-x="601" 
d="M340 767c28 0 37 -9 37 -36v-41c87 -15 139 -60 172 -130c14 -28 8 -43 -23 -56l-69 -31c-27 -12 -40 -8 -55 20c-18 36 -43 58 -101 58c-70 0 -101 -15 -101 -58c0 -41 53 -52 119 -59c110 -12 252 -31 252 -207c0 -107 -70 -181 -194 -204v-43c0 -28 -9 -37 -37 -37
h-76c-27 0 -37 9 -37 37v41c-98 15 -164 68 -193 146c-10 28 -1 44 27 54l68 24c30 11 43 6 56 -24c16 -40 51 -61 110 -61c73 0 114 17 114 64c0 44 -52 54 -118 61c-110 13 -255 37 -255 208c0 104 65 177 191 197v41c0 27 10 36 37 36h76z" />
    <glyph glyph-name="florin" unicode="&#x192;" horiz-adv-x="472" 
d="M170 513c14 142 83 227 248 227c28 0 37 -9 37 -38v-62c0 -28 -9 -37 -37 -37c-71 0 -91 -34 -97 -94l-10 -88h86c27 0 37 -9 37 -37v-64c0 -27 -10 -36 -37 -36h-100l-28 -277c-15 -142 -84 -227 -248 -227c-28 0 -37 9 -37 38v62c0 28 9 37 37 37c70 0 91 35 97 94
l28 273h-79c-27 0 -37 9 -37 36v64c0 28 10 37 37 37h93z" />
    <glyph glyph-name="sterling" unicode="&#xa3;" horiz-adv-x="657" 
d="M114 505c0 117 88 220 245 220c145 0 223 -64 261 -156c11 -29 3 -42 -26 -52l-76 -28c-29 -10 -37 -3 -52 25c-23 43 -50 62 -101 62s-83 -34 -83 -79v-97h192c31 0 41 -10 41 -40v-52c0 -30 -10 -40 -41 -40h-193v-35c-1 -51 -20 -77 -48 -97v-6c23 5 83 17 162 17h178
c30 0 40 -11 40 -41v-65c0 -31 -10 -41 -40 -41h-494c-31 0 -40 10 -40 41v66c0 18 6 33 22 34h4c36 13 47 42 48 89v38h-32c-31 0 -41 10 -41 40v52c0 30 10 40 41 40h33v105z" />
    <glyph glyph-name="yen" unicode="&#xa5;" horiz-adv-x="675" 
d="M625 710c30 0 34 -18 21 -41l-176 -285h57c27 0 36 -9 36 -36v-39c0 -26 -9 -35 -36 -35h-110v-43h110c27 0 36 -9 36 -35v-39c0 -27 -9 -36 -36 -36h-108v-80c0 -31 -10 -41 -41 -41h-81c-30 0 -40 10 -40 41v80h-109c-26 0 -36 9 -36 36v39c0 26 10 35 36 35h110v43
h-110c-26 0 -36 9 -36 35v39c0 27 10 36 36 36h58l-176 285c-14 23 -9 41 20 41h85c48 0 62 -1 80 -36l126 -233l126 233c18 35 31 36 79 36h79z" />
    <glyph glyph-name="approxequal" unicode="&#x2248;" horiz-adv-x="566" 
d="M62 465c33 31 74 49 125 50c67 2 122 -36 170 -33c20 1 36 9 49 19c23 20 34 20 53 -2l43 -48c20 -22 23 -37 0 -58c-33 -29 -72 -47 -121 -50c-75 -3 -119 33 -170 33c-22 0 -40 -8 -53 -19c-24 -20 -35 -20 -54 2l-42 48c-21 22 -24 37 0 58zM64 270
c32 30 73 49 123 50c70 2 120 -34 169 -33c21 1 39 8 52 20c24 19 34 19 54 -2l42 -48c20 -22 24 -38 0 -58c-31 -30 -70 -48 -118 -50c-74 -4 -118 33 -173 33c-22 -1 -39 -8 -53 -20c-24 -19 -34 -19 -54 2l-42 49c-20 22 -24 37 0 57z" />
    <glyph glyph-name="asciitilde" unicode="~" horiz-adv-x="559" 
d="M61 360c34 31 75 49 127 49c79 0 107 -33 158 -33c22 0 40 8 54 20c23 19 32 18 53 -2l45 -43c21 -20 23 -36 0 -57c-34 -30 -76 -49 -127 -49c-79 0 -107 33 -158 33c-23 0 -40 -8 -54 -19c-24 -20 -33 -18 -53 2l-45 42c-21 20 -23 37 0 57z" />
    <glyph glyph-name="divide" unicode="&#xf7;" horiz-adv-x="546" 
d="M283 591c57 0 75 -18 75 -74v-11c0 -56 -18 -74 -75 -74h-20c-57 0 -75 18 -75 74v11c0 56 18 74 75 74h20zM473 397c30 0 40 -10 40 -41v-61c0 -31 -10 -41 -40 -41h-400c-30 0 -40 10 -40 41v61c0 31 10 41 40 41h400zM283 219c57 0 75 -18 75 -74v-10
c0 -57 -18 -75 -75 -75h-20c-57 0 -75 18 -75 75v10c0 56 18 74 75 74h20z" />
    <glyph glyph-name="equal" unicode="=" horiz-adv-x="588" 
d="M493 501c31 0 41 -11 41 -41v-62c0 -31 -10 -41 -41 -41h-399c-30 0 -41 10 -41 41v62c0 30 11 41 41 41h399zM493 296c31 0 41 -10 41 -41v-62c0 -30 -10 -41 -41 -41h-399c-30 0 -41 11 -41 41v62c0 31 11 41 41 41h399z" />
    <glyph glyph-name="greater" unicode="&#x3e;" horiz-adv-x="482" 
d="M49 552c0 36 12 48 43 31l332 -181c24 -14 33 -23 33 -50v-50c0 -27 -9 -37 -33 -51l-332 -180c-31 -17 -43 -5 -43 30v65c0 44 9 52 37 66l185 91v5l-184 90c-29 14 -38 21 -38 66v68z" />
    <glyph glyph-name="greaterequal" unicode="&#x2265;" horiz-adv-x="517" 
d="M57 614c0 36 10 46 42 30l339 -149c26 -12 33 -23 33 -51v-42c0 -28 -7 -38 -33 -50l-339 -150c-32 -16 -42 -5 -42 30v58c0 45 7 55 37 66l186 66v6l-187 68c-29 11 -36 22 -36 66v52zM430 176c31 0 41 -10 41 -41v-52c0 -31 -10 -41 -41 -41h-333c-30 0 -40 10 -40 41
v52c0 31 10 41 40 41h333z" />
    <glyph glyph-name="infinity" unicode="&#x221e;" horiz-adv-x="720" 
d="M362 372c32 48 85 91 152 91c101 0 169 -73 169 -177c0 -107 -85 -178 -175 -178c-63 0 -116 32 -147 84c-26 -39 -77 -84 -152 -84c-96 0 -172 76 -172 175c0 104 74 180 177 180c66 0 114 -37 148 -91zM283 287c-23 25 -41 48 -72 48c-34 0 -51 -22 -51 -48
c0 -28 19 -51 50 -51c28 0 50 21 73 51zM563 287c0 24 -16 48 -51 48c-29 0 -48 -18 -71 -48c26 -35 44 -51 72 -51c32 0 50 26 50 51z" />
    <glyph glyph-name="integral" unicode="&#x222b;" horiz-adv-x="400" 
d="M124 523c0 143 63 217 227 217c29 0 38 -9 38 -38v-62c0 -28 -9 -37 -38 -37c-67 0 -76 -27 -76 -86v-520c0 -143 -63 -217 -227 -217c-29 0 -38 9 -38 38v62c0 28 9 37 38 37c67 0 76 27 76 85v521z" />
    <glyph glyph-name="less" unicode="&#x3c;" horiz-adv-x="482" 
d="M390 582c31 17 42 5 42 -31v-63c0 -44 -8 -52 -36 -66l-185 -91v-5l184 -90c29 -14 37 -21 37 -66v-69c0 -36 -11 -48 -42 -31l-332 181c-25 14 -33 23 -33 50v50c0 27 8 37 33 51z" />
    <glyph glyph-name="lessequal" unicode="&#x2264;" horiz-adv-x="517" 
d="M461 562c0 -44 -7 -55 -37 -66l-187 -68v-6l186 -66c31 -11 38 -21 38 -66v-58c0 -35 -10 -46 -43 -30l-339 150c-25 12 -32 22 -32 50v42c0 28 7 39 32 51l339 149c33 16 43 6 43 -30v-52zM420 176c31 0 41 -10 41 -41v-52c0 -31 -10 -41 -41 -41h-333
c-30 0 -40 10 -40 41v52c0 31 10 41 40 41h333z" />
    <glyph glyph-name="logicalnot" unicode="&#xac;" horiz-adv-x="593" 
d="M501 421c27 0 36 -9 36 -36v-213c0 -28 -9 -37 -36 -37h-77c-27 0 -37 9 -37 37v111h-307c-27 0 -36 9 -36 37v65c0 27 9 36 36 36h421z" />
    <glyph glyph-name="minus" unicode="&#x2212;" horiz-adv-x="586" 
d="M493 398c30 0 40 -10 40 -41v-62c0 -31 -10 -41 -40 -41h-400c-30 0 -40 10 -40 41v62c0 31 10 41 40 41h400z" />
    <glyph glyph-name="multiply" unicode="&#xd7;" horiz-adv-x="521" 
d="M464 216c21 -21 21 -35 0 -55l-40 -40c-20 -21 -33 -21 -55 0l-109 109l-108 -108c-21 -21 -35 -21 -55 0l-40 40c-20 19 -20 33 0 55l108 108l-108 108c-21 22 -20 36 0 55l40 40c20 21 34 21 55 0l108 -108l109 109c22 21 35 21 55 0l40 -40c21 -20 21 -34 0 -55
l-109 -109z" />
    <glyph glyph-name="notequal" unicode="&#x2260;" horiz-adv-x="579" 
d="M315 296h174c30 0 40 -10 40 -41v-62c0 -30 -10 -41 -40 -41h-247l-39 -75c-6 -12 -9 -12 -25 -12h-56c-9 0 -10 6 -6 14l38 73h-64c-31 0 -41 11 -41 41v62c0 31 10 41 41 41h138l31 61h-169c-31 0 -41 10 -41 41v62c0 30 10 41 41 41h243l38 74c6 12 10 12 23 12h57
c9 0 10 -6 6 -13l-38 -73h70c30 0 40 -11 40 -41v-62c0 -31 -10 -41 -40 -41h-142z" />
    <glyph glyph-name="partialdiff" unicode="&#x2202;" horiz-adv-x="556" 
d="M107 706c0 28 9 38 37 38c270 0 367 -104 367 -351v-198c0 -131 -82 -210 -238 -210c-158 0 -239 79 -239 210v99c0 129 86 207 210 207c65 0 101 -14 125 -38c-10 99 -67 144 -221 144c-30 0 -39 9 -40 37zM359 296c0 49 -29 75 -86 75c-58 0 -87 -26 -87 -75v-102
c0 -48 29 -75 87 -75c57 0 86 27 86 75v102z" />
    <glyph glyph-name="percent" unicode="%" horiz-adv-x="847" 
d="M28 574c0 94 60 152 172 152s172 -58 172 -152v-72c0 -92 -60 -149 -172 -149s-172 57 -172 149v72zM718 710c27 0 34 -18 19 -39l-466 -635c-24 -32 -32 -36 -80 -36h-59c-30 0 -36 19 -21 41l468 635c22 30 31 34 75 34h64zM252 568c0 28 -17 43 -52 43
c-34 0 -52 -15 -52 -43v-57c0 -29 18 -45 52 -45c35 0 52 16 52 45v57zM474 206c0 93 60 151 172 151s172 -58 172 -151v-72c0 -93 -60 -150 -172 -150s-172 57 -172 150v72zM698 199c0 29 -17 44 -52 44c-34 0 -52 -15 -52 -44v-57c0 -28 18 -44 52 -44c35 0 52 16 52 44
v57z" />
    <glyph glyph-name="perthousand" unicode="&#x2030;" horiz-adv-x="1220" 
d="M28 574c0 94 60 152 172 152s172 -58 172 -152v-72c0 -92 -60 -149 -172 -149s-172 57 -172 149v72zM718 710c27 0 34 -18 19 -39l-466 -635c-24 -32 -32 -36 -80 -36h-59c-30 0 -36 19 -21 41l468 635c22 30 31 34 75 34h64zM252 568c0 28 -17 43 -52 43
c-34 0 -52 -15 -52 -43v-57c0 -29 18 -45 52 -45c35 0 52 16 52 45v57zM474 206c0 93 60 151 172 151s172 -58 172 -151v-72c0 -93 -60 -150 -172 -150s-172 57 -172 150v72zM850 206c0 93 60 151 171 151c112 0 172 -58 172 -151v-72c0 -93 -60 -150 -172 -150
c-111 0 -171 57 -171 150v72zM698 199c0 29 -17 44 -52 44c-34 0 -52 -15 -52 -44v-57c0 -28 18 -44 52 -44c35 0 52 16 52 44v57zM1074 199c0 29 -18 44 -52 44c-35 0 -52 -15 -52 -44v-57c0 -28 17 -44 52 -44c34 0 52 16 52 44v57z" />
    <glyph glyph-name="plus" unicode="+" horiz-adv-x="539" 
d="M469 397c31 0 41 -11 41 -41v-57c0 -30 -10 -41 -41 -41h-131v-131c0 -30 -10 -40 -40 -40h-57c-31 0 -41 10 -41 40v131h-130c-30 0 -41 11 -41 41v57c0 30 11 41 41 41h130v130c0 30 10 40 41 40h57c30 0 40 -10 40 -40v-130h131z" />
    <glyph glyph-name="plusminus" unicode="&#xb1;" horiz-adv-x="581" 
d="M490 468c30 0 41 -10 41 -41v-47c0 -31 -11 -41 -41 -41h-133v-61c0 -31 -10 -41 -41 -41h-53c-30 0 -41 10 -41 41v61h-131c-31 0 -41 10 -41 41v47c0 31 10 41 41 41h131v65c0 31 11 41 41 41h53c31 0 41 -10 41 -41v-65h133zM490 213c31 0 41 -11 41 -41v-49
c0 -31 -10 -41 -41 -41h-399c-31 0 -41 10 -41 41v49c0 30 10 41 41 41h399z" />
    <glyph glyph-name="product" unicode="&#x220f;" horiz-adv-x="711" 
d="M643 710c31 0 41 -10 41 -41v-67c0 -30 -10 -40 -41 -40h-49v-621c0 -31 -10 -41 -40 -41h-81c-31 0 -41 10 -41 41v621h-153v-621c0 -31 -11 -41 -41 -41h-81c-30 0 -41 10 -41 41v621h-49c-30 0 -40 10 -40 40v67c0 31 10 41 40 41h576z" />
    <glyph glyph-name="radical" unicode="&#x221a;" horiz-adv-x="737" 
d="M704 751c30 0 35 -12 27 -40l-248 -783c-9 -28 -22 -34 -50 -34h-76c-28 0 -41 6 -50 32l-136 373h-115c-30 0 -41 10 -41 41v61c0 31 11 41 41 41h169c51 0 65 -7 75 -36l66 -197c25 -75 26 -160 26 -160h9s3 85 24 159l142 507c9 29 19 36 68 36h69z" />
    <glyph glyph-name="summation" unicode="&#x2211;" horiz-adv-x="607" 
d="M378 355c23 -35 25 -55 0 -93l-138 -213h290c30 0 41 -11 41 -41v-67c0 -31 -11 -41 -41 -41h-455c-31 0 -41 10 -41 41v58c0 16 4 28 13 41l178 268l-173 262c-9 12 -13 24 -13 41v58c0 31 10 41 41 41h445c30 0 41 -10 41 -41v-67c0 -30 -11 -40 -41 -40h-280z" />
    <glyph glyph-name="uni2215" unicode="&#x2215;" horiz-adv-x="639" 
d="M475 676c21 30 30 34 74 34h65c28 0 34 -18 19 -39l-467 -635c-23 -32 -32 -36 -80 -36h-59c-29 0 -36 19 -20 41z" />
    <glyph glyph-name="uni2219" unicode="&#x2219;" horiz-adv-x="266" 
d="M141 355c58 0 76 -18 76 -76v-19c0 -57 -18 -75 -76 -75h-17c-57 0 -75 18 -75 75v19c0 58 18 76 75 76h17z" />
    <glyph glyph-name="arrowup" unicode="&#x2191;" horiz-adv-x="745" 
d="M620 431c16 -17 18 -28 0 -44l-41 -40c-16 -16 -26 -17 -42 0l-103 103v-419c0 -24 -9 -33 -33 -33h-56c-24 0 -33 9 -33 33v418l-104 -103c-16 -16 -25 -15 -42 0l-41 41c-18 16 -16 27 0 44l217 217c21 22 40 22 60 0z" />
    <glyph glyph-name="uni2197" unicode="&#x2197;" horiz-adv-x="745" 
d="M479 586c23 0 32 -8 32 -32v-58c0 -23 -8 -31 -31 -31h-146l296 -295c16 -18 17 -31 0 -47l-40 -39c-18 -17 -29 -18 -46 0l-296 295v-144c0 -21 -5 -31 -27 -31h-61c-23 0 -30 8 -30 31v308c0 30 12 43 42 43h307z" />
    <glyph glyph-name="arrowright" unicode="&#x2192;" horiz-adv-x="745" 
d="M691 365c22 -21 22 -40 0 -61l-218 -217c-16 -17 -27 -18 -43 0l-40 41c-16 16 -16 25 0 41l103 105h-420c-23 0 -32 9 -32 33v53c0 23 9 33 32 33h421l-105 106c-17 16 -16 25 0 41l41 42c16 18 27 16 43 0z" />
    <glyph glyph-name="uni2198" unicode="&#x2198;" horiz-adv-x="745" 
d="M154 568c18 17 29 18 47 0l295 -295v144c0 21 6 31 27 31h61c23 0 31 -8 31 -31v-308c0 -30 -13 -43 -42 -43h-308c-22 0 -31 8 -31 32v58c0 23 7 31 30 31h146l-296 295c-16 18 -17 31 0 47z" />
    <glyph glyph-name="arrowdown" unicode="&#x2193;" horiz-adv-x="745" 
d="M401 659c24 0 33 -9 33 -32v-419l103 103c16 16 26 15 42 0l41 -41c18 -16 16 -27 0 -43l-218 -218c-20 -22 -39 -22 -60 0l-217 218c-16 16 -18 27 0 43l41 41c17 15 26 16 42 0l104 -103v419c0 23 9 32 33 32h56z" />
    <glyph glyph-name="uni2199" unicode="&#x2199;" horiz-adv-x="745" 
d="M545 568c17 18 28 17 46 0l40 -39c17 -16 16 -29 0 -47l-296 -295h146c23 0 30 -8 30 -31v-58c0 -24 -9 -32 -31 -32h-308c-29 0 -42 13 -42 43v308c0 23 8 31 31 31h61c21 0 27 -10 27 -31v-144z" />
    <glyph glyph-name="arrowleft" unicode="&#x2190;" horiz-adv-x="745" 
d="M671 393c24 0 33 -10 33 -33v-53c0 -24 -9 -33 -33 -33h-419l103 -105c15 -16 15 -25 0 -41l-40 -41c-16 -18 -27 -17 -44 0l-217 217c-22 21 -22 40 0 61l217 217c17 16 28 18 44 0l41 -42c15 -16 16 -25 0 -41l-105 -106h420z" />
    <glyph glyph-name="uni2196" unicode="&#x2196;" horiz-adv-x="745" 
d="M574 586c29 0 42 -13 42 -43v-308c0 -23 -8 -31 -31 -31h-61c-21 0 -27 10 -27 31v144l-295 -295c-18 -18 -29 -17 -47 0l-40 39c-17 16 -16 29 0 47l296 295h-146c-23 0 -30 8 -30 31v58c0 24 9 32 31 32h308z" />
    <glyph glyph-name="lozenge" unicode="&#x25ca;" horiz-adv-x="575" 
d="M310 710c28 0 37 -9 51 -33l180 -294c11 -19 11 -38 0 -56l-180 -294c-14 -24 -23 -33 -51 -33h-46c-27 0 -35 9 -50 33l-181 294c-11 18 -10 37 0 56l181 294c15 24 23 33 50 33h46zM286 531l-97 -176l97 -175h6l98 175l-98 176h-6z" />
    <glyph glyph-name="bar" unicode="|" horiz-adv-x="259" 
d="M165 856c28 0 37 -9 37 -37v-929c0 -28 -9 -37 -37 -37h-71c-28 0 -37 9 -37 37v929c0 28 9 37 37 37h71z" />
    <glyph glyph-name="brokenbar" unicode="&#xa6;" horiz-adv-x="266" 
d="M169 856c28 0 37 -9 37 -37v-357c0 -27 -9 -36 -37 -36h-72c-27 0 -36 9 -36 36v357c0 28 9 37 36 37h72zM169 284c28 0 37 -9 37 -36v-357c0 -28 -9 -37 -37 -37h-72c-27 0 -36 9 -36 37v357c0 27 9 36 36 36h72z" />
    <glyph glyph-name="at" unicode="@" horiz-adv-x="903" 
d="M39 331c0 237 141 394 410 394c271 0 412 -157 412 -394v-77c0 -138 -77 -215 -173 -215c-51 0 -66 14 -92 36c-47 -15 -110 -24 -175 -24c-124 0 -181 63 -181 172v138c0 109 57 172 181 172c88 0 155 -16 191 -30c27 -11 33 -20 33 -48v-274c0 -30 24 -38 44 -38
c30 0 60 25 60 109v81c0 182 -102 292 -300 292c-196 0 -298 -110 -298 -292v-81c0 -183 102 -284 298 -284c72 0 175 16 218 23c19 4 24 1 24 -15v-52c0 -21 -6 -27 -24 -32c-32 -8 -108 -24 -218 -24c-269 0 -410 148 -410 386v77zM518 416c-19 5 -53 8 -81 8
c-55 0 -77 -20 -77 -66v-132c0 -46 22 -65 77 -65c34 0 70 3 88 8v239c0 4 -2 7 -7 8z" />
    <glyph glyph-name="ampersand" unicode="&#x26;" horiz-adv-x="688" 
d="M100 535c0 99 69 190 203 190c108 0 193 -77 193 -180c0 -82 -38 -137 -117 -179l-9 -5l88 -95l56 54c16 17 33 17 49 0l54 -54c13 -14 15 -26 -3 -43l-60 -60l119 -127c20 -22 16 -36 -17 -36h-98c-26 0 -37 4 -54 21l-46 49c-73 -67 -128 -85 -200 -85
c-134 0 -226 88 -226 221c0 92 52 153 122 192c-35 41 -54 86 -54 137zM359 545c0 31 -25 54 -56 54c-42 0 -64 -29 -64 -62c0 -26 7 -43 38 -77l34 18c34 18 48 37 48 67zM247 298c-53 -27 -65 -63 -65 -95c0 -48 34 -81 84 -81c45 0 72 26 98 51z" />
    <glyph glyph-name="paragraph" unicode="&#xb6;" horiz-adv-x="652" 
d="M553 710c28 0 37 -9 37 -37v-725c0 -28 -9 -37 -37 -37h-64c-27 0 -36 9 -36 37v614h-57v-614c0 -28 -9 -37 -36 -37h-64c-28 0 -37 9 -37 37v280c-139 4 -233 100 -233 241c0 144 97 241 240 241h287z" />
    <glyph glyph-name="copyright" unicode="&#xa9;" horiz-adv-x="790" 
d="M36 351c0 200 159 359 360 359c200 0 358 -159 358 -359c0 -201 -158 -359 -358 -359c-201 0 -360 161 -360 359zM655 351c0 148 -113 260 -259 260c-148 0 -261 -112 -261 -260c0 -147 113 -261 261 -261c146 0 259 114 259 261zM243 400c0 87 55 141 152 141
c76 0 125 -33 145 -90c9 -24 4 -33 -18 -40l-36 -13c-21 -7 -29 -3 -37 20c-9 22 -23 29 -54 29c-35 0 -55 -15 -55 -46v-103c0 -30 20 -47 55 -47c28 0 45 11 53 30c10 22 18 28 39 20l35 -14c22 -8 27 -17 18 -39c-22 -56 -66 -89 -145 -89c-97 0 -152 54 -152 139v102z
" />
    <glyph glyph-name="registered" unicode="&#xae;" horiz-adv-x="460" 
d="M34 516c0 107 89 196 197 196c107 0 195 -89 195 -196c0 -108 -88 -196 -195 -196c-108 0 -197 88 -197 196zM94 516c0 -76 61 -138 138 -138c75 0 136 62 136 138s-61 137 -136 137c-77 0 -138 -61 -138 -137zM249 613c42 0 70 -26 70 -68c0 -30 -13 -50 -36 -59l28 -44
c9 -14 8 -23 -11 -23h-26c-15 0 -18 4 -24 13l-28 47h-14v-46c0 -11 -2 -14 -13 -14h-26c-13 0 -15 4 -15 14v166c0 11 2 14 15 14h80zM208 528h37c10 0 17 7 17 17c0 9 -7 16 -17 16h-37v-33z" />
    <glyph glyph-name="uni2117" unicode="&#x2117;" horiz-adv-x="790" 
d="M36 351c0 200 159 359 360 359c200 0 358 -159 358 -359c0 -201 -158 -359 -358 -359c-201 0 -360 161 -360 359zM135 351c0 -147 113 -261 261 -261c146 0 259 114 259 261c0 148 -113 260 -259 260c-148 0 -261 -112 -261 -260zM426 535c82 0 135 -50 135 -131
c0 -82 -53 -131 -135 -131h-63v-81c0 -21 -5 -26 -27 -26h-38c-23 0 -27 5 -27 26v316c0 22 4 27 27 27h128zM419 361c29 0 45 18 45 43c0 24 -16 42 -45 42h-56v-85h56z" />
    <glyph glyph-name="section" unicode="&#xa7;" horiz-adv-x="615" 
d="M55 517c0 122 85 208 258 208c129 0 201 -48 244 -139c14 -29 8 -44 -24 -58l-64 -28c-28 -13 -41 -9 -56 21c-19 38 -48 58 -100 58c-65 0 -94 -20 -94 -63c0 -39 46 -49 104 -59c102 -17 245 -32 245 -194c0 -52 -20 -95 -58 -126c37 -27 63 -72 63 -148
c0 -121 -93 -207 -268 -207c-133 0 -226 54 -262 151c-11 29 -1 45 27 55l66 24c30 12 43 5 55 -26c16 -43 55 -61 113 -61c72 0 106 21 106 65c0 37 -44 47 -101 54c-108 14 -268 20 -268 190c0 59 28 105 77 137c-38 29 -63 73 -63 146zM291 314c-14 3 -29 5 -44 8
c-21 -14 -41 -36 -40 -69c0 -54 55 -62 120 -68c14 -2 29 -3 44 -4c20 14 35 36 35 68c-1 45 -53 55 -115 65z" />
    <glyph glyph-name="trademark" unicode="&#x2122;" horiz-adv-x="624" 
d="M251 695c23 0 28 -3 28 -28v-22c0 -24 -5 -27 -28 -27h-52v-149c0 -21 -7 -26 -30 -26h-25c-22 0 -28 5 -28 26v149h-57c-23 0 -25 4 -25 25v26c0 22 2 26 25 26h192zM537 695c24 0 30 -3 30 -28v-198c0 -21 -3 -26 -27 -26h-24c-23 0 -26 5 -26 26v40c0 10 1 29 3 48
c-4 -8 -7 -14 -11 -20l-14 -20c-9 -12 -14 -17 -32 -17h-10c-16 0 -20 2 -30 14l-15 19c-4 5 -8 10 -11 16c2 -16 3 -31 3 -40v-40c0 -21 -3 -26 -26 -26h-24c-24 0 -27 5 -27 26v198c0 25 6 28 30 28h15c18 0 23 -4 33 -18l58 -90l56 89c8 11 16 19 33 19h16z" />
    <glyph glyph-name="degree" unicode="&#xb0;" horiz-adv-x="407" 
d="M378 555c0 -95 -78 -175 -174 -175c-98 0 -176 77 -176 175c0 99 78 174 176 174c97 0 174 -75 174 -174zM143 554c0 -32 28 -60 61 -60s60 28 60 60s-27 62 -60 62s-61 -30 -61 -62z" />
    <glyph glyph-name="estimated" unicode="&#x212e;" horiz-adv-x="804" 
d="M776 331c0 -17 -7 -25 -26 -25h-521v-169c48 -39 111 -62 177 -62c64 0 166 20 240 133c11 17 16 19 40 19h43c18 0 22 -5 14 -24c-58 -129 -187 -218 -337 -218c-204 0 -370 166 -370 370s166 370 370 370s370 -166 370 -370v-24zM583 571c-48 40 -110 64 -177 64
s-129 -24 -177 -64v-175h354v175z" />
    <glyph glyph-name="uni2113" unicode="&#x2113;" horiz-adv-x="453" 
d="M111 519c0 166 85 213 167 213c101 0 149 -66 149 -160c0 -105 -34 -212 -185 -338v-47c0 -43 19 -62 53 -62c14 0 27 5 38 12c14 10 26 10 36 -2l46 -55c8 -10 17 -23 -2 -39c-23 -19 -62 -47 -127 -47c-98 0 -166 45 -171 141l-1 6l-9 -6c-20 -13 -32 -10 -44 9l-36 57
c-11 18 -10 35 7 46c29 19 55 37 79 54v218zM297 575c0 23 -8 36 -21 36c-17 0 -34 -14 -34 -93v-102c40 50 55 98 55 159z" />
    <glyph glyph-name="uni2116" unicode="&#x2116;" horiz-adv-x="1057" 
d="M1014 501c0 -92 -60 -149 -172 -149c-111 0 -171 57 -171 149v73c0 93 60 151 171 151c112 0 172 -58 172 -151v-73zM592 710c31 0 41 -10 41 -41v-628c0 -31 -10 -41 -41 -41h-80c-21 0 -31 5 -40 19l-197 298c-49 74 -75 160 -84 187h-7c7 -29 28 -118 28 -224v-239
c0 -31 -10 -41 -40 -41h-74c-31 0 -41 10 -41 41v628c0 31 10 41 41 41h82c22 0 31 -6 40 -19l200 -303c51 -78 73 -156 82 -179h7c-9 31 -31 114 -31 221v239c0 31 10 41 40 41h74zM790 510c0 -29 18 -44 52 -44c35 0 52 15 52 44v57c0 29 -17 44 -52 44
c-34 0 -52 -15 -52 -44v-57zM975 324c31 0 41 -11 41 -41v-49c0 -30 -10 -40 -41 -40h-265c-31 0 -41 10 -41 40v49c0 30 10 41 41 41h265z" />
    <glyph glyph-name="asciicircum" unicode="^" horiz-adv-x="601" 
d="M324 810c29 0 35 -10 53 -33l179 -214c23 -28 16 -43 -20 -43h-73c-45 0 -51 4 -74 33l-88 114h-5l-89 -114c-24 -30 -32 -33 -76 -33h-66c-36 0 -43 16 -20 43l178 214c19 23 28 33 55 33h46z" />
    <glyph glyph-name="dagger" unicode="&#x2020;" horiz-adv-x="527" 
d="M461 518c31 0 41 -10 41 -40v-67c0 -31 -10 -41 -41 -41h-121v-429c0 -31 -11 -41 -41 -41h-71c-30 0 -40 10 -40 41v429h-122c-31 0 -41 10 -41 41v67c0 30 10 40 41 40h122v151c0 31 10 41 40 41h71c30 0 41 -10 41 -41v-151h121z" />
    <glyph glyph-name="daggerdbl" unicode="&#x2021;" horiz-adv-x="556" 
d="M313 710c30 0 41 -10 41 -41v-151h121c31 0 41 -10 41 -40v-67c0 -31 -10 -41 -41 -41h-121v-130h122c31 0 41 -10 41 -41v-67c0 -30 -10 -40 -41 -40h-122v-151c0 -31 -11 -41 -41 -41h-71c-30 0 -40 10 -40 41v151h-122c-30 0 -40 10 -40 40v67c0 31 10 41 40 41h122
v130h-122c-31 0 -41 10 -41 41v67c0 30 10 40 41 40h122v151c0 31 10 41 40 41h71z" />
    <glyph glyph-name="acute" unicode="&#xb4;" horiz-adv-x="257" 
d="M156 733c23 13 47 20 66 -2l37 -43c17 -21 18 -31 -5 -40l-175 -64c-23 -8 -35 -10 -45 3l-20 24c-15 19 -16 28 2 38z" />
    <glyph glyph-name="breve" unicode="&#x2d8;" horiz-adv-x="287" 
d="M301 683c-24 -64 -84 -102 -163 -102c-78 0 -138 38 -161 102c-7 18 -2 26 16 33l52 20c21 7 29 5 37 -12c10 -24 30 -39 56 -39s46 15 57 39c8 17 14 19 32 13l58 -21c18 -8 22 -15 16 -33z" />
    <glyph glyph-name="caron" unicode="&#x2c7;" horiz-adv-x="358" 
d="M334 737c31 0 31 -15 16 -31l-95 -96c-29 -29 -37 -31 -67 -31h-18c-36 0 -43 2 -71 31l-95 96c-15 16 -15 31 15 31h59c32 0 41 -2 58 -20l41 -44l38 43c17 19 29 21 60 21h59z" />
    <glyph glyph-name="cedilla" unicode="&#xb8;" horiz-adv-x="251" 
d="M156 -50h9c53 0 88 -42 82 -96c-9 -79 -77 -99 -143 -99c-14 0 -49 1 -71 11c-17 7 -21 15 -21 31l-1 37c0 13 5 23 22 15c17 -9 28 -14 54 -14c30 0 39 13 39 27c0 15 -9 21 -38 22h-20c-19 0 -23 9 -15 28l39 88h84z" />
    <glyph glyph-name="circumflex" unicode="&#x2c6;" horiz-adv-x="401" 
d="M209 739c30 0 38 -2 66 -31l96 -96c15 -16 14 -31 -16 -31h-62c-32 0 -44 2 -60 20l-38 44l-41 -44c-17 -19 -26 -20 -58 -20h-56c-30 0 -31 15 -16 31l96 96c27 28 35 31 71 31h18z" />
    <glyph glyph-name="dieresis" unicode="&#xa8;" horiz-adv-x="439" 
d="M117 723c49 0 65 -16 65 -64v-11c0 -47 -16 -63 -65 -63h-7c-49 0 -64 16 -64 63v11c0 48 15 64 64 64h7zM324 723c49 0 64 -16 64 -64v-11c0 -47 -15 -63 -64 -63h-7c-49 0 -65 16 -65 63v11c0 48 16 64 65 64h7z" />
    <glyph glyph-name="dotaccent" unicode="&#x2d9;" horiz-adv-x="217" 
d="M112 726c51 0 66 -15 66 -66v-8c0 -51 -15 -66 -66 -66h-6c-51 0 -66 15 -66 66v8c0 51 15 66 66 66h6z" />
    <glyph glyph-name="grave" unicode="`" horiz-adv-x="257" 
d="M52 731c19 22 43 15 66 2l140 -84c18 -10 17 -19 2 -38l-20 -24c-10 -13 -23 -11 -45 -3l-175 64c-24 9 -22 19 -5 40z" />
    <glyph glyph-name="hungarumlaut" unicode="&#x2dd;" horiz-adv-x="395" 
d="M104 712c16 22 34 32 63 24l48 -14c25 -8 29 -23 11 -41l-103 -88c-19 -16 -27 -21 -43 -15l-27 6c-24 7 -23 20 -12 37zM282 712c16 22 34 32 62 24l51 -16c26 -8 30 -24 11 -40l-114 -92c-18 -15 -26 -20 -42 -15l-27 7c-24 7 -24 21 -12 37z" />
    <glyph glyph-name="macron" unicode="&#xaf;" horiz-adv-x="352" 
d="M295 706c28 0 35 -7 35 -34v-33c0 -28 -7 -35 -35 -35h-234c-28 0 -35 7 -35 35v33c0 27 10 34 35 34h234z" />
    <glyph glyph-name="ogonek" unicode="&#x2db;" horiz-adv-x="252" 
d="M202 1c-48 -62 -60 -106 -56 -125c3 -11 10 -18 20 -18c5 0 11 1 18 5c9 6 18 4 22 -6l17 -41c6 -12 5 -19 -2 -26c-26 -23 -65 -35 -101 -35c-46 0 -89 14 -98 65c-10 54 23 120 83 180z" />
    <glyph glyph-name="ring" unicode="&#x2da;" horiz-adv-x="240" 
d="M4 665c0 67 49 112 118 112c67 0 115 -46 115 -112s-48 -110 -115 -110c-69 0 -118 44 -118 110zM162 665c0 25 -17 42 -40 42c-26 0 -44 -17 -44 -42c0 -23 18 -40 44 -40c23 0 40 16 40 40z" />
    <glyph glyph-name="tilde" unicode="&#x2dc;" horiz-adv-x="305" 
d="M290 731c17 0 22 -7 22 -22c0 -90 -29 -119 -90 -119c-66 0 -89 50 -126 50c-10 0 -16 -7 -16 -28c0 -15 -6 -22 -20 -22h-45c-17 0 -23 8 -23 23c0 90 33 118 89 118c70 0 92 -50 128 -50c10 0 16 8 16 29c0 14 4 21 21 21h44z" />
    </font>
</defs>
</svg>
